<?xml version="1.0" encoding="utf-8"?>
<!-- Generator: Adobe Illustrator 15.0.0, SVG Export Plug-In . SVG Version: 6.00 Build 0)  -->
<!DOCTYPE svg PUBLIC "-//W3C//DTD SVG 1.1//EN" "http://www.w3.org/Graphics/SVG/1.1/DTD/svg11.dtd">
<svg version="1.1" id="Layer_1" xmlns="http://www.w3.org/2000/svg" xmlns:xlink="http://www.w3.org/1999/xlink" x="0px" y="0px"
	 width="30px" height="72.75px" viewBox="0 0 30 72.75" enable-background="new 0 0 30 72.75" xml:space="preserve">
<path fill-rule="evenodd" clip-rule="evenodd" fill="#FCCFBB" d="M12.589,45.803c-0.039,0.035-0.167,0.027-0.074,0.131
	c0.084,0.096,0.189,0.176,0.264,0.277c0.127,0.174,0.167,0.377,0.027,0.555c-0.138,0.176-0.307,0.076-0.463,0
	c-0.048-0.025-0.1-0.041-0.225-0.09c0.32,0.541,0.641,1.021,0.65,1.6c0.011,0.676-0.482,0.982-1.009,1.244
	c-0.193,0.021-0.242-0.139-0.289-0.262c-1.054-2.762-2.505-5.346-3.615-8.082c-0.551-1.357-0.954-2.76-0.982-4.229
	c-0.022-1.115,0.168-2.213,0.569-3.266c0.038-0.035,0.08-0.041,0.125-0.014c0.354,0.096,0.709,0.191,1.063,0.291
	c0.241,0.066,0.235,0.24,0.192,0.439c-0.163,0.764-0.236,1.533-0.247,2.316c-0.016,1.184,0.264,2.303,0.667,3.396
	c0.221,0.6,0.472,1.186,0.7,1.781c0.042,0.109,0.074,0.213,0.187,0.268c0.4,0.643,0.74,1.312,0.938,2.047
	c0.147,0.348,0.268,0.711,0.448,1.043C11.74,45.662,12.2,45.678,12.589,45.803"/>
<path fill-rule="evenodd" clip-rule="evenodd" fill="#FCCFBB" d="M18.603,48.486c0.045-0.584,0.25-1.115,0.534-1.619
	c0.026-0.09,0.009-0.137-0.096-0.092c-0.171,0.086-0.348,0.262-0.523,0.025c-0.149-0.199-0.088-0.408,0.048-0.59
	c0.118-0.158,0.254-0.303,0.383-0.451c0.462-0.154,0.727-0.447,0.884-0.936c0.492-1.516,1.129-2.98,1.583-4.51
	c0.56-1.889,0.727-3.787,0.233-5.719c-0.155-0.605-0.145-0.602,0.491-0.771c0.645-0.172,0.837-0.227,1.433-0.418
	c0.216-0.07,0.3-0.027,0.357,0.199c0.323,1.287,0.572,2.586,0.497,3.92c-0.108,1.918-0.605,3.752-1.266,5.549
	c-0.408,1.109-0.871,2.203-1.192,3.336c-0.263,0.928-0.41,1.887-0.853,2.76c-0.06,0.117-0.025,0.281-0.035,0.424
	c-0.082,0.023-0.167-0.002-0.25,0.033c-1.055,0.443-1.828,0.139-2.282-0.896C18.534,48.643,18.531,48.555,18.603,48.486"/>
<path fill="#FFFFFF" d="M21.687,34.008c0.473,0.01,2.139-0.627,2.139-0.627c-0.05-3.354-3.271-6.201-3.271-6.201
	c-4.023,1.57-8.906,0.1-8.906,0.1c-3.95-1.027-5.227,6.219-5.227,6.219c0.284-0.24,2.384,0.688,2.384,0.688l0.68-1.814
	c2.127,6.209,0.534,9.789,0.534,9.789l1.197,2.645c0.634,1.33,1.262,0.998,1.262,0.998l3.23,0.107
	c3.743,0.246,3.89-0.424,3.89-0.424S21.901,36.234,21.687,34.008"/>
<path fill-rule="evenodd" clip-rule="evenodd" fill="#FCCFBB" d="M5.93,22.203c-0.367-0.959-0.652-1.938-0.596-2.978
	c0.019-0.347-0.077-0.465-0.445-0.461c-1.32,0.012-2.378-0.987-2.464-2.285c-0.082-1.251,0.85-2.398,2.133-2.567
	c0.271-0.035,0.359-0.146,0.417-0.359c0.157,0.255,0.379,0.436,0.616,0.618c0.609,0.469,0.813,1.129,0.804,1.878
	c-0.005,0.459,0.063,0.5,0.534,0.412c0.055-0.052,0.081-0.112,0.087-0.188c0.179-2.095,0.962-3.971,2.07-5.729
	c0.283-0.449,0.637-0.839,1.022-1.202c0.193-0.183,0.367-0.218,0.605-0.062c1.398,0.911,2.933,1.46,4.591,1.625
	c1.007,0.101,2.02,0.099,3.026-0.051c0.155-0.023,0.31-0.056,0.466-0.013c-0.153-0.043-0.305-0.085-0.288-0.294
	c0.428-0.211,0.886-0.192,1.288-0.214c-0.142-0.07-0.428-0.031-0.528-0.308c0.07-0.247,0.283-0.261,0.478-0.267
	c1.208-0.034,2.363-0.262,3.409-0.903c0.073-0.045,0.158-0.062,0.246-0.051c0.233,0.09,0.343,0.293,0.446,0.497
	c0.719,1.418,1.133,2.918,1.188,4.513c0.103,0.283,0.134,0.575,0.133,0.875c-0.004,1.146,0,2.293-0.003,3.439
	c-0.001,0.224,0.027,0.457-0.135,0.649c0.073,2.525-0.716,4.762-2.271,6.74c-0.033,0.042-0.088,0.067-0.134,0.1
	c-0.46,0.244-0.881,0.552-1.355,0.778c-1.32,0.631-2.698,0.958-4.166,0.975c-2.169,0.029-4.258-0.346-6.254-1.18
	C8.829,25.344,7.087,24.128,5.93,22.203"/>
<path fill-rule="evenodd" clip-rule="evenodd" fill="#714A37" d="M24.958,13.708c-0.163-1.542-0.503-3.034-1.248-4.411
	c-0.087-0.161-0.21-0.303-0.316-0.454c-0.167-0.083-0.325-0.055-0.49,0.023c-1.075,0.51-2.234,0.656-3.4,0.767
	c-0.212,0.02-0.427,0.019-0.644,0.062c0.149,0.104,0.353,0.14,0.437,0.328c0.2,0.1,0.399,0.2,0.666,0.333
	c-0.51,0.155-0.981,0.143-1.438,0.21c-0.087,0.092-0.204,0.095-0.317,0.1c-2.677,0.125-5.231-0.291-7.54-1.745
	c-0.3-0.188-0.484-0.115-0.697,0.113c-1.282,1.377-2.147,2.975-2.543,4.816c-0.197,0.916-0.36,1.84-0.369,2.782
	c-0.014,0.003-0.027,0.008-0.041,0.009c-0.708,0.048-0.711,0.048-0.728-0.648c-0.021-0.85-0.298-1.559-1.113-1.939
	c-0.262-0.122-0.142-0.332-0.201-0.5c0.046-1.704,0.285-3.371,0.936-4.962c0.385-0.943,0.899-1.806,1.571-2.572
	c0.026-0.19-0.093-0.127-0.187-0.106C6.956,5.946,6.613,5.966,6.276,6.02C5.957,6.071,5.921,5.964,6.005,5.681
	c0.12-0.408,0.198-0.83,0.302-1.285c0.5,0.235,0.981,0.463,1.463,0.689c0.026-0.026,0.053-0.053,0.079-0.078
	C7.519,4.602,7.188,4.196,6.82,3.746c0.49-0.19,0.946-0.366,1.401-0.544c0.205-0.08,0.197,0.066,0.216,0.194
	c0.071,0.478,0.146,0.954,0.228,1.49c0.701-0.492,1.391-0.9,2.141-1.204c1.38-0.56,2.815-0.81,4.299-0.809
	c2.483,0.002,4.966,0.002,7.449,0.003h0.402c-0.484,0.525-0.985,1.068-1.552,1.684h3.456c-0.543,0.487-0.98,0.902-1.443,1.284
	c-0.23,0.19-0.271,0.304-0.065,0.566c1.165,1.49,1.651,3.228,1.764,5.087c0.045,0.741,0.021,1.483-0.019,2.226
	C25.044,13.768,24.997,13.773,24.958,13.708"/>
<path fill-rule="evenodd" clip-rule="evenodd" fill="#0A5AA2" d="M12.589,45.803c2.176,0.168,4.352,0.133,6.525-0.043
	c0.051,0.17-0.089,0.252-0.173,0.355c-0.125,0.156-0.268,0.314-0.185,0.527c0.103,0.262,0.326,0.037,0.484,0.096
	c0.064,0.029,0.095,0.08,0.103,0.148c-0.177,0.535-0.388,1.059-0.538,1.602c-0.274-0.006-0.489,0.156-0.727,0.256
	c-0.189-0.186-0.424-0.215-0.673-0.211c-1.269,0.025-2.534-0.072-3.8-0.139c-0.365-0.02-0.42,0.041-0.431,0.498
	c-0.046,2.123-0.069,4.248-0.104,6.371c-0.029,1.723-0.051,3.447-0.079,5.172c-0.008,0.496-0.1,0.992-0.075,1.492
	c0.01,0.205,0.04,0.375,0.248,0.502c0.898,0.553,0.986,1.797,0.188,2.492c-0.043,0.037-0.079,0.082-0.123,0.117
	c-0.263,0.119-0.516-0.002-0.773-0.029c-0.496-0.094-0.996-0.025-1.494-0.043c-0.518-0.018-0.628-0.094-0.622-0.59
	c0.024-1.994-0.095-3.992,0.069-5.986c0.008-0.1,0.011-0.199,0.008-0.299c-0.055-2.652,0.144-5.303,0.088-7.955
	c-0.003-0.17-0.006-0.342,0.046-0.508c0.076-0.205,0.232-0.166,0.386-0.119c0.254,0.078,0.501,0.076,0.738-0.055
	c0.109-0.064,0.224-0.121,0.332-0.189c0.641-0.41,0.798-0.898,0.512-1.6c-0.103-0.25-0.238-0.482-0.367-0.719
	c-0.108-0.201-0.094-0.336,0.19-0.281c0.133,0.027,0.291,0.117,0.375-0.062c0.078-0.162-0.048-0.287-0.118-0.426
	C12.547,46.07,12.208,45.934,12.589,45.803"/>
<path fill-rule="evenodd" clip-rule="evenodd" fill="#0A5AA2" d="M18.795,48.715c0.239,0.451,0.537,0.832,1.055,0.996
	c0.411,0.129,0.793,0.131,1.107-0.203c0.18-0.189,0.238-0.092,0.29,0.086c0.07,1.492,0.131,2.986,0.212,4.479
	c0.142,2.617,0.171,5.236,0.23,7.855c0.006,0.262-0.047,0.492,0.366,0.564c0.369,0.064,0.604,0.393,0.575,0.83
	c-0.015,0.213-0.021,0.432,0.011,0.641c0.066,0.438-0.317,0.635-0.476,0.949c-0.368,0.211-0.757-0.006-1.132,0.057
	c-0.428-0.008-0.856-0.006-1.284-0.004c-0.341,0.002-0.498-0.16-0.5-0.492c0-0.041-0.006-0.084-0.004-0.127
	c0.055-1.711-0.062-3.42-0.106-5.127c-0.054-2.092-0.082-4.186-0.217-6.275c-0.083-1.279-0.182-2.557-0.242-3.838
	C18.672,48.963,18.665,48.818,18.795,48.715"/>
<path fill-rule="evenodd" clip-rule="evenodd" fill="#D6B09F" d="M7.479,33.674c-0.089,0.631-0.257,1.246-0.378,1.871
	c-0.255,1.322-0.056,2.596,0.281,3.861c0.504,1.891,1.4,3.627,2.232,5.385c0.676,1.426,1.346,2.854,1.91,4.328
	c0.055,0.145,0.104,0.299,0.234,0.4c-0.377,0.314-0.742,0.188-1.104-0.029c-0.252-0.01-0.323-0.24-0.481-0.408
	c0,1.934,0.004,3.84-0.006,5.748c-0.001,0.197,0.106,0.463-0.197,0.57c-0.004-1.369-0.008-2.738-0.011-4.105
	c-0.001-0.686-0.011-1.371,0.005-2.055c0.012-0.49-0.129-0.943-0.222-1.414c-0.371-1.881-1.418-3.465-2.158-5.182
	c-0.828-1.92-1.515-3.867-1.511-5.994c0.002-1.074,0.177-2.119,0.458-3.152C6.842,33.289,7.237,33.363,7.479,33.674"/>
<path fill-rule="evenodd" clip-rule="evenodd" fill="#010101" d="M14.753,65.445c0.75,0.43,1.417,0.951,1.866,1.709
	c0.063,0.107,0.192,0.223,0.141,0.34c-0.058,0.135-0.228,0.07-0.346,0.068c-2.292-0.008-4.585-0.027-6.878-0.031
	c-0.292,0-0.398-0.074-0.369-0.387c0.05-0.529,0.219-1.025,0.361-1.529c0.116-0.229,0.232-0.457,0.348-0.686
	c0.083-0.092,0.201-0.137,0.31-0.113c0.775,0.162,1.563,0.002,2.34,0.104c0.216,0.025,0.432,0.051,0.647,0.078
	C13.781,64.861,14.285,65.09,14.753,65.445"/>
<path fill-rule="evenodd" clip-rule="evenodd" fill="#010101" d="M24.604,65.787c0.47,0.428,0.953,0.846,1.204,1.49
	c-0.107,0.078-0.25,0.059-0.38,0.064c-2.263,0.078-4.526,0.146-6.788,0.24c-0.367,0.016-0.423-0.115-0.403-0.436
	c0.035-0.59,0.207-1.143,0.378-1.699c0.01-0.258,0.1-0.471,0.339-0.6c0.576,0.055,1.153,0.043,1.73,0.039
	c0.14,0,0.284,0.035,0.418-0.035c0.354,0.02,0.709,0.041,1.063,0.061C23.055,64.988,23.857,65.312,24.604,65.787"/>
<path fill-rule="evenodd" clip-rule="evenodd" fill="#D8D9D8" d="M11.068,44.207c-0.35-0.666-0.7-1.33-0.938-2.047
	c0.33-0.721,0.423-1.5,0.502-2.27c0.255-2.459-0.29-4.824-0.929-7.174c-0.115-0.422-0.186-0.807,0.044-1.225
	c0.19-0.346,0.299-0.736,0.444-1.107c0.015-0.037,0.034-0.074,0.1-0.221c0.312,1.258,0.59,2.381,0.869,3.504
	c-0.001,0.061-0.027,0.111-0.057,0.162c-0.183,0.346,0.146,0.502,0.275,0.732c0.06,0.094,0.183,0.168,0.109,0.309
	c-0.162,0.271,0.023,0.521,0.064,0.773c0.183,1.117,0.453,2.232,0.363,3.371c-0.11,1.396-0.335,2.781-0.625,4.152
	C11.218,43.516,11.143,43.861,11.068,44.207"/>
<path fill-rule="evenodd" clip-rule="evenodd" fill="#F9B090" d="M5.93,22.203c0.363,0.225,0.526,0.622,0.788,0.933
	c1.059,1.256,2.38,2.144,3.854,2.819c1.364,0.626,2.81,0.995,4.291,1.192c2.669,0.354,5.215,0.027,7.519-1.493
	c0.075-0.049,0.143-0.166,0.246-0.035c-1.614,1.649-3.635,2.278-5.876,2.311c-2.212,0.033-4.375-0.258-6.405-1.196
	C8.301,25.79,6.774,24.325,5.93,22.203"/>
<path fill-rule="evenodd" clip-rule="evenodd" fill="#0B4D8A" d="M12.526,64.92c-0.883,0.004-1.767,0.006-2.65,0.01
	c-0.588-0.238-0.701-0.402-0.702-1.018c0-0.229,0.001-0.455,0.007-0.684c0.005-0.227,0.089-0.479,0.284-0.539
	c0.493-0.154,0.414-0.527,0.418-0.883C9.911,59.67,9.94,57.535,9.97,55.4c0.083-0.131,0.042-0.277,0.042-0.416
	c0.009-1.926,0.013-3.85,0.019-5.775c0-0.152,0-0.307,0-0.549c0.243,0.322,0.433,0.576,0.624,0.83
	c-0.003,0.084-0.011,0.17-0.009,0.256c0.057,2.85-0.058,5.697-0.115,8.545c-0.041,2.035-0.004,4.072-0.064,6.107
	c-0.011,0.357,0.102,0.457,0.455,0.457C11.455,64.857,11.997,64.76,12.526,64.92"/>
<path fill-rule="evenodd" clip-rule="evenodd" fill="#F9B090" d="M24.958,13.708c0.046,0.005,0.092,0.01,0.138,0.015
	c0.034,0.199,0.199,0.159,0.331,0.188c1.015,0.224,1.725,0.808,1.985,1.824c0.271,1.056-0.09,1.928-0.947,2.584
	c-0.417,0.318-0.905,0.463-1.433,0.46C24.997,17.087,25.113,15.395,24.958,13.708"/>
<path fill-rule="evenodd" clip-rule="evenodd" fill="#DE3549" d="M16.957,31.857c-0.384,0.436-0.74,0.842-1.1,1.246
	c-0.316,0.354-0.476,0.348-0.782-0.027c-0.279-0.342-0.562-0.682-0.827-1.035c-0.122-0.164-0.197-0.148-0.318-0.006
	c-0.315,0.367-0.638,0.729-0.965,1.088c-0.293,0.32-0.455,0.318-0.722-0.006c-0.397-0.486-0.785-0.979-1.182-1.465
	c-0.149-0.184-0.251-0.373-0.033-0.559c0.216-0.182,0.394-0.061,0.542,0.125c0.277,0.346,0.567,0.68,0.826,1.037
	c0.158,0.219,0.259,0.25,0.439,0.021c0.274-0.346,0.578-0.668,0.872-0.998c0.33-0.371,0.471-0.371,0.776,0.002
	c0.28,0.34,0.563,0.68,0.83,1.033c0.134,0.178,0.216,0.158,0.35,0c0.322-0.381,0.662-0.746,0.992-1.121
	c0.219-0.248,0.43-0.246,0.639,0.012c0.286,0.355,0.584,0.701,0.854,1.068c0.149,0.203,0.243,0.223,0.41,0.018
	c0.306-0.375,0.638-0.729,0.957-1.094c0.16-0.184,0.347-0.281,0.548-0.088c0.182,0.174,0.104,0.359-0.045,0.525
	c-0.445,0.502-0.883,1.008-1.333,1.506c-0.279,0.309-0.446,0.293-0.721-0.043C17.63,32.693,17.302,32.283,16.957,31.857"/>
<path fill-rule="evenodd" clip-rule="evenodd" fill="#DE3549" d="M11.488,34.871c-0.054-0.084-0.107-0.168-0.16-0.252
	c-0.146-0.271-0.251-0.555-0.262-0.867c0.031-0.027,0.063-0.057,0.094-0.084c0.21-0.006,0.335,0.123,0.454,0.275
	c0.272,0.348,0.558,0.686,0.825,1.037c0.131,0.174,0.222,0.17,0.358,0.008c0.312-0.371,0.644-0.727,0.958-1.096
	c0.246-0.287,0.465-0.281,0.696,0.018c0.28,0.359,0.579,0.707,0.856,1.068c0.128,0.166,0.213,0.182,0.354,0.01
	c0.292-0.35,0.599-0.688,0.905-1.027c0.355-0.393,0.479-0.391,0.803,0.012c0.26,0.322,0.528,0.639,0.773,0.971
	c0.147,0.201,0.249,0.221,0.415,0.018c0.298-0.363,0.619-0.709,0.931-1.062c0.15-0.17,0.319-0.328,0.543-0.143
	c0.239,0.201,0.12,0.402-0.046,0.588c-0.437,0.49-0.875,0.98-1.304,1.477c-0.246,0.283-0.463,0.285-0.697-0.014
	c-0.333-0.426-0.676-0.842-1.028-1.277c-0.394,0.445-0.758,0.865-1.132,1.275c-0.291,0.32-0.44,0.316-0.72-0.021
	c-0.335-0.402-0.661-0.814-1.013-1.25c-0.377,0.422-0.737,0.826-1.097,1.229c-0.336,0.375-0.478,0.369-0.804-0.029
	C11.959,35.443,11.723,35.158,11.488,34.871"/>
<path fill-rule="evenodd" clip-rule="evenodd" fill="#D8D9D8" d="M7.479,33.674c-0.305-0.119-0.602-0.277-0.947-0.176
	c0.415-1.602,1.064-3.117,1.739-4.619c0.204-0.455,0.546-0.844,1.126-0.859c0.102-0.002,0.207-0.131,0.307,0.014
	c0.093,0.135,0.075,0.258,0.009,0.398c-0.301,0.645-0.587,1.297-0.888,1.939c-0.452,0.967-0.875,1.945-1.189,2.967
	c-0.033,0.107-0.046,0.219-0.069,0.33C7.538,33.67,7.509,33.672,7.479,33.674"/>
<path fill-rule="evenodd" clip-rule="evenodd" fill="#B19C92" d="M7.296,5.912c0.081-0.074,0.191-0.11,0.268-0.042
	c0.062,0.056-0.013,0.119-0.082,0.148C7.456,5.921,7.361,5.942,7.296,5.912"/>
<path fill-rule="evenodd" clip-rule="evenodd" fill="#F9B08F" d="M7.059,16.631c-0.062-2.97,0.826-5.582,2.901-7.754
	c0.242-0.253,0.402-0.309,0.734-0.087c1.45,0.968,3.081,1.449,4.797,1.682c1.009,0.137,2.021,0.086,3.033,0.093
	c0.091,0.085,0.183,0.171,0.293,0.273c-0.356,0.179-0.745,0.192-1.107,0.213c-1.642,0.091-3.269,0.005-4.836-0.571
	c-0.792-0.291-1.548-0.656-2.248-1.124c-0.194-0.13-0.268-0.101-0.416,0.035c-0.897,0.83-1.509,1.855-1.993,2.955
	c-0.458,1.041-0.823,2.117-1.046,3.24C7.103,15.936,7.241,16.3,7.059,16.631"/>
<path fill-rule="evenodd" clip-rule="evenodd" fill="#F9B090" d="M20.665,23.029c-1.363,1.733-4.371,1.723-5.543,0.009
	c0.925,0.288,1.818,0.464,2.747,0.455C18.796,23.484,19.694,23.325,20.665,23.029"/>
<path id="right-eye" fill-rule="evenodd" clip-rule="evenodd" fill="#714A37" d="M22.651,16.683c-0.012,0.309-0.017,0.491-0.083,0.671
	c-0.176,0.479-0.501,0.756-0.887,0.736c-0.36-0.019-0.696-0.321-0.818-0.771c-0.111-0.409-0.106-0.821,0.088-1.21
	c0.162-0.325,0.407-0.573,0.79-0.563c0.381,0.01,0.617,0.267,0.77,0.596C22.609,16.351,22.662,16.573,22.651,16.683">
	<animate attributeType="XML" attributeName="fill" dur="4s" values="#714A37, #714A37, #fff, #fff, #714A37, #714A37" keyTimes="0; 0.47; 0.48; 0.55; 0.56; 1" repeatCount="indefinite"></animate>
	<animate attributeName="fill" keyTimes="0; 0.47; 0.48; 0.55; 0.56; 1" repeatCount="indefinite" values="#714A37, #714A37, #fff, #fff, #714A37, #714A37" dur="4s" begin="2s"></animate>
	<!--<animate attributeType="xml" attributeName="fill" dur="6s" values="#714A37, #714A37, #fff, #fff, #714A37, #714A37" keyTimes="0; 1; 2; 3; 4; 5" repeatCount="indefinite" begin="0s"></animate>-->
</path>
<path id="right-eye-pupil" fill-rule="evenodd" clip-rule="evenodd" fill="#945F48" d="M22.036,16.633c0.012,0.333-0.088,0.605-0.453,0.667
	c-0.251,0.042-0.501-0.329-0.491-0.689c0.01-0.347,0.254-0.688,0.492-0.646C21.948,16.029,22.048,16.299,22.036,16.633"/>
<path fill-rule="evenodd" clip-rule="evenodd" fill="#714A37" d="M13.981,16.837c-0.008,0.707-0.434,1.266-0.953,1.254
	c-0.512-0.013-0.931-0.601-0.919-1.291c0.012-0.698,0.452-1.279,0.956-1.263C13.571,15.554,13.989,16.148,13.981,16.837"/>
<path id="right-eye-brow" fill-rule="evenodd" clip-rule="evenodd" fill="#734B38" d="M19.771,13.536c0.543-0.686,1.221-1.093,2.101-0.979
	c0.876,0.113,1.56,0.548,1.952,1.385c-0.641-0.295-1.257-0.631-1.985-0.66C21.136,13.253,20.456,13.357,19.771,13.536"/>
<path fill-rule="evenodd" clip-rule="evenodd" fill="#734B38" d="M10.97,13.875c1.026-1.686,3.272-1.742,4.209-0.139
	C13.755,13.026,12.383,13.03,10.97,13.875"/>
<path fill-rule="evenodd" clip-rule="evenodd" fill="#F9B18F" d="M19.297,10.022c-0.207-0.095-0.414-0.188-0.619-0.284
	c-0.035-0.017-0.064-0.049-0.137-0.106c0.766-0.093,1.49-0.168,2.21-0.27c0.792-0.112,1.572-0.278,2.267-0.702
	c0.244-0.149,0.286,0.051,0.375,0.183c-1.114,0.733-2.353,1.021-3.669,1.026C19.563,9.87,19.416,9.902,19.297,10.022"/>
<path fill-rule="evenodd" clip-rule="evenodd" fill="#F9B190" d="M17.232,21.564c0.81-0.208,1.443-0.557,2.089-0.875
	c0.082-0.04,0.172-0.144,0.266-0.061c0.094,0.084,0.004,0.185-0.023,0.274c-0.195,0.65-0.808,0.984-1.596,0.855
	C17.749,21.722,17.535,21.645,17.232,21.564"/>
<path fill-rule="evenodd" clip-rule="evenodd" fill="#FDE0D4" d="M18.699,20.089c-0.026,0.255-0.145,0.393-0.382,0.394
	c-0.257,0.001-0.395-0.139-0.39-0.395c0.004-0.235,0.138-0.365,0.374-0.37C18.562,19.713,18.676,19.869,18.699,20.089"/>
<path fill-rule="evenodd" clip-rule="evenodd" fill="#0B4D8A" d="M18.86,64.943c-0.546-0.158-0.713-0.354-0.746-0.893
	c-0.015-0.24-0.016-0.484-0.019-0.727c-0.003-0.277,0.102-0.537,0.344-0.645c0.309-0.139,0.34-0.342,0.334-0.635
	c-0.091-4.346-0.25-8.689-0.612-13.023c-0.007-0.084,0.003-0.17,0.005-0.256c0.007-0.508,0.305-0.393,0.602-0.279l0.026,0.229
	c0.074,1.031,0.142,2.062,0.223,3.092c0.043,0.553,0.072,1.111,0.08,1.658c0.016,1.125,0.126,2.244,0.116,3.369
	c-0.013,1.48,0.059,2.961,0.106,4.439c0.035,1.068,0.037,2.135,0.052,3.201c0.004,0.314,0.12,0.387,0.404,0.375
	c0.441-0.016,0.884,0,1.326,0.002C20.36,65.004,19.606,64.889,18.86,64.943"/>
<path fill-rule="evenodd" clip-rule="evenodd" fill="#8294AF" d="M19.207,46.775c0.044-0.092,0.154-0.176,0.209-0.117
	c0.077,0.082-0.036,0.156-0.113,0.209C19.271,46.836,19.239,46.807,19.207,46.775"/>
<path fill-rule="evenodd" clip-rule="evenodd" fill="#BF3545" d="M11.066,33.752c0.247,0.242,0.18,0.576,0.262,0.867
	c-0.132-0.16-0.284-0.307-0.389-0.482C10.852,33.99,10.897,33.84,11.066,33.752"/>
<path fill-rule="evenodd" clip-rule="evenodd" fill="#945F48" d="M13.385,16.626c0.001,0.417-0.201,0.717-0.487,0.674
	c-0.364-0.056-0.463-0.327-0.458-0.662c0.005-0.417,0.202-0.717,0.488-0.674C13.292,16.02,13.396,16.292,13.385,16.626"/>
</svg>
