<svg version="1.1" id="map" xmlns="http://www.w3.org/2000/svg" xmlns:xlink="http://www.w3.org/1999/xlink" x="0px" y="0px" viewBox="0 0 400 382.887" enable-background="new 0 0 400 382.887" xml:space="preserve">
  <g>
    <path class="path_estado estado estado1" fill="#ffffff" d="M146.691,276.623"></path>
    <path class="path_estado estado estado2" fill="#ffffff" d="M237.638,111.115"></path>
    <path class="path_estado estado acre" id="estado_acre" fill="#ffffff" d="M14.924,125.217
        c0,0,14.616,6.623,28.774,7.536c2.968,2.055,5.48,3.196,5.48,3.196s23.064,12.561,28.317,13.931l-0.228,1.599l-2.969,1.827
        l-2.74,1.37l-1.599,1.826l-2.969,0.457l-2.284,0.913l-1.826,2.513l-1.37,0.686l-1.827-0.229l-2.513-1.142H53.29h-6.395
        l-2.969-0.229l-0.685-2.284l-0.229-4.339l0.686-2.969v-3.197l-0.229-2.056l-2.968,2.056l-3.425,2.74l-2.512,0.913l-6.166-0.685
        l-0.457-2.74l-2.74-2.056l-2.055-0.913h-2.284l0.457-1.599v-2.74l-1.599-1.827l-2.74-2.969l-2.055-4.11l-1.599-3.197v-2.055
        L14.924,125.217z"></path>
    <path class="path_estado estado amazonia" id="estado_amazonia" fill="#ffffff" d="M14.924,122.248l4.338,2.74
        c0,0,20.096,6.166,24.664,6.166c0.914,0,2.284,1.142,2.284,1.142l2.741,1.827c0,0,25.577,13.929,28.318,14.158
        c2.74,0.229,2.74-0.913,2.74-0.913l1.598-1.37l1.599-1.599l2.74-0.457l3.197,0.913l3.198-1.37h2.055l1.599-0.685l0.685-1.827
        l2.969-0.685l3.883-0.229l0.913-2.055l1.37-0.914v-2.055l2.97-1.827l0.228-2.055l9.135-0.457l1.142,2.283l2.284,2.056l2.969,2.969
        l2.741-0.229l2.511,0.457h15.073l13.245-0.229l2.283-1.827l0.229-4.567l1.6-3.653l0.456-3.882l-1.37-3.197l-0.914-2.284
        l19.411-39.279l0.914-3.426l0.913-1.827l-3.653,0.914l-2.97-2.056l-2.968-2.511l-7.536-0.686l-2.283-3.425
        c0,0-4.568-6.288-5.025-6.395c-0.685,0.686-0.356-1.82-0.356-1.82l-0.157-3.175l-0.428-2.569l-1.685-0.2h-2.797l-3.711,0.057
        l-0.971,0.257l-1.542,2.112l-2.283,3.026l-1.057,1.684c0,0-0.456,2.227-0.484,2.341c-0.029,0.115-0.657,0.885-0.657,0.885
        l-1.428,0.6l-2.454-0.029l-1.77-1.313l-1.113-1.313l-1.514,0.285c0,0-1.284,0.828-1.37,0.885s-0.942,1.37-0.942,1.37l-0.114,2.284
        l-0.2,3.482l-1.341,0.257l-1.513,0.028c0,0-1.484-0.828-1.656-0.914c-0.171-0.085-1.028-0.971-1.028-0.971
        s-1.313-1.169-1.456-1.313c-0.143-0.143-1.113-1.399-1.113-1.399s-1.2-1.17-1.257-1.285c-0.057-0.114-0.656-1.113-0.656-1.113
        v-0.856l0.058-2.026l-0.171-3.968c0,0-0.286-1.542-0.314-1.627c-0.028-0.085-0.485-2.684-0.485-2.769s-0.057-2.597-0.057-2.597
        s-0.144-2.113-0.258-2.341c-0.113-0.229-0.942-1.57-1.084-1.77c-0.143-0.2-1.057-1.885-1.057-1.885l-1.028-2.541
        c0,0-0.657-1.826-0.913-2.198c-0.257-0.371-0.941-1.798-0.999-1.884s-0.342-0.714-0.342-0.714l-2.655-0.028l-0.4-0.6l-0.828,0.257
        l-0.827,0.771l-2.084,0.913l-0.428,1.798l-1.427,1.57l-1.484,1.599l-2.026,0.285l-1.627,0.6l-1.313,1.028l-1.542,1.17l-2.084,2.227
        l-1.77,0.428l-1.655,0.371l-1.028-0.742l-0.086-1.027h-1.313l-1,0.199l-0.457,1.199l-1.941-0.029L83.12,46.83l-0.771-0.542
        c0,0-0.6-0.799-0.685-0.885c-0.086-0.085-1.228-1.028-1.228-1.028l-0.971-0.742l-3.739-0.313l-0.115-5.424l-1.057-1.656
        l-0.627-0.942l-0.6-0.6l-1.342,1.028l-1.17,0.799l-0.656,1.228l-1.656,0.999l-1.399-1.77l-0.428-0.915l-0.827,1.228l-0.828,1.113
        l-4.453,0.029l-3.055-0.17l-4.338-0.115c0,0-0.914,0.229-0.999,0.256c-0.086,0.029-1.257,0.657-1.257,0.657
        s-0.399,0.885-0.371,0.971c0.028,0.086,0.229,1.855,0.229,1.855l0.142,1.313c0,0,0.285,0.485,0.685,0.514
        c0.4,0.029,1.713,0.029,1.713,0.029s1.628,0.085,1.77,0.085c0.143,0,0.742,0.485,0.742,0.485s0.599,0.485,0.657,0.6
        c0.057,0.115,0.685,1.142,0.685,1.142l0.257,1.285c0,0,0,1.199,0,1.284c0,0.086-0.285,1.142-0.285,1.142h-1l-1.769,0.114
        l-0.457-0.456l-1.513-0.115l-1.341,0.543l-1.77,0.086l0.029,1.598l-0.057,4.967l0.856,0.828c0,0,1.027,0.571,1.142,0.685
        c0.114,0.115,0.799,0.601,0.971,0.743c0.17,0.143,0.856,0.4,0.856,0.4l0.143,2.426l-0.17,1.171l1.227,1.641l0.557,1.584
        l-0.514,6.252v2.869c0,0-0.728,2.227-0.728,2.612S52.619,80.5,52.619,80.5l-0.043,2.869c0,0-0.557,0.856-0.6,1.156
        c-0.043,0.3-0.129,3.854-0.129,3.854s-0.642,1.712-0.685,1.97c-0.043,0.257,0,2.483,0,2.483s-0.942,2.869-1.071,3.083
        c-0.128,0.214-0.942,1.541-1.113,1.584c-0.171,0.042-1.798-0.043-2.012-0.043c-0.214,0-1.884-0.599-2.013-0.728
        c-0.128-0.129-0.899-0.643-0.899-0.643h-1.927l-1.456,0.557l-0.6,1.071l-2.27,0.899l-3.211,0.299l-2.912,0.086l-1.712,0.729
        l-1.97,1.156l-1.37,1.028c0,0-2.141,1.456-2.141,1.584c0,0.128-1.884,2.44-2.055,2.654c-0.171,0.214-0.728,2.141-0.728,2.141
        l-0.3,1.371l-0.942,1.328c0,0-0.771,1.156-0.813,1.284s0.257,1.97,0.257,1.97l0.299,1.242l-0.856,2.269l-1.584,1.456
        c0,0-1.756,0.942-1.756,1.113C16.008,120.493,14.924,122.248,14.924,122.248z"></path>
    <path class="path_estado estado roraima" id="estado_roraima" fill="#ffffff" d="M101.561,13.06c0.342,0,3.597,0,3.597,0
        l1.542,1.627l1.542,1.198l3.254,0.343l2.226,0.256l0.856,1.713l1.885,0.171h2.141l0.856-1.284l0.257-1.884l1.541-0.856l2.142-0.6
        h3.34l1.456-0.428l2.055-1.456l1.97-1.028l1.627-0.771l2.398-0.257l1.712-2.055l1.799-2.313l0.257-1.712l3.769,0.171l0.855,1.712
        l-0.855,1.456l-0.686,1.37l0.085,1.712l1.713,0.257l1.798,0.771l1.199,1.97l0.685,1.542l-0.428,1.542l-1.284,1.284l-0.342,1.627
        l-0.856,2.826l0.085,1.37l-0.514,1.113v3.254l0.085,1.713l0.942,1.285l0.856,1.712l0.085,2.655l1.285,0.771l2.056,1.798
        l1.113,1.542l2.654,1.712l0.771,1.028l0.171,5.052v2.826l-1.199,0.514h-3.768l-3.683-0.085c0,0-0.771,0.856-1.113,0.942
        c-0.342,0.085-2.227,2.313-2.227,2.313l-0.855,1.798v1.028l-0.857,0.685l-0.685,0.856l-0.856,1.199l-0.172,1.542l-0.514,0.771
        l-1.284,0.256l-0.771-0.771l-0.771-1.028l-1.798-1.113l-1.37-0.514l-1.542,0.342l-1.199,1.113l-1.199,0.856l-1.284,1.626
        l-0.257,4.282l-0.599,0.514l-1.285-0.856l-1.969-2.398l-1.2-1.37l-0.685-0.686l1.027-1.456v-1.626l-0.343-0.942l-0.77-1.285
        l-0.257-1.627l-0.257-2.141l-0.257-1.799l-0.171-2.911V44.66l-0.856-1.541l-1.028-1.199l-0.856-1.456l-0.942-1.97l-0.686-1.712
        l-0.942-2.142l-0.342-0.942l-1.37-1.199h-0.771l0.085-3.254c0,0-1.37,0-1.627-0.086c-0.256-0.085-2.312-0.085-2.312-0.085
        l-1.113,0.085l-1.798-0.342l-0.6-0.342h-0.771c0,0-0.257-6.937-0.257-7.194c0-0.257,1.028-1.456,1.028-1.456l0.6-0.942v-2.569
        l-2.056-1.37l-1.37-0.428l-1.284-0.428l-0.514-0.685L101.561,13.06z"></path>
    <path class="path_estado estado amapa" id="estado_amapa" fill="#ffffff" d="M197.989,32.671l2.568,0.856l1.713,0.343
        l1.541-0.257l0.686-0.771l2.141-0.086h1.8l1.541,0.771l1.627,0.171l2.227-0.085l2.226-1.456c0,0,0.942-1.456,1.199-1.884
        c0.258-0.428,1.885-4.282,1.885-4.282l2.396-4.11l2.228-3.425l2.313-2.826l1.799-1.542l1.541,1.199l1.113,1.37
        c0,0,0.172,1.798,0.172,2.141s0.085,4.368,0.085,4.368l0.428,1.284l0.942,1.456c0,0,0.685,0.771,0.685,1.199
        c0,0.429,0.343,2.483,0.257,2.741c-0.086,0.257,0.601,3.083,0.601,3.083l0.771,1.542l1.627,1.712l1.798,1.37l2.056,0.343
        l1.027,1.027l1.028,1.713l-0.258,2.055c0,0-0.855,0.343-1.113,0.686c-0.257,0.342-2.226,2.312-3.167,3.168
        c-0.942,0.857-2.57,3.254-2.57,3.254l-2.397,1.97c0,0-1.713,1.199-2.398,1.456c-0.685,0.257-1.713,1.284-1.713,1.542
        c0,0.256-1.113,2.826-1.113,2.826l-1.284,1.798l-1.542,1.97l-0.599,2.398c0,0-0.429,0.514-0.942,0.514c-0.513,0-1.884,0-1.884,0
        s-0.685-1.114-0.942-1.37c-0.257-0.257-1.113-1.799-1.37-2.569c-0.256-0.771-1.541-2.826-1.541-2.826s-0.856-1.37-1.285-1.97
        c-0.428-0.599-1.284-2.312-1.713-2.74c-0.428-0.428-1.198-1.456-1.198-1.456s-0.171-1.884-0.257-2.312s-0.856-2.998-1.455-3.512
        c-0.601-0.513-1.628-3.339-1.884-3.596c-0.259-0.257-0.772-1.627-1.543-1.884c-0.771-0.256-1.884-0.685-2.569-1.113
        c-0.685-0.428-2.141-0.942-2.568-1.027c-0.429-0.085-1.284-1.113-2.227-1.285c-0.942-0.171-1.456-0.599-1.884-0.942
        c-0.429-0.342-1.628-1.541-1.628-2.141S197.989,32.671,197.989,32.671z"></path>
    <path class="path_estado estado maranhao" id="estado_maranhao" fill="#ffffff" d="M280.714,67.098l1.97,0.171l1.713,1.456
        l1.455,0.171l2.313,0.086l1.884,0.771l1.199,1.627l2.397,1.798c0,0,1.199,1.626,1.199,1.884c0,0.257,0.342,1.456,0.342,1.798
        s0,1.798-0.256,1.884c-0.257,0.085-1.884,1.712-1.884,1.712l-0.429,1.627l0.171,2.056l1.2,1.027l1.54-0.429l0.771-1.712
        l1.885-1.028h1.542l0.771-1.028c0,0,0.771-0.942,1.369-0.942c0.601,0,3.255-0.085,3.255-0.085l1.37-0.686l1.113-0.514l2.142,0.428
        l1.798,0.856l2.142,1.37l1.626,0.771l2.826,0.343l1.627,0.428l-0.17,1.627l-1.199,1.285l-1.884,1.028l-0.771,0.514l-2.74,0.6
        l-1.2,2.397l-1.37,2.397l-1.028,1.799c0,0-0.17,3.083-0.17,4.624c0,1.541,0.771,2.912,0.771,3.511c0,0.6,0.599,2.398,0,3.083
        c-0.601,0.685-1.113,2.826-1.713,3.34s-0.343,2.826-0.343,2.826l0.172,1.37l1.627,1.884l-0.344,2.483l-1.027,1.371l-2.226,0.171
        c0,0-1.371-0.599-1.713-0.599c-0.343,0-2.142,0.085-2.142,0.085l-1.97,0.172l-1.285,0.685l-1.884,1.627l-1.627,1.712l-2.227,2.141
        l-2.14,0.856l-3.769,1.028l-2.398,2.056l-1.113,2.568l-0.256,1.713c0,0-0.515,2.141-0.601,2.483
        c-0.086,0.343-1.369,2.227-1.541,2.484c-0.172,0.256-1.027,2.998-1.027,3.254c0,0.257,0.171,3.083,0.171,3.083l0.6,1.37
        c0,0,0.6,1.37,0.343,1.626c-0.258,0.257-0.172,3.683-0.172,3.683l-1.027,1.37c0,0-1.455-0.513-1.799-0.599
        c-0.343-0.086-1.541-0.856-1.541-0.856s-0.771-2.227-0.855-2.741c-0.086-0.514-0.172-2.483-0.515-2.911
        c-0.344-0.429-1.114-0.942-1.541-1.542c-0.429-0.6-1.628-1.97-1.628-2.227c0-0.257,0.171-1.97,0.171-2.227
        c0-0.256,1.028-2.398,1.028-2.398s1.884-0.771,2.227-0.942c0.342-0.171,0.856-2.569,0.856-2.569v-2.227
        c0,0-0.258-0.343-0.856-1.027c-0.601-0.686-4.452-0.343-4.452-0.343l-2.056-1.284l-2.142-2.74c0,0-1.113-1.713-1.027-2.056
        c0.085-0.342,0.855-3.597,0.855-3.597l0.429-8.136l-0.257-2.74l-0.856-1.798c0,0-3.939-2.569-4.282-2.569
        c-0.342,0-2.397-0.514-2.397-0.514l-0.513-1.113l2.568-2.998l3.083-1.542l1.969-1.712l2.056-3.254l2.484-4.025l2.054-2.911
        l1.8-2.827l0.428-1.712l0.515-1.713l0.341-1.542c0,0,0.43-1.113,0.601-1.37c0.17-0.257,1.198-2.141,1.198-2.141
        s0.601-2.569,0.601-2.826c0-0.257,0.427-2.141,0.427-2.398c0-0.257,0.856-2.997,0.856-2.997L280.714,67.098z"></path>
    <path class="path_estado estado rondonia" id="estado_rondonia" fill="#ffffff" d="M137.614,184.42
        c0,0-3.254-0.599-3.768-0.599c-0.514,0-3.512,0.086-4.111,0c-0.599-0.084-2.911-0.256-2.911-0.256l-2.055-1.371l-0.942-1.627
        l-1.284-0.686l-3.169-0.513l-2.055-0.429l-1.199-1.114l-1.113-1.37l-0.686-1.285l-0.942-0.599l-1.627,0.686h-1.455l-0.942-0.857
        l-1.285-0.771l-1.456-0.086l-2.997,0.343l-2.056-0.942l-1.712-1.97l-2.398-2.141l-1.37-1.37l-1.285-1.798l-0.942-2.826l0.171-3.854
        l-0.514-1.798l-0.428-2.227l1.113-1.028l0.085-4.453l-0.771-1.627h-1.97c0,0-3.425,0.085-3.938,0.085
        c-0.514,0-3.512,0.771-3.512,0.771l-2.056,0.6l-0.428-0.6l0.685-0.942l1.028-1.114c0,0,1.37-0.256,1.627-0.256
        c0.257,0,2.141,0,2.141,0l2.655-0.086l2.74-0.514h3.169l1.284-0.856l1.199-1.627l1.028-1.113h4.454c0,0,1.284-0.086,1.456-0.514
        c0.171-0.428,0.342-1.97,0.342-1.97l1.542-0.942l0.342-1.97l0.771-1.028l1.456-0.086l1.113-2.055l1.113-0.942l1.627,0.086h2.655
        l1.627,1.284l2.483,1.626l1.627,1.799l1.627,1.712l1.284,0.856l1.199,0.171l1.027-0.257h1.285l0.799,2.256l-0.229,1.255
        l0.343,1.712l0.228,1.599l-0.115,2.855l-0.57,2.055l0.342,2.855l0.228,1.484v1.485l-0.113,2.17l0.456,0.57l0.229,1.143l3.083-0.229
        l4.11,0.115h3.997l0.457,1.37l2.169,0.343l1.256,0.57l-0.229,1.028l-1.256,1.37l-0.114,1.6l0.8,2.168l1.255,2.17l0.115,4.225
        l-1.028,1.141l-2.055,2.969L137.614,184.42z"></path>
    <path class="path_estado estado mato-grosso estado_ativo" id="estado_mato-grosso" fill="#ffffff" d="M131.391,139.833l29.345,0.456l0.8-1.941
        l1.027-2.854l0.229-2.854v-2.398l0.456-1.827l0.457-1.485l0.8,0.115l0.457,0.571l0.228,1.37l1.027,1.941l0.914,3.083l0.571,4.796
        l1.37,1.37l7.65,6.28l3.083,0.457l12.445,0.457l27.177,1.141l19.753,1.371l-0.114,1.028l-0.798,2.626l-2.74,7.65
        c0,0-0.344-0.229-0.229,3.311c0.114,3.54,0.114,10.962,0.114,10.962l0.685,2.968c0,0,0.115,3.311-1.256,5.139
        c-1.369,1.826-2.054,5.253-2.054,5.253l-1.028,6.393l-1.143,1.828l-2.398,1.255l-1.94,1.828l-1.599,2.284l-0.685,2.054l-1.371,0.8
        l-2.397,1.599l-1.941,1.712L216,212.338l-2.056,2.969l-1.711,2.284l-1.484,1.714l-0.229,1.597l-0.113,2.285l0.798,1.255
        l-0.112,0.799v1.941h-3.655l-0.342-1.255l0.342-2.285l-0.342-1.256l-0.912-1.828l-1.714-0.114l-1.827,1.257l-1.027,0.913
        c0,0-1.599,0-2.284,0s-2.283-0.685-2.283-0.685l-1.37,0.229l-4.225,0.228l-2.741-1.142c0,0-0.456-0.457-1.94-1.484
        s-2.626-0.914-3.083-0.914s-2.854-0.228-3.996,0.229c-1.143,0.456-0.57,0.571-1.713,0.571c-1.142,0-2.513,0.913-2.855,1.142
        c-0.342,0.229-1.484,2.055-1.484,2.055l-0.685,1.257l-2.056-0.116h-0.799l-1.027-1.027l-2.398-1.485l-1.941-0.456l-2.169-1.486
        l-0.799-1.14l-0.571-3.882v-1.486l0.913-0.685l0.343-1.483v-1.257l-17.584-0.114l-0.343-3.311l-0.685-3.311l-0.571-0.8
        l-1.027-0.798l-0.571-1.485h1.941l0.342-2.397l-0.456-3.426l-0.914-1.369l-0.913-6.052l-1.142-0.914l1.37-1.257l5.139-7.536
        l0.113-7.079l-1.026-1.37l-0.572-1.942l0.343-1.484c0,0,0.686-2.17,0.343-2.626s-0.686-1.028-1.027-1.37
        c-0.343-0.342-2.969-1.028-2.969-1.028s-2.74-1.028-3.083-1.028c-0.343,0-7.764,0.115-7.764,0.115l0.228-4.567l-1.027-1.941
        l0.57-2.398L131.391,139.833z"></path>
    <path class="path_estado estado mato-grosso-do-sul estado_ativo" id="estado_mato-grosso-do-sul" fill="#ffffff" d="M167.245,224.213l0.571,2.626
        c0,0,1.257,1.597,1.37,2.055c0.114,0.457,0.114,2.284,0.114,2.284l-1.599,1.826l-0.229,2.97c0,0,0.57,2.284,0.456,2.626
        c-0.113,0.343-1.826,2.625-1.826,2.625l-1.599,1.828l-0.229,1.714l1.37,1.712l-1.028,2.056c0,0-0.569,1.141-0.685,1.598
        c-0.114,0.458,0.571,1.483,0.571,2.056c0,0.57,0.914,2.512,0.914,2.855c0,0.342,0.57,1.826,0.57,1.826v3.083l0.343,4.224v2.513
        l3.426,0.343l0.799,0.229h4.339l4.91-0.114l3.197,0.685l2.169,0.687l1.256,1.255l1.027,2.056l0.457,2.74v2.512l0.8,0.686
        l0.913,1.483l0.229,2.056l0.457,2.74l0.799,1.027l2.741-0.228l1.37-0.8l1.598-0.799l2.056,0.114l0.913,1.027l1.256,0.229
        l0.914-1.141l0.229-2.628l2.055-1.599l0.343-1.597l1.256-1.599l1.485-1.714l4.566-2.397l1.714-1.713l2.854-2.626l4.566-3.54
        c0,0,0.001-1.483,0.115-1.827c0.114-0.341,1.256-1.712,1.256-1.712l0.228-2.056l1.6-2.513l2.397-3.311l1.826-2.397l1.826-1.486
        l0.801-0.569v-6.737l-2.627-0.799l-3.539-1.143c0,0-3.768-1.942-4.34-2.397c-0.571-0.457-2.17-1.142-2.626-1.485
        c-0.456-0.342-2.282-0.456-2.854-0.456c-0.571,0-1.826,0.228-2.397-0.229c-0.572-0.456,0-3.654,0-3.654s-2.057-0.571-2.284-1.028
        c-0.229-0.456,0.229-1.028-0.456-1.37c-0.686-0.343-2.397-0.343-3.197-0.343s-2.74,0-2.74,0l-0.686-2.169l0.913-1.028l0.571-1.37
        l0.456-1.712l-0.912,0.342l-0.571,0.457l-1.941,0.8h-2.17c0,0-2.169,0.114-2.512,0.114s-2.512,0.228-2.512,0.228s-1.941,0-2.627,0
        c-0.685,0-1.712,0.115-2.397-0.342c-0.685-0.458-2.055-0.913-2.397-1.028s-2.626-1.599-2.626-1.599s-0.913-0.457-1.37-0.457
        s-2.398,0.343-2.74,0.343c-0.343,0-2.855,0.913-2.855,0.913l-1.484,1.143l-1.484,1.14l-1.484,1.485l-1.142,0.115
        c0,0-1.713-0.228-2.17-0.343S167.245,224.213,167.245,224.213z"></path>
    <path class="path_estado estado goias" id="estado_goias" fill="#ffffff" d="M238.723,177.969l2.056,1.257l1.94,1.485
        l1.941,0.341l1.941,1.827l2.397,0.686l0.457-3.083l1.483-0.914l3.427-0.114l0.341,2.056l0.459,1.485l1.369,0.228l2.398-0.228
        l1.94,0.228l1.599,0.914l0.799,0.456l2.514,0.115v-1.257l2.397-0.571l1.712-1.026l2.399-0.571l2.396-0.686l2.056-0.457l1.369,0.114
        l0.114,3.54l-0.799,0.457l0.229,6.053l0.8,1.026l1.027,1.371l0.685,0.457v3.768l-0.228,0.685l-1.027-0.114l-1.257-1.028
        l-1.371-0.572l-1.483,0.115l-0.457,1.371v1.142l-2.054,0.455l-1.371,0.229v1.483v3.198l0.457,1.256v0.685l0.228,1.37l-1.484,0.115
        l-2.17,0.228l-1.256,2.399l-0.456,1.828l-0.114,1.826l0.457,1.483l0.685,0.8l0.914,1.371l0.113,1.028l-1.37,1.142l-1.256,1.37
        l-0.457,1.257l0.229,1.369l1.027,0.457l0.456,0.799v2.055v1.028l-1.37,1.028l-1.712,0.914l-1.257,1.369l-0.344,0.914l-1.254-0.685
        l-2.171-0.458h-2.625l-2.969-0.112c0,0-1.485,0.341-1.827,0.341c-0.343,0-2.056,0.572-2.056,0.572l-1.37,1.141l-2.74-0.228
        l-3.654,0.571c0,0-1.599,0.343-1.941,0.343c-0.342,0-1.94,1.599-1.94,1.599l-1.713,2.055l-1.257,1.37l-2.054,2.398l-2.17-1.601
        l-2.398-1.255c0,0-1.369-0.799-1.94-0.799c-0.572,0-2.854-1.371-3.197-1.371s-1.941-1.257-2.284-1.369
        c-0.342-0.114-0.914-0.914-1.942-1.257c-1.026-0.343-2.168-0.798-2.168-0.798l-1.027-1.142l-0.229-1.257l-1.712-1.028l-0.457-2.054
        v-1.828l-0.342-1.599l-0.343-3.196l1.482-3.313l1.714-0.914l1.713-1.483l0.8-2.398l3.312-3.882l1.94-0.685l2.169-0.914l0.343-1.142
        l0.914-2.513l1.713-2.398l1.483-0.685l2.056-1.597l0.686-1.941l1.026-4.453l1.257-2.398l0.572-2.398c0,0,0-1.483,0.456-2.397
        c0.457-0.914,0.57-3.083,1.027-3.311c0.456-0.228,0.914-2.398,0.914-2.398L238.723,177.969z"></path>
    <polygon class="path_estado estado Paraná" id="estado_parana" fill="#ffffff" points="202.07,286.101 202.07,290.439 
        201.841,293.866 201.841,297.634 200.358,299.347 199.672,299.802 200.471,300.259 201.499,300.259 202.298,299.574 
        202.983,299.916 204.353,302.087 205.153,303.684 205.61,305.854 207.779,306.883 210.406,307.338 212.917,307.567 
        215.658,307.681 218.398,308.024 219.426,308.822 221.824,309.507 225.478,310.308 228.332,310.421 229.13,309.623 
        229.246,308.365 229.932,306.883 232.672,306.767 234.156,306.653 235.413,305.284 236.325,304.483 238.722,304.483 
        241.92,304.483 244.431,304.483 245.003,305.739 246.144,306.312 247.286,306.197 248.772,305.055 250.255,304.712 
        251.854,304.712 253.68,304.712 254.822,305.396 255.622,305.396 256.308,304.142 256.763,302.542 257.905,301.401 
        258.249,300.374 259.048,299.802 258.933,298.089 257.905,297.291 256.421,297.291 255.051,297.176 254.48,296.72 254.594,295.006 
        254.594,293.637 248.2,293.637 247.628,291.125 247.401,288.611 246.374,286.899 244.888,285.644 244.775,284.159 244.431,280.962 
        244.203,278.45 242.719,276.966 240.778,276.738 233.7,276.623 231.986,275.481 230.844,274.797 229.473,274.453 228.332,274.226 
        225.136,273.998 221.482,273.769 220.225,273.769 217.713,273.769 215.772,273.883 213.603,273.883 212.461,273.883 
        210.519,274.797 208.578,276.395 206.637,278.222 205.953,279.821 203.668,282.332 202.87,283.931  "></polygon>
    <path class="path_estado estado sao-paulo estado_ativo" id="estado_sao-paulo" fill="#ffffff" d="M215.315,271.371l3.313,0.229l3.425,0.228
        h2.74l2.627,0.229l2.056,0.456l2.169,1.371l1.599,0.457h3.197h2.511h2.97l1.599,0.343l0.685,1.027l1.028,1.028l0.912,0.912
        l0.458,1.257v1.826v1.37l0.114,1.486l0.455,1.14l0.572,0.229l0.342,1.142l0.801,1.027l0.228,1.256L249,290.212l0.114,1.026
        l2.398,0.113h3.195l1.028,0.229l0.572,1.142l0.113,1.599l0.342,0.685l1.599,0.114l1.601,0.572l0.342,0.57l1.142-0.343l1.142-1.828
        l2.396-1.369c0,0,1.142-0.912,1.371-1.256c0.229-0.342,3.54-2.283,3.54-2.283l2.17-1.941l1.257-1.027l2.282-0.913l1.599-0.572
        l1.257-0.228l1.484-1.484l5.822-0.114l0.914-1.599l2.626-1.599l1.37-0.571l2.284-0.228l1.483-0.343l-0.114-1.027l0.114-1.028
        l1.371-1.369v-2.056h-1.713l-1.714-1.142h-2.054l-1.94,0.799l-1.828,0.685l-1.599,0.8l-1.941,0.685c0,0,0,0.912-0.342,1.028
        c-0.343,0.115-3.313,0.115-3.313,0.115l-2.625,0.112l-1.257-0.571l-1.027-2.056l-0.456-1.483c0,0-0.57-1.484-0.685-1.826
        c-0.115-0.343-0.115-2.626-0.115-2.626l-0.114-2.398l0.114-1.599l0.342-1.599l-1.713-0.457c0,0-1.712,0-2.056-0.685
        c-0.342-0.687-1.369-2.056-1.369-2.398c0-0.342-0.571-1.712-0.571-2.282c0-0.572-0.113-1.828-0.113-2.628
        c0-0.799-0.114-1.256-0.114-1.599s-0.8-2.283-0.8-2.283l-1.256-0.914l-1.712-0.228l-1.371,0.342l-2.97,0.572h-3.652l-1.484,0.113
        l-0.687,1.485l-0.455,1.142l-1.713-0.799l-2.056-0.8l-1.142-1.714c0,0-0.687-1.028-1.484-1.141
        c-0.799-0.114-1.714-0.114-2.854-0.114c-1.142,0-4.34,0-4.34,0l-2.168-0.686l-1.371-0.114l-1.371,0.685l-1.94,1.028l-1.371,1.827
        l-2.624,2.056l-2.056,2.512l-0.571,1.712l-1.484,2.17l-0.229,1.827l-1.027,1.598l-0.113,1.486l-1.027,1.712l-2.056,1.483
        l-2.171,1.942L215.315,271.371z"></path>
    <path class="path_estado estado rio-de-janeiro estado_ativo" id="estado_rio-de-janeiro" fill="#ffffff" d="M294.902,271.143l3.082-1.827l1.828-0.343
        l3.425-0.229l2.283-0.569h1.256h1.712l2.285-0.685l1.941-1.027l1.028-0.459l1.254-0.569l0.914-0.913l1.257-1.485l0.457-2.054
        l0.455-1.486l0.115-1.369l1.598-1.028l0.686,0.457l0.571,1.256c0,0,0.914,0.455,1.257,0.685c0.342,0.229,1.826,0.458,1.826,0.458
        h2.397h1.027l0.114,3.653l0.571,1.027l-0.113,1.028l-1.027,0.685l-1.828,1.027l-0.8,0.457l-1.599,0.457l-1.483,1.142l-0.799,1.484
        l-1.027,1.598l-0.572,0.914v1.257l-2.168,0.228c0,0-3.083,0-3.427,0c-0.343,0-2.74,0-2.74,0l-1.027-0.912v-1.144h-1.599
        l-1.142,0.115v1.827l-0.8,0.913c0,0-2.74-0.115-3.084-0.115c-0.341,0-1.597-0.455-1.597-0.455l-1.713-0.457l-0.914,1.027
        l-0.913,0.344l-0.571-1.028l0.685-1.6l-0.457-1.256l-1.142-0.457L294.902,271.143z"></path>
    <path class="path_estado estado espirito-santo" id="estado_espirito-santo" fill="#ffffff" d="M322.306,257.325l1.369,0.572l1.256,0.571
        l3.654-0.457l0.914-1.027l1.142-1.142l0.914-1.258l1.483-1.826l1.37-1.941l0.685-1.254l0.914-2.398l0.457-2.171l2.283-1.141
        c0,0,0.799-0.458,0.799-0.914c0-0.457,0.343-2.854,0.343-2.854l0.344-3.882v-2.97l-0.799-2.285l-1.486-0.912l-1.713-1.256
        l-1.37-0.343h-2.625l-1.144,0.457l-1.026,0.685l-1.027,0.8v1.37l0.113,1.255l0.229,1.712l0.686,1.486l-0.686,1.028l-0.114,0.912
        v1.713l-0.342,2.171l-0.686,2.625l-0.686,1.484l-1.142,1.371l-0.57,1.483l-0.571,1.027l-1.826,0.343l-1.371,0.686l-0.113,1.941
        l-0.115,1.94l-0.228,2.171L322.306,257.325z"></path>
    <path class="path_estado estado minas-gerais" id="estado_minas-gerais" fill="#ffffff" d="M233.614,244.538l0.086,1.028l2.996-0.086
        h2.912l3.083,0.171l4.111,0.086l2.056,1.028l0.941,1.026l0.856,1.027h1.627l0.513-0.685c0,0,0.43-0.599,1.028-0.599
        c0.601,0,2.142,0.085,2.74,0c0.601-0.086,1.285-0.515,1.628-0.515c0.342,0,2.654-0.256,2.654-0.256s1.885-0.344,2.142-0.344
        c0.256,0,2.312,0,2.312,0l1.456,0.514l0.856,0.856l0.856,1.027l0.514,1.799l0.514,1.884v1.884l0.428,1.628l0.258,0.856l0.685,1.113
        l1.027,1.198l1.199,0.686l1.028,0.256l1.283,0.601l0.429,1.199l-0.085,1.455l-0.172,1.371l-0.514,1.198v1.712l0.086,1.629
        l0.514,1.369l0.429,0.771l0.771,1.199l0.086,1.199l0.171,0.856h1.455l2.142-0.086l0.428-1.113l0.941-1.198l1.457-0.515l0.513,0.515
        c0,0,1.2,0.085,1.457-0.086c0.256-0.171,1.027-0.6,1.027-0.6l1.885-0.6l1.369-0.771l1.113-0.601l2.228-0.513l1.884-0.429
        l1.283-0.514l1.371-0.429l1.97-0.427l1.884-0.258l1.284-0.257l1.457-0.171h2.568l1.798-0.085l1.885-0.687
        c0,0,1.97-0.856,1.97-1.112c0-0.257,1.884-1.456,1.884-1.456l1.027-1.455l0.856-2.142l0.771-2.056l0.687-1.285l0.855-1.541
        l0.942-1.199l0.514-1.713l0.6-1.97l1.112-1.369l2.57-0.086l0.685-1.113l0.856-2.056l1.113-1.455c0,0,0.086-1.113,0.086-1.542
        c0-0.428,0.599-2.912,0.599-2.912l-0.343-1.455l-0.599-0.771l0.257-1.798l0.856-0.515l-0.086-1.541l-0.942-0.685
        c0,0,0.086-1.199,0.086-1.542c0-0.342,0.771-1.712,0.771-1.712l0.429-0.685c0,0,0.086-1.2,0.686-1.542
        c0.599-0.342,1.199-0.513,1.199-0.513l0.685-0.086l0.771,0.171h1.97h1.371l0.17-0.77l-1.884-1.714c0,0-1.112-1.626-1.198-1.884
        c-0.086-0.256,0.17-2.826,0.17-2.826l0.429-2.568l0.942-0.513h1.455l0.172-1.371l0.686-1.626l0.942-1.114l0.856-1.028l0.085-2.056
        l-2.141-1.028l-1.543-0.685l-1.798-0.685c0,0-1.112,0-1.369,0c-0.258,0-1.885,0-1.885,0h-1.199l-1.285,0.513h-1.111l-0.344-1.198
        l-0.343-1.714l-1.369-1.198l-0.856-1.113l-0.942-0.429c0,0-1.199-0.171-1.542-0.171c-0.342,0-1.884,0-1.884,0l-0.856-0.084
        l-1.541-0.6l-2.998-1.627l-1.97-1.541l-1.455-1.2c0,0-1.027-0.085-1.371-0.085c-0.343,0-1.626,0.171-1.626,0.171l-0.172,0.856
        l-1.199,0.085l-2.056-0.085l-1.455-1.542l-0.429-1.026l-0.428-0.942l-1.199-0.771l-1.541-0.259l-1.542,0.087l-3.082,2.14
        l-5.225,3.34l-4.71,2.312l-2.142,0.686l-1.369,0.599l-0.172-2.313c0,0-1.027-1.198-1.285-1.198c-0.256,0-1.627,0-1.627,0
        l-1.027,1.284l-1.455,0.515l-0.856,0.256l0.086,2.484l0.513,1.798l-0.085,1.97l-0.342,1.455l-1.543,0.856l-1.369-0.17l-1.456,0.685
        l-0.172,1.541l-0.17,2.569l0.855,1.199l0.171,1.457l0.171,1.541l-0.171,1.456l-1.284,0.942l-0.601,1.113l0.258,1.371l0.685,0.343
        l0.258,1.456l-0.342,1.97l0.256,1.626c0,0-0.514,0.515-0.685,1.028c-0.172,0.515-1.627,1.884-1.627,1.884l-1.97,0.771l-1.627,1.542
        l-0.942,1.028l-1.113-1.285c0,0-1.371-0.942-1.798-0.942c-0.429,0-1.714,0-1.714,0h-2.569l-2.312-0.085l-1.37,0.257l-0.942,1.113
        l-1.369,0.513l-1.97,0.171l-1.799,0.342l-2.313,0.343l-1.713,0.085c0,0-1.027,0.086-1.285,0.343
        c-0.257,0.256-1.284,0.599-1.541,1.455s-2.484,3.425-2.484,3.425s-1.626,2.056-1.884,2.484
        C233.614,243.167,233.614,244.538,233.614,244.538z"></path>
    <path class="path_estado estado santa-catarina estado_ativo" id="estado_santa-catarina" fill="#ffffff" d="M206.867,308.939v2.511l0.113,2.512
        l0.229,1.37l1.94,0.115h2.514l2.281,0.114l2.515,0.342l3.425,0.914l2.056,0.912l1.597,0.343l2.056,0.685l1.828,0.459l1.484,0.799
        l7.992,7.649l1.712,0.571l2.285-0.114h2.511c0,0,0.687-0.342,0.914,0.343c0.229,0.685,0.686,1.483,0.686,1.483l-0.229,1.371
        l-0.571,1.257l-1.369,1.483l-0.571,1.257l1.37,0.342l1.37,0.57l0.914-1.37l1.94-1.713l1.713-1.483l3.083-1.6
        c0,0,0.8-0.685,0.914-1.141c0.112-0.457,0.914-3.313,0.914-3.313l0.685-2.511l0.228-2.74v-2.628l-0.114-3.082c0,0,0-2.283,0-2.626
        c0-0.342-0.113-2.855-0.113-2.855l-0.343-1.598l-2.056-1.599h-1.828l-1.483,0.571l-0.914,0.798l-1.027,0.229l-1.94,0.571
        l-1.027-0.457l-0.686-0.799l-0.685-0.8l-1.714,0.115l-1.484,0.112l-2.283,0.343h-1.485l-1.255,1.371l-1.028,0.799l-1.941-0.114
        l-0.685,0.685l-1.028,1.371l-0.57,1.256h-1.371h-1.597l-1.713-0.229l-2.398-0.229l-2.283-0.571l-1.942-0.685l-1.826-0.57
        l-1.826-0.229h-1.257l-2.854-0.456l-2.169-0.229L206.867,308.939z"></path>
    <path class="path_estado estado rio-grande-do-sul estado_ativo" id="estado_rio-grande-do-sul" fill="#ffffff" d="M170.328,345.706l1.826-0.229l1.599-1.027
        l1.827-0.685l1.714,0.342l1.598,1.714l2.626,2.281l2.17,2.399v1.484l0.913,1.027l1.256-0.343l1.484-0.8l1.027-0.569l1.143,1.027
        l0.685,0.799l1.028,1.369l1.484,1.257l1.713-0.343l1.483,1.484l1.714,0.799l1.256,0.914l1.484,1.713l1.142,1.484l1.713-0.114
        l1.826,1.37l0.343,1.142l1.256,1.143l1.257,1.713c0,0,0.456-0.002,0.799,0.228s1.713,1.144,1.713,1.144l0.913,1.027l-0.115,2.625
        l-0.911,1.256c0,0-1.485,0.8-1.485,1.142c0,0.343-0.114,4.682-0.114,4.682l1.142-0.914l1.713-1.254l2.396-1.144l1.028-1.939
        l1.941-2.056l0.687-2.97l1.027-2.854l1.026-1.712v-2.97l1.028-1.712l1.37-1.143l0.114-2.626l2.513-0.57l1.255-0.913l0.342-2.741
        l1.601-1.142l1.142-4.796l1.026-0.571l1.6,0.457l0.114,0.799l1.255,0.457l0.914-1.026l1.256-0.344h1.713l-0.114,2.74l-1.141,1.143
        l-1.37,1.941l-2.399,2.168l-1.142,2.056l-1.027,1.6l-2.283,1.483l-2.513,1.599c0,0-1.484,0.685-1.826,0.912
        c-0.344,0.229-1.257,0.802-1.257,0.802l0.115,1.369l0.912-0.115l1.257-0.113l1.941-0.914l2.282-1.713l2.171-2.056l2.17-2.055
        l2.396-2.741l2.74-3.768l1.713-3.195l1.941-3.998l0.8-2.169l1.141-2.627l-1.027-0.685l-1.483-0.343l-0.229-2.169l0.914-2.284
        l1.257-1.939v-0.914l-3.083,0.229l-2.513-0.572l-1.826-0.455l-2.399-2.398l-1.369-1.599l-1.826-1.713c0,0-1.94-1.142-2.398-1.484
        c-0.457-0.342-2.627-0.914-2.627-0.914s-2.396-0.914-3.083-1.027c-0.685-0.113-2.74-0.113-3.425-0.456s-3.539-0.8-3.882-0.914
        c-0.343-0.113-2.058-0.912-4.226-0.798c-2.169,0.113-4.908,0.113-5.709,0.113c-0.8,0-2.512,0-2.512,0l-1.713,1.256l-1.941,1.371
        l-2.626,1.254l-2.056,1.257l-1.827,1.142l-1.826,1.027l-20.325,20.553L170.328,345.706z"></path>
    <path class="path_estado estado tocantins" id="estado_tocantins" fill="#ffffff" d="M256.821,105.806l2.569,0.342l2.056,0.856
        l2.568,1.028l0.857,1.712l0.856,3.425l-0.343,3.768l-0.172,3.426l-0.685,1.712l-0.685,1.713l0.17,1.884l2.056,1.371l1.199,1.712
        l1.541,1.884l2.57,1.199h2.568l0.685,1.884l-0.856,1.541l-1.712,0.857l-1.199,1.541l-0.342,1.884l-0.343,1.884l0.855,1.37
        l1.541,2.055l1.028,1.542l0.343,1.884l0.514,1.541l1.199,1.884l1.027,0.857l1.541,1.027l1.884,0.343l0.687,1.028l-1.199,0.856
        l-1.541,1.712l-1.028,1.542l-1.199,2.056l-0.171,2.569v1.542l2.056,1.37c0,0,0.171,0.342,0,1.028c-0.172,0.685,0,3.597,0,3.597
        l-0.856,1.199v2.055l0.685,1.199l-0.172,2.056l-1.369,0.172l-4.111,1.712l-2.911,0.685l-3.426,0.513l-1.884,0.343l-0.343,1.028
        l-2.569-1.371l-1.712-0.685l-1.543-0.685l-1.712-1.027l-1.369-1.371h-1.371l-2.74,0.171l-1.884,1.371l-0.856,1.712l-2.056-0.685
        l-1.713-0.686l-1.199-1.37l-1.541-2.74c0,0,0.342-1.371-0.343-1.371s-2.568,1.371-2.568,1.371l-0.856-3.083v-5.652l0.685-6.166
        l1.713-4.967l1.542-2.912l0.685-3.083l0.343-3.596l1.026-2.056l2.742-2.912l1.369-1.37l1.371-2.055l1.027-2.227l0.685-2.911v-2.055
        l-0.685-2.398l0.171-2.569l0.686-2.912l2.569-1.37l2.396-2.055l1.714-1.884l1.026-2.569l0.687-2.912v-2.569l-1.543-1.884
        L256.821,105.806z"></path>
    <path class="path_estado estado bahia" id="estado_bahia" fill="#ffffff" d="M277.717,164.382l0.171-2.741l1.198-2.569
        l1.884-1.027l1.199-1.199l1.543-1.713l1.541,0.343l1.027,1.541l1.199,1.37l1.541,0.514l2.056,1.028l1.369-0.171l2.056-1.199
        l1.542-0.686h2.74l1.028-1.198l2.397-2.056l1.541-2.569l0.515-1.37v-1.884l-0.344-0.686l-0.171-1.884l0.855-1.198h1.714
        l1.028,0.685c0,0,1.712-0.171,2.397,0c0.685,0.171,1.199,1.028,1.199,1.028h2.396l1.885-0.514l2.398-1.028l2.911-0.685l2.227-0.856
        l1.37-2.227l1.541-1.028l2.228-1.027l1.369,0.685l0.343,1.027l0.344,1.542l0.342,2.398l1.37,1.198l1.713,0.342l3.083-2.055
        l1.884-1.884l1.885-0.514l1.369-2.055l1.199-1.371l1.371-0.514h1.197l1.199,0.514l1.713,0.686l1.371,0.514l2.226,1.541l1.199,1.027
        l1.371,1.028l1.369,1.028l0.685,2.398l-0.17,1.541l0.342,1.199l1.542,0.856v0.856l-0.172,5.31l-1.37,0.685l-1.37,0.685v1.884
        l0.342,1.37l0.856,1.713l1.199,1.884l1.884,1.712l1.713,0.856l-0.856,2.569l-2.568,3.083l-2.228,2.569l-1.884,2.228l-0.17-1.029
        l-1.542-1.026l-1.885-0.172l-1.712,0.515c0,0-0.685,1.026-0.685,1.541c0,0.513,0.171,1.541,0.171,1.541v2.056l-0.857,1.712
        l-1.198,2.227l0.342,3.253l0.343,1.712l0.514,1.371l-0.17,1.542l-0.344,1.026l0.172,4.624l0.342,3.598l-0.17,2.054l0.685,1.371
        v1.712l-0.343,3.083l-0.856,1.884l-0.342,2.74l-0.687,2.397l-0.855,1.542v2.912l0.685,0.513v1.371l-2.397,2.226l-2.228,2.74
        l-1.197,0.343l-1.714-1.028l-0.856-1.712l-0.342-1.712l-1.371-1.028l-0.855-1.541l-0.344-1.714l0.172-1.369l1.542-1.713
        l1.198-2.227l1.714-1.712l1.026-2.227v-2.569l-2.74-2.055l-2.568-1.028l-2.228-0.856h-2.397h-2.396l-1.199-0.685l-0.515-1.371
        l-1.885-1.884l-1.541-0.856c0,0-1.884-0.343-2.568-0.343c-0.687,0-1.884-0.513-1.884-0.513l-2.57-0.856L313,196.582l-2.056-1.028
        l-1.199-0.513l-2.569-0.171l-1.884,0.342l-1.371,0.513l-0.685-1.369l-0.515-1.712l-1.026-1.37l-2.912-0.515l-1.542,0.172
        l-2.568,0.685l-2.569,1.884l-3.083,1.542l-2.568,1.712l-2.399,1.198l-1.712,1.371l0.172-2.397c0,0,0.341-2.57-0.172-3.085
        c-0.514-0.513-1.199-2.567-1.199-2.567l-1.198-1.884l-0.343-3.427l0.343-1.542l0.342-2.911v-3.768l-0.685-2.056l-0.515-3.425
        l0.857-1.712l0.514-2.228l-0.856-2.74L277.717,164.382z"></path>
    <polygon class="path_estado estado alagoas" id="estado_alagoas" fill="#ffffff" points="358.558,147.083 360.271,148.282 
        362.326,148.796 364.553,150.166 366.951,151.536 369.692,154.276 370.376,154.79 369.521,155.989 366.781,159.757 
        364.725,161.984 363.012,164.553 361.641,164.724 359.929,164.382 358.901,163.183 357.874,161.984 357.189,160.442 357.36,158.9 
        358.901,158.729 359.757,156.502 359.929,153.249 359.757,150.851 358.901,149.48 357.874,148.282 357.874,146.912  "></polygon>
    <polygon class="path_estado estado sergipe" fill="#ffffff" points="357.189,144.685 358.73,145.542 
        360.614,146.74 362.498,147.426 364.553,148.453 365.752,149.31 367.293,150.166 369.177,151.536 370.718,152.563 372.261,153.078 
        373.802,151.707 376.371,149.652 378.597,146.912 380.31,144.856 381.509,143.658 382.194,141.602 382.538,140.232 
        379.968,139.546 377.742,139.89 376.201,140.403 375.344,142.801 373.46,143.828 371.062,144.171 368.321,144.171 365.752,144.171 
        364.21,143.486 362.498,142.458 361.47,141.602 360.1,141.602 358.558,142.458 357.702,143.658   "></polygon>
    <path class="path_estado estado piaui" id="estado_piaui" fill="#ffffff" d="M321.221,83.026h1.369l2.056,0.686
        l0.515,0.856l-0.856,1.199l-0.343,1.37l0.171,1.37l1.199,1.884l0.856,2.055l1.028,1.884v1.884l0.513,2.056v3.939l0.685,5.995
        l0.172,2.569l0.343,1.884l0.685,3.426l0.686,1.884l0.514,1.37l1.713,1.199l0.514,1.541c0,0-0.342,1.028-0.856,1.2
        c-0.514,0.17-1.198,1.884-1.198,1.884l0.17,2.398l0.687,1.884l0.342,1.713l-0.685,2.055l-2.912,1.712l-2.912,2.227l-2.056,1.884
        l-2.226,2.398l-2.398,1.37l-2.397,0.171L315.054,144l-1.713,0.514h-2.055l-1.37-0.171l-2.056-0.685l-2.568-0.514l-1.371,0.171
        l-0.856,1.028l-1.199,1.37l-0.17,2.056v1.712l-0.515,2.056l-1.027,1.37l-1.37,1.37l-1.884,0.514l-1.884,1.028l-1.884,1.028
        l-1.885,0.685c0,0-0.686-0.514-1.714-0.685c-1.026-0.171-1.026-0.171-1.026-0.171l-1.199-1.542l-0.686-1.199l-1.026-0.685h-2.228
        l-0.171-2.569l-0.172-2.227v-2.398l-0.513-1.884l-0.344-2.74l0.856-2.227l1.027-1.884l1.2-2.74l0.685-2.74l0.515-1.884l1.027-1.028
        l1.369-1.028l1.543-0.514l1.884-0.685l2.226-0.857l2.228-2.055l1.712-1.884l1.541-1.199l2.228-0.342l1.712-0.171l1.884,0.343h1.885
        l2.056-0.857l1.199-2.226l0.171-2.398l-0.515-1.37l-0.855-1.542l0.343-2.227l0.342-1.712l0.686-1.37l1.026-1.371l-0.513-1.712
        l-0.172-2.569l-0.342-3.083v-2.056l0.342-2.227l1.028-1.712l1.37-2.398l1.713-0.514l3.597-2.056l1.541-2.055L321.221,83.026z"></path>
    <path class="path_estado estado ceara" id="estado_ceara" fill="#ffffff" d="M327.557,83.197l-0.685,1.541l-0.515,1.371
        l0.172,1.884l0.172,0.856l0.685,1.198l0.686,1.37l0.514,1.028v1.712l0.856,1.713l0.171,1.884v2.74l0.172,1.884l0.172,2.912
        l0.342,2.912l0.171,2.911l0.343,2.227c0,0,0.172,1.028,0.342,1.884c0.172,0.856,1.199,2.74,1.199,2.74l1.713,0.856l0.687,1.199
        l-0.344,2.055c0,0,0.172,0.686-0.343,1.2c-0.514,0.514-0.342,1.712-0.342,1.712l1.884,0.171l2.397-0.171l2.228-0.171h1.884
        l1.541,0.513l1.884,1.199l1.541,1.884l1.371-0.172l1.712-1.712l1.028-1.199l-0.514-1.541l-0.515-1.199v-2.227l1.028-2.226
        l0.343-2.57l1.713-2.912l2.396-2.912l1.714-2.911l1.541-2.741l1.37-2.569l2.398-1.542l-4.453-3.939l-3.768-2.911l-1.028-1.542
        c0,0-1.542-1.028-2.056-1.028c-0.515,0-2.227-1.028-2.227-1.028l-2.397-1.712l-2.568-1.712l-2.57-1.371l-2.569-1.37h-2.74h-3.596
        h-1.713L327.557,83.197z"></path>
    <path class="path_estado estado rio-grande-do-norte" id="estado_rio-grande-do-norte" fill="#ffffff" d="M362.669,102.038h1.541l2.227,0.856
        l2.056,1.027l2.74,0.171h3.254h2.741l2.397,0.343l1.884,1.027l1.199,1.542v1.199l1.028,2.569v1.884l0.341,2.74l-0.513,1.028h-2.912
        h-3.425l-2.227-0.856l-1.541-0.342l-1.028,0.342l-1.199,1.199l-0.171,1.371l-0.344,1.541h-1.712l-0.856-1.198l-2.226,0.171h-0.858
        l-0.513-1.199l1.371-2.398v-1.712l-2.57-0.514l-2.397,0.342l-1.371,1.37l-2.396,1.37c0,0-1.199,0.343-1.713,0.343
        c-0.515,0-1.714,0.171-1.714-0.343c0-0.514,1.542-2.568,1.542-2.568l1.198-2.056l2.57-3.939L362.669,102.038z"></path>
    <path class="path_estado estado estado26 paraiba" fill="#ffffff" stroke="#ffffff" stroke-width="0.7199" stroke-miterlimit="10" d="M352.735,118.651l-0.856,2.227l0.343,1.542
        l0.856,1.37l-0.343,2.055l-0.342,1.542l1.027,0.514l2.056,0.171l2.74-0.514l2.226-1.542l2.74-1.713l1.028-0.171l2.74,0.514
        l0.343,1.712l-0.685,0.856l-0.856,2.912v1.199l0.514,0.685l1.542,0.343l1.198-1.542l2.227-1.542h1.541l3.255-0.514l2.74-0.685
        l2.056-1.884l1.369-1.028l1.543-0.342h2.911v-1.713c0,0,0.171-2.055-0.343-2.226c-0.515-0.172-1.027-1.884-1.027-1.884
        l-0.856-0.686l-4.111-0.685h-2.74l-2.397-0.171h-2.056l-0.855,1.712l-1.371,1.884l-2.056,0.343l-1.541-1.199l-1.713,0.171
        l-1.199,0.685l-1.199-1.027l-1.197-1.713l0.855-2.568l1.198-1.713h-1.541l-1.884,1.028l-0.856,1.37l-1.541,0.686l-1.027,0.171
        l-2.398,0.171L352.735,118.651z"></path>
    <polygon class="path_estado estado pernambuco" id="estado_pernambuco" fill="#ffffff" stroke="#ffffff" stroke-width="0.7199" stroke-miterlimit="10" points="328.757,137.663 330.641,139.204 
        331.326,140.574 331.498,141.773 332.353,143.144 332.353,143.828 332.868,144.685 334.066,144 335.093,142.801 336.122,141.088 
        337.833,141.088 338.862,139.546 340.404,138.176 342.629,136.806 344.342,136.292 346.056,136.635 347.94,137.32 349.824,137.663 
        351.537,139.033 353.762,140.232 354.961,141.773 356.845,141.602 358.73,140.232 360.1,139.375 361.641,140.403 363.526,141.602 
        365.238,142.116 367.293,142.972 370.548,142.801 373.289,142.63 373.802,141.602 375.001,139.718 376.201,138.862 
        377.913,138.348 379.797,138.348 381.681,138.348 383.565,138.348 384.25,137.148 384.934,135.265 385.621,133.038 
        386.648,129.784 386.648,127.386 385.278,126.53 383.222,126.358 381.852,127.214 380.653,128.242 379.112,129.099 
        377.742,129.784 375.514,130.126 373.802,130.126 372.261,130.812 370.376,131.668 369.521,132.867 368.321,134.237 
        366.266,134.408 365.066,133.38 364.553,131.497 364.553,129.612 364.896,127.214 365.066,126.358 364.21,126.016 362.669,126.358 
        361.128,127.386 359.073,128.928 357.531,129.784 354.791,129.612 353.592,129.612 352.05,129.612 349.653,129.612 
        347.425,129.784 345.542,129.612 344,127.729 342.117,126.701 340.574,126.701 337.321,126.358 332.868,126.188 333.209,127.558 
        333.381,128.756 334.066,130.64 334.066,131.497 333.209,133.038 332.01,134.408 330.469,135.778   "></polygon>
    </g>
    <g>
        <path class="path_estado estado para" id="estado_para" fill="#ffffff" d="M157.739,43.204l-0.086,6.509l0.172,2.74
            c0,0,0.514,4.282,0.514,4.71s0.514,2.226,0.514,2.226l1.541,1.114l0.857,1.028l0.428,1.969l1.113,1.456l1.455,1.713l1.37,1.456
            l1.714,0.171l1.626,0.172l0.601,0.256l1.37-0.514l1.199,0.085l1.284,0.856l1.456,1.713l1.798,0.685l1.884,1.113l1.799,0.086
            l0.941-0.856l1.456-0.257l1.628,0.856l-0.172,1.37l-0.172,1.456l-0.855,0.343l-0.856,2.055l-0.514,1.97l-1.285,1.456l-1.884,4.796
            l-16.014,32.371l0.085,1.285l1.199,1.456l0.171,1.371c0,0,1.113,1.027,1.027,1.284c-0.085,0.257,0,2.227,0,2.227l1.028,1.114
            l0.771,1.113l0.771,2.227l1.114,1.284l0.256,2.312l0.086,3.426l1.97,1.456l2.313,1.884l1.541,1.627l1.885,1.627l1.284,0.342
            l3.597,0.257l4.796,0.513l1.284,0.514l12.161,0.514l11.389,0.085l7.536,0.6h7.622l10.362,0.428l3.083,0.086l1.113-2.826
            l2.569-4.196c0,0,1.884-1.884,2.141-2.055c0.258-0.172,1.541-1.712,1.541-1.712l0.942-2.57l0.257-2.654l-0.343-1.798l-0.941-1.028
            l0.257-2.655l1.027-1.456l0.428-1.969l0.515-1.884c0,0,0.685-0.429,1.113-0.685c0.428-0.257,2.655-2.142,2.655-2.142l1.712-1.027
            l0.856-1.285l1.371-2.483l0.085-2.312l-0.085-2.227l-0.942-0.171l-1.713-0.771l-0.686-1.712l2.142-2.569l5.48-4.71l2.911-1.284
            l2.142-2.741l4.281-6.851l2.997-4.025l0.172-2.826L274.633,79l1.114-1.969l1.199-2.826l0.427-4.282l0.856-1.113v-2.74
            l-1.541-0.942h-2.654l-0.771-1.37c0,0-2.656-0.343-3.083-0.514c-0.429-0.171-2.142-0.342-2.142-0.342l-2.483-0.257l-2.227-0.428
            l-1.455,0.171l-1.028,1.028l-5.311,5.737l-2.996,3.683l-2.313,1.284l-2.483,0.086l-1.37-0.857l-1.199,0.085l-0.685,1.028
            l-0.514,1.028l-1.542-0.6l-1.456-1.199l-4.11-0.771c0,0-1.284-0.599-1.541-0.771c-0.258-0.171-1.371-1.712-1.371-1.712
            l-1.283-2.826l-0.687-0.6h-1.97l-2.654,1.627l-2.483,1.199l-3.939,0.771l-1.027-1.028l0.515-1.884l2.226-0.428l-0.172-1.027
            l-2.568-0.343c0,0-1.37-1.456-1.713-1.626c-0.343-0.171-1.627-2.227-1.627-2.227l-0.343-2.141l-1.285-1.627l-2.654-3.682
            c0,0-0.428-2.227-0.856-2.912c-0.429-0.685-0.685-2.055-0.685-2.568c0-0.514-1.113-2.056-1.628-2.484
            c-0.514-0.428-1.026-2.484-1.37-2.998c-0.343-0.513-1.712-1.712-1.712-1.712l-2.655-1.542l-2.74-1.97c0,0-2.055-0.428-2.398-0.685
            c-0.342-0.257-2.312-1.028-2.482-1.37c-0.172-0.342-0.514-2.569-0.514-2.569l-0.258-2.398l-1.027-1.284c0,0-1.884,0-2.141,0
            c-0.258,0-2.227,0.6-2.227,0.6l-1.027,0.771h-2.228l-1.198-0.257l-0.257,1.113l0.085,1.884v1.713l-0.257,0.771h-2.312h-1.456
            l-4.025-0.342l-2.055,0.171c0,0-2.313-0.171-2.74-0.085c-0.429,0.085-2.912,1.712-2.912,1.712l-2.228,0.856l-2.312,1.114
            l-3.769,1.284l-1.798,1.285L157.739,43.204z"></path>
        <path class="path_estado estado para" id="estado_para" fill="#ffffff" d="M239.18,70.009l1.028-0.686l1.369-0.342
            l0.856,0.342l1.027,0.514l1.199-0.686l1.028-1.027l1.199-0.685l1.197,0.514l0.856-0.514l1.542-1.37l1.885-0.172l1.541-2.226
            l1.37-2.056l0.342-1.712l0.515-1.712l-2.74-0.172l-1.884-0.342h-2.398l-1.198,0.171h-2.398l-1.541-0.514l-2.056-0.685
            l-1.712,0.343l-0.687,1.884l-0.17,1.542l-0.172,1.884c0,0,0.342,1.884,0,2.398c-0.343,0.514-0.515,2.74-0.515,2.74l-0.171,2.398
            L239.18,70.009z"></path>
        <polygon class="path_estado estado para" id="estado_para" fill="#ffffff" points="246.202,55.622 247.916,54.423 
            247.23,52.882 245.86,53.053 244.833,54.766    "></polygon>
        <path class="estado para" fill="#ffffff" d="M244.661,50.655l-0.856,2.227
            l-0.171,1.198c0,0-1.028-0.342-1.541-0.342c-0.515,0-2.57-0.342-2.57-0.342l0.856-1.542l1.542-1.884L244.661,50.655z"></path>
        <polygon class="path_estado estado para" id="estado_para" fill="#ffffff" points="234.384,56.821 232.5,58.876 
            232.158,56.821 232.672,54.594 234.556,53.566 236.268,53.566 236.268,54.594 235.583,56.136     "></polygon>
        <polygon class="path_estado estado para" id="estado_para" fill="#ffffff" points="229.246,62.13 227.705,63.843 
            226.333,66.07 224.792,66.926 225.821,64.186 227.362,61.445 228.561,60.76    "></polygon>
        <polygon class="path_estado estado para" id="estado_para" fill="#ffffff" points="235.413,61.616 234.213,61.959 
            233.528,62.815 234.556,63.158 235.583,63.672 237.468,62.644 236.268,61.274    "></polygon>
        <polygon class="path_estado estado para" id="estado_para" fill="#ffffff" points="236.097,58.191 237.468,58.191 
            237.638,56.136 236.44,56.649    "></polygon>
        <polygon class="path_estado estado para" id="estado_para" fill="#ffffff" points="236.954,66.583 236.782,67.954 
            235.241,67.954 235.069,66.412 235.241,65.384 236.268,65.384"></polygon>
    </g>
</svg>