<?xml version="1.0" encoding="utf-8"?>
<!-- Generator: Adobe Illustrator 15.0.0, SVG Export Plug-In . SVG Version: 6.00 Build 0)  -->
<!DOCTYPE svg PUBLIC "-//W3C//DTD SVG 1.1//EN" "http://www.w3.org/Graphics/SVG/1.1/DTD/svg11.dtd">
<svg version="1.1" xmlns="http://www.w3.org/2000/svg" xmlns:xlink="http://www.w3.org/1999/xlink" x="0px" y="0px"
	 width="58.167px" height="47.333px" viewBox="125 157.167 58.167 47.333" enable-background="new 125 157.167 58.167 47.333"
	 xml:space="preserve">
<g id="Layer_4" display="none">
	<g display="inline">
		<path fill="#249ff6" d="M167.455,174.033c3.802-2.229,9.709-1.901,12.492,1.51C175.941,173.508,171.8,173.246,167.455,174.033z"/>
		<path fill="#249ff6" d="M167.59,173.246c2.716-2.821,7.944-3.478,10.999-1.115C174.719,171.276,171.189,171.672,167.59,173.246z"/>
		<path fill="#249ff6" d="M166.843,174.953c3.735-1.183,9.913,0.589,10.457,3.87C174.245,176.133,170.917,175.215,166.843,174.953z"/>
	</g>
	<g display="inline">
		<path fill="#249ff6" d="M150.143,174.033c-4.346-0.787-8.555-0.524-12.493,1.51C140.434,172.131,146.34,171.804,150.143,174.033z"/>
		<path fill="#249ff6" d="M150.007,173.246c-3.667-1.574-7.13-1.904-11-1.115C142.131,169.769,147.291,170.425,150.007,173.246z"/>
		<path fill="#249ff6" d="M150.753,174.953c-4.073,0.262-7.4,1.18-10.456,3.87C140.841,175.542,147.02,173.771,150.753,174.953z"/>
	</g>
	<path display="inline" fill="#249ff6" d="M161.344,177.837c4.888-0.853,8.555-4.067,8.555-7.872c0-0.524-0.068-1.114-0.204-1.639
		c1.629-2.035,3.056-5.708,2.24-6.626c-0.814-0.854-4.616,0.197-6.925,1.574c-1.833-0.918-4.005-1.443-6.313-1.443
		c-2.377,0-4.549,0.525-6.314,1.443c-2.308-1.377-6.111-2.428-6.925-1.574c-0.816,0.852,0.61,4.591,2.308,6.691l0,0
		c-0.136,0.525-0.203,1.049-0.203,1.573c0,3.87,3.733,7.085,8.758,7.937c-2.647,4.594-6.518,12.99-8.487,19.026
		c-3.191,9.578,1.222,15.811,9.234,16.597c-0.339,1.248-0.951,2.166-1.765,2.887c-0.952,0.79-2.106,1.313-3.395,1.511
		c-1.358,0.196-2.852,0.131-4.21-0.197c-2.647-0.658-5.024-2.296-6.042-4.725c-1.291-3.018,0.203-6.364,1.901-9.972
		c1.629-3.477,3.326-7.281,3.191-11.676c-0.068-2.821-0.883-5.184-2.173-6.956c-1.289-1.835-3.124-3.147-5.16-4.001
		c-1.968-0.853-4.208-1.18-6.382-1.115c-3.054,0.066-6.042,0.984-8.487,2.56c-4.48,2.821-5.838,7.216-5.092,11.086
		c0.272,1.444,0.815,2.756,1.629,3.936c0.815,1.183,1.833,2.232,3.123,2.953c3.056,1.838,7.128,1.969,11.474-0.918
		c2.716-1.838,3.327-4.394,2.716-6.757c-0.272-0.983-0.748-1.903-1.358-2.69l0,0l0,0c-0.612-0.787-1.358-1.508-2.24-2.035
		c-2.241-1.376-5.093-1.704-7.604,0.131c-0.678,0.527-0.814,1.445-0.271,2.1s1.494,0.787,2.172,0.262
		c1.29-0.917,2.784-0.787,4.006,0c0.543,0.328,1.018,0.787,1.424,1.313l0,0c0.409,0.524,0.68,1.049,0.816,1.639
		c0.339,1.245,0,2.559-1.426,3.477c-3.124,2.1-5.976,2.035-8.08,0.787c-0.814-0.525-1.562-1.18-2.104-2.033
		c-0.543-0.852-0.952-1.838-1.155-2.821c-0.543-2.755,0.477-5.97,3.803-8.202c1.901-1.245,4.345-1.966,6.79-2.032
		c1.765-0.066,3.531,0.262,5.024,0.917c1.493,0.655,2.851,1.576,3.802,2.953c0.95,1.376,1.562,3.149,1.629,5.314
		c0.068,3.739-1.494,7.15-2.92,10.365c-1.968,4.263-3.734,8.133-1.9,12.333c1.426,3.412,4.617,5.641,8.147,6.495
		c1.833,0.459,3.734,0.59,5.567,0.262c1.833-0.33,3.598-1.052,4.956-2.231c1.426-1.245,2.513-2.952,2.92-5.118
		c8.351-0.656,12.695-7.085,9.504-16.86C167.727,190.63,163.924,182.365,161.344,177.837z"/>
</g>
<g id="Layer_2">
	<g>
		<path fill="#249ff6" d="M150.518,174.09c-0.875-0.88-2.652-2.54-4.069-3.014l0.075,0.059c-0.603-0.315-1.277-0.509-2.004-0.509
			c-1.952,0-3.585,1.289-4.144,3.055l0.039-0.164c-1.135,1.72-1.299,5.409-1.299,5.409c0,2.025,1.643,3.667,3.667,3.667
			c1.645,0,3.019-1.089,3.484-2.582c0.56,0.346,1.214,0.555,1.919,0.555c2.025,0,3.667-1.643,3.667-3.667
			C151.853,175.764,151.326,174.763,150.518,174.09z"/>
		<path fill="#249ff6" d="M133.261,169.022c-1.338,0.973-1.44,3.106-0.23,4.765c1.208,1.657,3.271,2.214,4.604,1.239
			c1.338-0.973,1.44-3.106,0.229-4.765C136.657,168.604,134.595,168.048,133.261,169.022z"/>
		<path fill="#249ff6" d="M140.301,168.418c1.493-0.708,1.99-2.785,1.109-4.641c-0.879-1.853-2.8-2.78-4.294-2.072
			c-1.492,0.708-1.991,2.785-1.11,4.64C136.886,168.198,138.809,169.126,140.301,168.418z"/>
		<path fill="#249ff6" d="M146.103,166.912c1.651,0.024,3.016-1.617,3.047-3.669c0.033-2.052-1.282-3.736-2.935-3.761
			c-1.652-0.026-3.016,1.618-3.045,3.668C143.136,165.203,144.451,166.886,146.103,166.912z"/>
		<path fill="#249ff6" d="M154.84,168.396c-0.101-2.053-1.523-3.646-3.174-3.563c-1.649,0.083-2.905,1.812-2.801,3.859
			c0.104,2.051,1.524,3.645,3.175,3.562C153.688,172.171,154.944,170.442,154.84,168.396z"/>
		<path fill="#249ff6" d="M168.442,193.016l0.077,0.151c-0.962-1.581-2.855-2.443-4.749-1.979c-0.708,0.173-1.318,0.523-1.828,0.974l0.061-0.075
			c-1.265,0.798-2.596,2.833-3.236,3.896c-0.626,0.846-0.897,1.943-0.627,3.044c0.482,1.967,2.468,3.17,4.434,2.688
			c0.687-0.169,1.271-0.527,1.733-0.995c0.806,1.336,2.402,2.068,4,1.675c1.966-0.482,3.168-2.467,2.688-4.433
			C170.996,197.961,169.956,194.418,168.442,193.016z"/>
		<path fill="#249ff6" d="M174.322,186.949c-1.53-0.628-3.399,0.403-4.177,2.301c-0.78,1.898-0.171,3.946,1.357,4.572
			c1.528,0.63,3.399-0.403,4.177-2.301C176.458,189.621,175.851,187.575,174.322,186.949z"/>
		<path fill="#249ff6" d="M167.339,188.039c1.619,0.333,3.265-1.027,3.678-3.038c0.411-2.01-0.568-3.909-2.184-4.24
			c-1.619-0.333-3.265,1.028-3.677,3.036C164.744,185.808,165.72,187.709,167.339,188.039z"/>
		<path fill="#249ff6" d="M161.346,187.957c1.598-0.419,2.476-2.365,1.952-4.351c-0.517-1.984-2.233-3.257-3.831-2.839
			c-1.597,0.418-2.475,2.367-1.954,4.354C158.032,187.107,159.747,188.373,161.346,187.957z"/>
		<path fill="#249ff6" d="M159.087,190.346c-0.386-2.015-2.017-3.394-3.64-3.082c-1.625,0.312-2.624,2.2-2.233,4.216
			c0.386,2.014,2.017,3.395,3.638,3.081C158.475,194.248,159.476,192.362,159.087,190.346z"/>
	</g>
</g>
</svg>
