<svg version="1.1" id="Layer_1" xmlns="http://www.w3.org/2000/svg" xmlns:xlink="http://www.w3.org/1999/xlink" x="0px" y="0px"
	 width="119px" height="107px" viewBox="0 0 119 107" enable-background="new 0 0 119 107" xml:space="preserve">
<g>
	<path fill="#3a93d0" d="M56.731,69.574l31.045-28.458c1.08-0.99,1.105-2.617,0.062-3.638c-1.052-1.021-2.771-1.044-3.851-0.057l-29.12,26.695
		l-10.202-9.642c-1.063-1.005-2.785-1.005-3.849,0c-1.063,1.006-1.063,2.632,0,3.638l12.097,11.435
		c0.532,0.501,1.228,0.751,1.925,0.751C55.519,70.302,56.203,70.06,56.731,69.574z"/>
	<path fill="#3a93d0" d="M21.568,41.652L18.1,40.642c-0.318,0.982-0.602,1.977-0.848,2.986v0.001c0,0.005-0.002,0.01-0.004,0.016
		c0,0.001,0,0,0,0.001c0,0.006-0.003,0.011-0.003,0.016v0.002c-0.002,0.007-0.003,0.009-0.005,0.017
		c-0.002,0.006-0.002,0.012-0.004,0.017V43.7c-0.002,0.005-0.003,0.01-0.003,0.015c-0.002,0.002,0,0,0,0.002
		c-0.002,0.005-0.004,0.011-0.005,0.016v0.002c-0.002,0.004-0.002,0.011-0.004,0.016c-0.002,0.007-0.004,0.013-0.004,0.018v0.001
		c-0.008,0.035-0.018,0.067-0.024,0.103l0.36,0.001c0,0.002,0.359,0.006,0.359,0.011c0,0.002,0,0.003,0,0.005
		c0,0.003,0,0.007,0,0.013v0.005c0,0.004,0,0.008,0,0.012c0,0.001,0,0.005,0,0.005c0,0.006,0,0.008,0,0.012c0,0.001,0,0.003,0,0.007
		c0,0.002,0,0.007,0,0.01c0,0.003,0,0.003,0,0.005c0,0.006,0,0.01,0,0.013c0,0.002,0,0.002,0,0.006c0,0.004,0,0.007,0,0.011
		c0,0.001,0,0.005,0,0.006c0,0.004,0,0.007,0,0.011c0,0.001,0,0.005,0,0.007c0,0.002,0,0.007,0,0.01s0,0.006,0,0.007
		c0,0.003,0,0.007,0,0.011c0,0.002,0,0.002,0,0.007s0,0.008,0,0.011s0,0.005,0,0.005c0,0.006,0,0.011,0,0.014
		c0,0.001,0,0.001,0,0.004c0,0.012,0,0.024,0,0.035c0,0.001,0,0.001,0,0.002c0,0.006,0,0.008,0,0.013s0,0.005,0,0.007
		c0,0.003,0,0.007,0,0.011c0,0.003,0,0.007,0,0.008c0,0.003,0,0.007,0,0.01c0,0.004,0,0.004,0,0.009c0,0.002,0,0.005,0,0.007
		c0,0.005,0,0.005,0,0.011c0,0,0,0.005,0,0.006c0,0.004,0,0.007,0,0.009c0,0.003,0,0.007,0,0.008c0,0.003,0,0.007,0,0.008
		c0,0.003,0,0.007,0,0.01s0,0.007,0,0.007c0,0.005,0,0.007,0,0.01c0,0.003,0,0.006,0,0.011c0,0,0,0.005,0,0.006
		c0,0.004,0,0.007,0,0.011c0,0.001,0,0.004,0,0.006c0,0.003,0,0.007,0,0.011c0,0.001,0,0.005,0,0.007s0,0.005,0,0.009
		c0,0.002,0,0.004,0,0.007c0,0.004,0,0.006,0,0.011c0,0.001,0,0.002,0,0.005c0,0.004,0,0.006,0,0.012c0,0.001,0,0.003,0,0.005
		c0,0.003,0,0.007,0,0.012c0,0.002,0,0.002,0,0.003c0,0.02-0.002,0.04-0.005,0.06l0.005-0.008c0,0.005,0,0.008,0,0.012
		c0,0.001,0,0.003,0,0.005c0,0.006,0,0.008,0,0.013c0,0,0,0.002,0,0.003c0,0.005,0,0.01,0,0.015c0,0,0,0.001,0,0.003
		c0,0.003,0,0.008,0,0.012c0,0.001,0,0.002,0,0.005c0,0.004,0,0.007,0,0.012c0,0.001,0,0.003,0,0.006s0,0.007,0,0.011
		c0,0.002,0,0.004,0,0.005c0,0.005,0,0.01,0,0.012s0,0.003,0,0.006c0,0.003,0,0.008,0,0.012c0,0.002,0,0.002,0,0.004
		c0,0.004,0,0.007,0,0.012c0,0.001,0,0.003,0,0.006s0,0.006,0,0.011c0,0.002,0,0.002,0,0.004c0,0.006-0.443,0.011-0.445,0.013
		c0,0.002-0.221,0.002-0.221,0.002c0,0.007-0.112,0.011-0.113,0.016l-0.054,0.002c-0.002,0.004-0.03,0.009-0.031,0.016h-0.013
		c-0.008,0.038-0.023,0.074-0.032,0.111c0,0.007-0.005,0.011-0.007,0.016c0,0.002-0.002,0.002-0.002,0.002
		c0,0.007-0.002,0.01-0.003,0.016c0,0.001,0,0.001,0,0.001c0,0.006-0.002,0.011-0.004,0.016v0.002
		c-0.002,0.01-0.003,0.022-0.007,0.031c-0.326,1.546-0.564,3.118-0.711,4.721l3.616,0.293
		C20.138,47.061,20.702,44.306,21.568,41.652z"/>
	<path fill="#3a93d0" d="M22.758,75.646c1.682,2.593,3.645,5.002,5.852,7.19l2.627-2.368c-2.036-2.02-3.846-4.245-5.386-6.618L22.758,75.646z"/>
	<path fill="#3a93d0" d="M16.1,58.619c0,0.001,0,0.007,0,0.012c0,0,0,0,0,0.004c0,0.003,0,0.007,0,0.012c0,0.001,0,0.001,0,0.004s0,0.007,0,0.013
		c0,0.003,0,0.004,0,0.004c0,0.006,0,0.008,0,0.015v0.003c0,0.006,0,0.009,0,0.013c0,0.003,0,0.003,0,0.006s0,0.01,0,0.013
		c0,0,0,0.003,0,0.004c0,0.005,0,0.009,0,0.015c0,0,0,0.002,0,0.003c0,0.003,0,0.01,0,0.015h0.183
		c0.188,1.396,0.54,2.771,0.865,4.124c0.002,0.004,0.049,0.01,0.05,0.016h0.024c0.001,0.006,0.012,0.011,0.014,0.016
		c0.002,0.007,0.007,0.011,0.01,0.017c0,0.006,0.005,0.011,0.005,0.019c0.002,0.003,0.004,0.012,0.005,0.016
		c0.011,0.043,0.02,0.086,0.03,0.129h0.311c0,0.007,0.312,0.01,0.312,0.016c0,0,0,0,0,0.004s0,0.009,0,0.012
		c0,0.002,0,0.002,0,0.004c0,0.004,0,0.009,0,0.014v0.002c0,0.009,0,0.009,0,0.014c0,0.002,0,0.002,0,0.006c0,0.005,0,0.008,0,0.012
		v0.004c0,0.005,0,0.008,0,0.012s0,0.004,0,0.004c0,0.006,0,0.008,0,0.014c0,0.002,0,0.004,0,0.004c0,0.006,0,0.01,0,0.012
		c0,0.003,0,0.007,0,0.007c0,0.003,0,0.007,0,0.012c0,0.001,0,0.001,0,0.003c0,0.02,0,0.039,0,0.06V63.3c0,0.006,0,0.006,0,0.015
		c0,0,0,0.001,0,0.003c0,0.004,0,0.009,0,0.01c0,0.004,0,0.006,0,0.009c0,0.006,0,0.006,0,0.01c0,0.001,0,0.003,0,0.007
		c0,0.002,0,0.006,0,0.009s0,0.007,0,0.009c0,0.003,0,0.007,0,0.007c0,0.003,0,0.007,0,0.012c0,0.001,0,0.004,0,0.007
		s0,0.006,0,0.009c0,0.004,0,0.007,0,0.007c0,0.005,0,0.009,0,0.013c0,0,0,0.003,0,0.006c0,0.002,0,0.006,0,0.01
		c0,0.002,0,0.006,0,0.008c0,0.004,0,0.007,0,0.011c0,0.003,0,0.005,0,0.005c0,0.004,0,0.01,0,0.011c0,0.005,0,0.005,0,0.006
		c0,0.006-0.259,0.01-0.257,0.016c0,0.003-0.131,0-0.131,0.003c0.007,0.028-0.051,0.057-0.042,0.086
		c0,0.008-0.031,0.011-0.029,0.016l0.227,0.004c0.005-0.009,0.236-0.004,0.236,0c0,0.002,0,0.002,0,0.004c0,0.004,0,0.008,0,0.014
		c0,0.002,0,0.002,0,0.004s0,0.01,0,0.014c0,0.002,0,0.002,0,0.004c0,0.004,0,0.01,0,0.012v0.004c0,0.007,0,0.011,0,0.016v0.002
		c0,0.006-0.232,0.009-0.231,0.016c0,0.002-0.118,0-0.118,0.002c0.002,0.004-0.054,0.01-0.053,0.016
		c0.338,1.272,0.705,2.521,1.156,3.745l3.411-1.134c-0.97-2.623-1.833-5.354-2.195-8.12L16.1,58.619z"/>
	<path fill="#3a93d0" d="M61.451,13.83V10.4c-0.007,0-0.013,0-0.02,0c0,0-0.004,0-0.006,0c-0.003,0-0.009,0-0.013,0c-0.003,0-0.003,0-0.007,0
		s-0.01,0-0.012,0c-0.006,0-0.006,0-0.008,0c-0.005,0-0.008,0-0.012,0s-0.008,0-0.009,0c-0.003,0-0.007,0-0.011,0s-0.006,0-0.01,0
		s-0.007,0-0.01,0h-0.008c-0.004,0-0.008,0-0.011,0c-0.004,0-0.007,0-0.009,0c-0.004,0-0.008,0-0.012,0c-0.002,0-0.005,0-0.008,0
		c-0.004,0-0.007,0-0.01,0c-0.004,0-0.008,0-0.009,0c-0.005,0-0.007,0-0.013,0c-0.002,0-0.004,0-0.008,0s-0.008,0-0.008,0
		c-0.006,0-0.008,0-0.013,0c-0.001,0-0.005,0-0.009,0c-0.003,0-0.007,0-0.008,0c-0.005,0-0.008,0-0.012,0c-0.003,0-0.006,0-0.01,0
		c-0.002,0-0.005,0-0.009,0c-0.003,0-0.007,0-0.009,0c-0.004,0-0.007,0-0.012,0c-0.002,0-0.004,0-0.008,0s-0.009,0-0.012,0
		c-0.002,0-0.004,0-0.009,0c-0.003,0-0.005,0-0.01,0c-0.003,0-0.005,0-0.009,0s-0.007,0-0.01,0c-0.004,0-0.006,0-0.01,0
		c-0.003,0-0.008,0-0.013,0c-0.003,0-0.003,0-0.005,0c-0.004,0-0.01,0-0.014,0c-0.003,0-0.003,0-0.006,0c-0.007,0-0.012,0-0.016,0
		c-0.002,0-0.002,0-0.003,0c-0.007,0-0.013,0-0.021,0c-0.001,0,0,0-0.001,0c-0.007,0-0.013,0-0.02,0c-0.001,0,0,0-0.001,0
		c-0.006,0-0.011,0-0.018,0c-0.003,0-0.004,0-0.008,0s-0.008,0-0.011,0s-0.003,0-0.007,0s-0.008,0-0.012,0c-0.003,0-0.006,0-0.009,0
		c-0.004,0-0.007,0-0.011,0c-0.002,0-0.008,0-0.01,0s-0.005,0-0.008,0c-0.004,0-0.008,0-0.01,0c-0.004,0-0.008,0-0.012,0
		c-0.002,0-0.004,0-0.01,0c-0.002,0-0.007,0-0.007,0c-0.005,0-0.009,0-0.012,0s-0.005,0-0.01,0c-0.003,0-0.007,0-0.009,0
		c-0.003,0-0.007,0-0.008,0c-0.005,0-0.008,0-0.012,0c-0.003,0-0.006,0-0.01,0c-0.002,0-0.008,0-0.01,0s-0.006,0-0.008,0
		c-0.004,0-0.007,0-0.012,0c-0.002,0-0.007,0-0.008,0c-0.004,0-0.008,0-0.009,0c-0.005,0-0.007,0-0.013,0c0,0-0.004,0-0.009,0
		c-0.003,0-0.006,0-0.009,0c-0.004,0-0.007,0-0.011,0c-0.002,0-0.005,0-0.009,0c-0.003,0-0.006,0-0.009,0c-0.004,0-0.007,0-0.009,0
		c-0.004,0-0.007,0-0.012,0c-0.002,0-0.005,0-0.008,0c-0.004,0-0.007,0-0.012,0c-0.002,0-0.004,0-0.007,0c-0.004,0-0.007,0-0.011,0
		c-0.002,0-0.006,0-0.008,0c-0.003,0-0.01,0-0.01,0c-0.006,0-0.01,0-0.014,0c-0.002,0-0.004,0-0.008,0s-0.013,0-0.018,0
		c-0.002,0-0.004,0-0.006,0c-0.004,0-0.008,0-0.015,0c-0.001,0-0.003,0-0.005,0c-0.006,0-0.01,0-0.014,0c-0.003,0-0.006,0-0.006,0
		c-0.007,0-0.01,0-0.014,0c-0.002,0-0.005,0-0.009,0c-0.003,0-0.007,0-0.011,0c-0.002,0-0.005,0-0.01,0c-0.001,0-0.004,0-0.01,0
		c-0.002,0-0.004,0-0.007,0c-0.005,0-0.009,0-0.012,0s-0.005,0-0.01,0c-0.003,0-0.005,0-0.009,0s-0.006,0-0.008,0
		c-0.005,0-0.008,0-0.012,0c-0.003,0-0.006,0-0.01,0c-0.003,0-0.008,0-0.008,0c-0.004,0-0.007,0-0.01,0c-0.004,0-0.007,0-0.012,0
		c-0.002,0-0.005,0-0.008,0c-0.004,0-0.008,0-0.009,0c-0.005,0-0.007,0-0.01,0s-0.007,0-0.011,0s-0.006,0-0.01,0s-0.007,0-0.008,0
		c-0.004,0-0.008,0-0.01,0c-0.004,0-0.008,0-0.012,0c-0.003,0-0.006,0-0.008,0c-0.005,0-0.007,0-0.012,0c-0.002,0-0.005,0-0.008,0
		s-0.007,0-0.01,0c-0.004,0-0.008,0-0.009,0c-0.004,0-0.007,0-0.011,0s-0.006,0-0.01,0s-0.008,0-0.011,0c-0.001,0-0.005,0-0.007,0
		c-0.004,0-0.008,0-0.012,0c-0.002,0-0.004,0-0.01,0c0,0-0.004,0-0.007,0c-0.002,0-0.009,0-0.012,0h-0.003c-0.004,0-0.01,0-0.016,0
		c-0.002,0-0.003,0-0.008,0s-0.015,0-0.02,0c-0.004,0-0.007,0-0.011,0c-0.003,0-0.003,0-0.007,0s-0.008,0-0.012,0
		c-0.003,0-0.004,0-0.009,0c-0.003,0-0.007,0-0.01,0c-0.005,0-0.005,0-0.007,0c-0.005,0-0.008,0-0.012,0s-0.006,0-0.01,0
		c-0.003,0-0.008,0-0.01,0s-0.008,0-0.01,0c-0.005,0-0.008,0-0.01,0s-0.008,0-0.01,0s-0.007,0-0.01,0c-0.004,0-0.006,0-0.01,0
		c-0.003,0-0.007,0-0.01,0c-0.002,0-0.004,0-0.008,0c-0.003,0-0.007,0-0.011,0c-0.003,0-0.005,0-0.01,0c-0.002,0-0.007,0-0.009,0
		s-0.006,0-0.008,0c-0.004,0-0.007,0-0.011,0c-0.003,0-0.004,0-0.008,0c-0.003,0-0.008,0-0.009,0c-0.004,0-0.007,0-0.011,0
		c-0.002,0-0.004,0-0.009,0c-0.002,0-0.007,0-0.008,0c-0.004,0-0.006,0-0.01,0s-0.007,0-0.011,0c-0.001,0-0.005,0-0.008,0
		c-0.004,0-0.006,0-0.01,0s-0.007,0-0.008,0c-0.006,0-0.006,0-0.011,0c-0.005,0-0.006,0-0.01,0s-0.005,0-0.01,0
		c-0.002,0-0.007,0-0.008,0c-0.003,0-0.007,0-0.011,0s-0.007,0-0.011,0c-0.004,0-0.004,0-0.008,0c-0.005,0-0.009,0-0.015,0
		c0,0-0.002,0-0.005,0c-0.003,0-0.009,0-0.014,0c-0.002,0-0.002,0-0.004,0c-0.007,0-0.013,0-0.02,0c-0.002,0-0.002,0-0.002,0
		c-0.007,0-0.01,0-0.015,0s-0.005,0-0.007,0c-0.004,0-0.008,0-0.014,0c-0.001,0-0.002,0-0.007,0c-0.002,0-0.007,0-0.009,0
		c-0.005,0-0.005,0-0.007,0c-0.005,0-0.01,0-0.015,0c0,0-0.005,0-0.006,0c-0.003,0-0.008,0-0.011,0s-0.007,0-0.01,0
		c-0.003,0-0.007,0-0.011,0c-0.001,0-0.006,0-0.008,0s-0.006,0-0.01,0c-0.003,0-0.005,0-0.009,0c-0.002,0-0.007,0-0.011,0
		c-0.001,0-0.004,0-0.008,0c-0.003,0-0.006,0-0.009,0c-0.004,0-0.005,0-0.009,0c-0.003,0-0.007,0-0.011,0c-0.002,0-0.006,0-0.009,0
		c-0.001,0-0.007,0-0.01,0c-0.003,0-0.005,0-0.008,0c-0.004,0-0.007,0-0.011,0c-0.004,0-0.006,0-0.01,0s-0.007,0-0.011,0
		c-0.001,0-0.004,0-0.007,0s-0.007,0-0.011,0c-0.001,0-0.007,0-0.007,0c-0.006,0-0.008,0-0.013,0c-0.001,0-0.005,0-0.007,0
		s-0.007,0-0.012,0h-0.005c-0.006,0-0.01,0-0.014,0c-0.002,0-0.005,0-0.007,0s-0.008,0-0.015,0c0,0,0,0-0.002,0
		c-0.007,0-0.013,0-0.019,0H59.36c-0.006,0-0.011,0-0.016,0c-0.002,0,0,0-0.002,0c-0.012,0-0.026,0-0.039,0
		c-0.002,0-0.003,0-0.005,0c-0.006,0-0.009,0-0.014,0c-0.002,0-0.005,0-0.006,0c-0.003,0-0.008,0-0.013,0c-0.002,0-0.004,0-0.008,0
		c-0.003,0-0.007,0-0.011,0c-0.005,0-0.005,0-0.007,0c-0.003,0-0.007,0-0.012,0c-0.002,0-0.005,0-0.006,0c-0.006,0-0.009,0-0.013,0
		c-0.002,0-0.004,0-0.004,0c-0.006,0-0.01,0-0.016,0c-0.001,0-0.005,0-0.005,0c-0.006,0-0.01,0-0.013,0c-0.001,0-0.005,0-0.007,0
		c-0.003,0-0.007,0-0.012,0c-0.002,0-0.006,0-0.006,0c-0.005,0-0.01,0-0.014,0c0,0-0.004,0-0.005,0c-0.005,0-0.007,0-0.013,0
		c-0.004,0-0.004,0-0.007,0s-0.007,0-0.013,0c-0.001,0-0.001,0-0.005,0s-0.01,0-0.012,0c-0.002,0-0.005,0-0.007,0
		c-0.005,0-0.01,0-0.015,0c-0.001,0-0.002,0-0.005,0c-0.003,0-0.009,0-0.012,0s-0.006,0-0.007,0c-0.005,0-0.01,0-0.014,0
		c0,0-0.002,0-0.005,0s-0.01,0-0.015,0c0,0-0.003,0-0.005,0c-0.004,0-0.009,0-0.013,0c-0.001,0-0.003,0-0.006,0
		c-0.005,0-0.008,0-0.014,0c-0.001,0-0.001,0-0.005,0c-0.005,0-0.011,0-0.017,0c-0.002,0,0,0.031-0.002,0.031
		c-0.024,0.001-0.048-0.016-0.075-0.014c0,0,0-0.018-0.001-0.018c-0.006,0-0.011,0-0.017,0c-0.001,0-0.001,0-0.004,0
		c-0.004,0-0.011,0-0.014,0s-0.003,0-0.005,0c-0.006,0-0.01,0-0.014,0c-0.002,0-0.005,0-0.006,0c-0.006,0-0.008,0-0.014,0
		c0,0-0.001,0-0.004,0c-0.006,0-0.009,0-0.014,0c-0.002,0-0.003,0-0.006,0c-0.004,0-0.009,0-0.015,0c0,0-0.003,0-0.006,0
		s-0.008,0-0.012,0c-0.002,0-0.005,0-0.005,0c-0.006,0-0.009,0-0.014,0c-0.002,0-0.005,0-0.006,0c-0.004,0-0.009,0-0.013,0
		c-0.002,0-0.002,0-0.005,0c-0.005,0-0.01,0-0.015,0c-0.002,0-0.002,0-0.006,0s-0.008,0-0.013,0c-0.001,0-0.002,0-0.007,0
		c-0.002,0-0.007,0-0.012,0c-0.002,0-0.004,0-0.005,0c-0.005,0-0.01,0-0.015,0h-0.005c-0.004,0-0.011,0-0.014,0
		c-0.001,0-0.003,0-0.005,0c-0.006,0-0.01,0-0.014,0c-0.002,0-0.002,0-0.005,0c-0.005,0-0.012,0-0.017,0h-0.002
		c-0.006,0-0.011,0-0.018,0c-0.039,0-0.077,0.002-0.113,0.004L58.48,10.4c-0.006,0-0.011,0-0.016,0h-0.005c-0.005,0-0.01,0-0.016,0
		c-0.001,0-0.001,0-0.003,0c-0.005,0-0.012,0-0.017,0h-0.002c-0.005,0-0.009,0-0.014,0c0,0-0.005,0-0.007,0s-0.008,0-0.012,0
		c-0.002,0-0.004,0-0.005,0c-0.005,0-0.01,0-0.015,0c-0.002,0-0.005,0-0.006,0c-0.004,0-0.008,0-0.013,0c-0.002,0-0.002,0-0.005,0
		c-0.006,0-0.01,0-0.014,0c-0.004,0-0.002,0-0.006,0c-0.003,0-0.008,0-0.014,0c-0.001,0-0.001,0-0.004,0c-0.004,0-0.009,0-0.014,0
		c-0.002,0-0.004,0-0.004,0c-0.006,0-0.011,0-0.017,0c-0.001,0-0.001,0-0.003,0c-0.005,0-0.011,0-0.015,0c-0.001,0-0.003,0-0.003,0
		c-0.005,0-0.012,0-0.018,0H58.23c-0.006,0-0.012,0-0.017,0l-0.002,0.054c-0.062,0.004-0.125-0.026-0.187-0.022l0.005-0.032
		c-0.005,0-0.013,0-0.02,0h-0.001c-0.006,0-0.011,0-0.016,0c-0.002,0-0.002,0-0.005,0c-0.005,0-0.01,0-0.016,0c-0.001,0,0,0-0.001,0
		c-0.006,0-0.012,0-0.017,0c-0.002,0-0.002,0-0.003,0c-0.006,0-0.011,0-0.017,0h-0.001c-0.006,0-0.012,0-0.017,0h-0.003
		c-0.006,0-0.011,0-0.017,0h-0.001c-0.006,0-0.011,0-0.018,0c0,0,0,0-0.002,0c-0.004,0-0.011,0-0.016,0c-0.002,0-0.002,0-0.002,0
		c-0.007,0-0.012,0-0.018,0c-0.002,0,0,0-0.002,0c-0.005,0-0.012,0-0.017,0c-0.007,0-0.013,0-0.019,0l-0.001,0.068
		c-0.075,0.006-0.15-0.032-0.226-0.025c-0.001,0,0-0.043-0.001-0.043c-0.006,0-0.011,0-0.017,0c-0.001,0,0,0-0.001,0
		c-0.006,0-0.013,0-0.018,0h-0.002c-0.004,0-0.011,0-0.018,0c-0.004,0-0.012,0-0.018,0l-0.001,0.081
		c-0.013,0-0.026,0.042-0.039,0.042c-1.888,0.155-3.742,0.439-5.559,0.808l0.761,3.365C55.533,14.114,58.488,13.83,61.451,13.83z"/>
	<path fill="#3a93d0" d="M76.915,12.957c-0.008-0.002-0.013-0.419-0.019-0.422c-0.006-0.002-0.01-0.421-0.017-0.421h-0.002
		c-0.008,0-0.011,0-0.014,0s-0.003,0-0.008,0c-0.003,0-0.007,0.002-0.012,0c-0.004,0-0.004,0-0.006,0c-0.005,0-0.006,0-0.011,0
		c0,0-0.004,0.403-0.009,0.403c-0.001-0.001-0.004-0.2-0.007-0.202c-0.003,0-0.008-0.202-0.009-0.202c-0.005,0-0.005,0-0.008,0
		s-0.009,0.397-0.009,0.397c-0.005-0.001-0.006-0.197-0.009-0.199c-0.005,0-0.008-0.199-0.012-0.199c0,0-0.002,0-0.005,0
		c-0.004,0-0.008,0-0.012,0c-0.003,0-0.005,0-0.005,0c-0.004,0-0.009,0-0.012,0s-0.004,0-0.004,0c-0.005,0-0.009,0.387-0.016,0.385
		c0,0-0.001,0.196-0.001,0.194c-1.677-0.565-3.399-0.943-5.162-1.323v0.049c-0.006-0.002-0.013,0.021-0.016,0.021
		c-0.008-0.002-0.014,0.008-0.02,0.006c-0.052-0.011-0.104-0.016-0.155-0.026c-0.004-0.001-0.008,0-0.017,0v0.002
		c-0.006-0.002-0.008,0.345-0.017,0.345c0,0,0,0.347-0.002,0.347c-0.007,0-0.01,0-0.015,0c-0.001,0-0.001,0-0.004,0
		c-0.005,0-0.006,0-0.012,0c-0.003,0-0.005,0-0.005,0c-0.004,0-0.011,0-0.012,0c-0.005,0-0.005,0-0.006,0c-0.008,0-0.012,0-0.015,0
		c0,0-0.003,0-0.005,0c-0.004,0-0.009,0-0.012,0s-0.005,0-0.007,0s-0.008,0-0.013,0c-0.003,0-0.003,0-0.006,0
		c-0.004,0-0.006,0-0.013,0h-0.004c-0.019,0-0.038,0-0.058,0c0,0-0.004,0-0.009,0c-0.002,0-0.004,0-0.009,0
		c-0.002,0-0.006,0-0.008,0c-0.004,0-0.006,0-0.01,0c-0.003,0-0.007,0-0.007,0c-0.007,0-0.008,0-0.013,0c-0.003,0-0.003,0-0.008,0
		c-0.002,0-0.006,0-0.009,0c-0.004,0-0.006,0-0.01,0c-0.002,0-0.006,0-0.011,0c0,0-0.004,0-0.008,0c0,0-0.004,0-0.009,0
		c-0.001,0-0.004,0-0.009,0c-0.003,0-0.006,0-0.009,0s-0.007,0-0.009,0c-0.005,0-0.006,0-0.011,0c-0.004,0-0.006,0-0.01,0
		c-0.002,0-0.007,0-0.007,0c-0.004,0-0.008,0-0.013,0c0,0-0.003,0-0.006,0s-0.006,0-0.015,0c0,0-0.002,0-0.004,0
		c-0.004,0-0.008,0-0.015,0c-0.001,0-0.001,0-0.001,0c-0.022,0-0.038-0.396-0.057-0.4c-0.012-0.001-0.025-0.197-0.035-0.2
		l-0.005-0.098c-0.003-0.002-0.008-0.05-0.016-0.052l-0.002-0.024c-0.006-0.002-0.011-0.016-0.017-0.016
		c-0.003,0,0-0.005-0.003-0.005c-0.004-0.002-0.01-0.005-0.017-0.005v-0.003c-0.006,0-0.012-0.002-0.021-0.003l0,0
		c-0.006,0-0.012-0.002-0.017-0.004h-0.001c-0.007-0.002-0.011-0.002-0.02-0.003c-1.035-0.202-2.08-0.375-3.138-0.51l-0.488,3.397
		c2.923,0.375,5.803,1.043,8.568,1.992L76.915,12.957z"/>
	<path fill="#3a93d0" d="M30.163,27.18l-2.722-2.27c-1.903,2.037-3.602,4.25-5.073,6.604c-0.004,0.005-0.006,0.009-0.009,0.014v0.002
		c-0.004,0.005-0.005,0.009-0.01,0.012c0,0.001,0,0.001,0,0.001c-0.003,0.005-0.005,0.009-0.01,0.014
		c-0.019,0.034-0.039,0.065-0.059,0.098c0,0,0,0,0,0.002c-0.004,0.003-0.006,0.009-0.009,0.012c0,0.002-0.361,0.002-0.361,0.002
		c-0.004,0.001-0.369,0.005-0.369,0.009c0,0.001,0,0.001,0,0.003c0,0.004,0.356,0.006,0.352,0.011l-0.171,0.002
		c-0.004,0.005-0.18,0.007-0.18,0.012c0,0.002,0,0.002,0,0.004s0.347,0.008,0.343,0.011c0,0,0.177,0,0.177,0.002
		c-0.002,0.003,0.081,0.009,0.08,0.014c-0.019,0.028,0.008,0.053-0.007,0.082l-0.293,0.002c0,0.003-0.298,0.007-0.298,0.01
		c0,0.002,0,0.002,0,0.003c0,0.003,0.309,0.007,0.306,0.012l-0.151,0.002c0,0.004-0.154,0.006-0.154,0.012c0,0.002,0,0.002,0,0.004
		c0,0.004,0.301,0.007,0.298,0.012l0.15,0.002c-0.002,0.003,0.072,0.008,0.069,0.011c0,0.002,0.039,0.002,0.039,0.002
		c-0.011,0.019-0.278,0.035-0.291,0.055c-0.003,0.003-0.265,0.007-0.265,0.01c0,0.002,0,0.002,0,0.004
		c0,0.003,0.269,0.009,0.267,0.012l-0.13,0.002c-0.002,0.004-0.137,0.008-0.137,0.011c0,0.002,0,0.002,0,0.004
		c0,0.004,0,0.006,0,0.011c0,0,0,0.002,0,0.003c0,0.004,0,0.006,0,0.011c0,0.002,0,0.002,0,0.003c0,0.004,0.254,0.009,0.25,0.013
		l0.128,0.001c-0.003,0.006,0.06,0.009,0.057,0.014c-0.011,0.019,0.01,0.036,0,0.053c-0.001,0.001,0.015,0.001,0.015,0.001
		c-0.002,0.006,0.003,0.009,0,0.014c0,0-0.222,0.001-0.223,0.001c-0.001,0.001-0.227,0.006-0.227,0.011c0,0,0,0.001,0,0.003
		c0,0.006,0,0.006,0,0.011c0,0.002,0,0.003,0,0.003c0,0.004,0.216,0.008,0.214,0.013c-0.002,0,0.107,0,0.105,0.003
		c-0.002,0.005,0.05,0.008,0.049,0.011c-0.002,0-0.182,0.002-0.182,0.002c-0.001,0.004-0.187,0.007-0.187,0.01
		c0,0.001,0,0.001,0,0.003c0,0.004,0.202,0.007,0.2,0.012c0,0,0.104,0,0.104,0.002c-0.012,0.02,0.029,0.037,0.018,0.054
		l-0.156,0.001c-0.004,0.004-0.166,0.009-0.166,0.013c0,0,0,0,0,0.003c0,0.003,0.176,0.006,0.174,0.011l-0.083,0.002
		c-0.004,0.005-0.091,0.007-0.091,0.012c0,0.002,0,0.002,0,0.004c0,0.002,0.171,0.003,0.168,0.005l3.251,1.68
		C26.402,31.562,28.21,29.271,30.163,27.18z"/>
	<path fill="#3a93d0" d="M93.083,22.548L93.083,22.548c-0.006-0.005-0.011-0.009-0.013-0.012c-0.005-0.002-0.005-0.002-0.005-0.002
		c-0.003-0.003-0.008-0.008-0.012-0.011v-0.002c-0.005-0.004-0.008-0.007-0.015-0.01c-0.002-0.006-0.008-0.008-0.013-0.013
		l-0.001-0.001c-0.037-0.035-0.071-0.065-0.108-0.098v-0.002c-0.004-0.003-0.009-0.009-0.012-0.011
		c-0.034-0.03-0.065-0.057-0.097-0.086c-0.054-0.05-0.111-0.1-0.163-0.148c-0.354-0.317-0.714-0.627-1.077-0.934
		c-0.005-0.005-0.011-0.008-0.014-0.013c-0.037-0.028-0.065-0.055-0.101-0.082c-0.009-0.009-0.02-0.017-0.029-0.023
		c-0.039-0.033-0.074-0.062-0.111-0.095c0,0,0,0-0.002-0.001c-0.005-0.003-0.009-0.007-0.013-0.011h-0.002
		c-0.005-0.005-0.006-0.008-0.012-0.012c-0.04-0.033-0.077-0.062-0.114-0.095c-0.005-0.003-0.009-0.007-0.014-0.012
		c-0.006-0.003-0.01-0.007-0.016-0.012c-0.029-0.024-0.056-0.045-0.085-0.068c-0.006-0.006-0.009-0.009-0.015-0.013
		c-0.005-0.003-0.008-0.008-0.014-0.011c-0.007-0.003-0.009-0.009-0.015-0.012c-0.005-0.003-0.009-0.006-0.015-0.011
		c-0.03-0.024-0.057-0.045-0.085-0.07l-0.003-0.001c-0.002-0.003-0.009-0.007-0.012-0.011c-0.002,0-0.211,0-0.211-0.002
		c0.003,0.004-0.214,0.002-0.214,0v-0.004c0-0.003,0.41,0.031,0.405,0.031h-0.003c-0.005,0-0.006,0-0.011,0
		c-0.003,0-0.003,0-0.003,0c-0.006,0-0.01-0.033-0.012-0.036l-0.004-0.014c-0.013-0.012-0.028-0.029-0.042-0.039
		c-0.003-0.006-0.008-0.013-0.015-0.016v-0.004c-0.006-0.003-0.008-0.007-0.014-0.01c0,0-0.144,0-0.146-0.002
		c-0.004-0.004-0.157-0.007-0.157-0.011c0-0.001,0-0.001,0-0.003s0.137-0.005,0.133-0.009c0-0.002,0.07,0.076,0.068,0.074
		c-0.002-0.002,0.064,0.068,0.062,0.068c-0.001,0-0.001,0-0.004,0c-0.002,0-0.006-0.084-0.012-0.088l-0.002-0.041
		c-0.005-0.003-0.009-0.025-0.014-0.029l-0.001-0.008c-0.002-0.004-0.009-0.014-0.014-0.018l-0.001-0.002
		c-0.008-0.008-0.017-0.016-0.028-0.023c0-0.001,0-0.001-0.003-0.001c-0.002-0.003-0.006-0.007-0.011-0.01
		c-0.002-0.002-0.003-0.002-0.003-0.004c-0.005-0.001-0.009-0.005-0.012-0.006c-0.002-0.002-0.003-0.003-0.006-0.005
		c-0.005-0.002-0.005-0.005-0.008-0.007c-0.003-0.002-0.003-0.002-0.004-0.003c-0.005-0.003-0.009-0.005-0.011-0.009
		c-0.003-0.001-0.003-0.001-0.005-0.003c-0.001-0.001-0.006-0.005-0.007-0.006c-0.003-0.002-0.008-0.004-0.008-0.005
		c-0.003-0.002-0.003-0.004-0.007-0.007c-0.003-0.002-0.005-0.002-0.007-0.003c-0.002-0.003-0.007-0.005-0.01-0.009
		c-0.003-0.001-0.003-0.001-0.005-0.003c-0.004-0.002-0.009-0.005-0.013-0.009c0-0.002,0-0.002-0.002-0.002
		c-0.002-0.005-0.009-0.008-0.015-0.011c0,0,0,0,0-0.002c-0.003,0-0.008-0.005-0.012-0.008c-0.002-0.002-0.002-0.002-0.005-0.004
		c-0.004-0.003-0.006-0.004-0.01-0.009c-0.002,0-0.005,0-0.006-0.003c0-0.002-0.005-0.005-0.008-0.007
		c-0.003-0.001-0.005-0.004-0.005-0.005c-0.004-0.002-0.007-0.006-0.01-0.007c-0.003-0.002-0.005-0.004-0.008-0.004
		c0-0.003-0.003-0.004-0.006-0.007c-0.003-0.002-0.006-0.003-0.006-0.005c-0.004-0.002-0.009-0.005-0.009-0.007
		c-0.002,0-0.006-0.004-0.008-0.005c0-0.002-0.004-0.004-0.006-0.006c-0.003-0.002-0.004-0.003-0.006-0.005
		c-0.005-0.002-0.005-0.003-0.009-0.007c-0.002-0.002-0.004-0.004-0.006-0.005c-0.003-0.002-0.006-0.004-0.006-0.005
		c-0.006-0.003-0.009-0.008-0.014-0.011c-0.004-0.002-0.006-0.004-0.01-0.005c-0.002-0.002-0.002-0.006-0.006-0.007
		c-0.002-0.002-0.005-0.004-0.007-0.006c-0.001-0.001-0.006-0.003-0.01-0.005c0-0.002-0.002-0.003-0.005-0.005
		c-0.004-0.003-0.004-0.003-0.009-0.005c0-0.001-0.003-0.005-0.006-0.006c-0.001-0.002-0.001-0.004-0.006-0.006
		c-0.004-0.001-0.006-0.003-0.008-0.005c-0.003-0.002-0.004-0.003-0.004-0.005c-0.005-0.002-0.006-0.005-0.011-0.007
		c-0.003-0.002-0.004-0.003-0.006-0.005c-0.005-0.001-0.005-0.003-0.009-0.006c-0.002,0-0.004-0.002-0.004-0.004
		c-0.005-0.001-0.007-0.005-0.011-0.006c-0.002-0.002-0.003-0.003-0.006-0.005c-0.005-0.002-0.005-0.004-0.008-0.007
		c-0.003-0.002-0.005-0.002-0.005-0.003c-0.004-0.001-0.008-0.005-0.01-0.007c-0.005-0.002-0.006-0.005-0.011-0.008
		c-0.003-0.002-0.006-0.005-0.009-0.008c-0.004,0-0.004-0.003-0.008-0.005c0,0-0.002-0.003-0.007-0.005
		c-0.001-0.001-0.001-0.003-0.006-0.006c-0.002-0.002-0.006-0.004-0.008-0.005c0-0.002-0.004-0.004-0.009-0.005
		c0-0.001-0.001-0.003-0.004-0.005c-0.005-0.002-0.005-0.003-0.008-0.005c-0.003-0.002-0.005-0.004-0.006-0.005
		c-0.003-0.002-0.007-0.006-0.011-0.007c0-0.001-0.003-0.001-0.003-0.004c-0.004-0.003-0.006-0.005-0.01-0.007
		c0-0.001-0.002-0.003-0.005-0.003c-0.003-0.003-0.008-0.006-0.008-0.009c-0.004,0-0.004-0.002-0.006-0.004
		c-0.004-0.001-0.007-0.003-0.01-0.007c0-0.001-0.003-0.001-0.005-0.002c-0.012-0.009-0.021-0.018-0.032-0.026
		c-0.003-0.002-0.003-0.002-0.005-0.003c-0.004-0.002-0.004-0.003-0.006-0.006c-0.004-0.001-0.007-0.003-0.007-0.005
		c-0.004-0.003-0.006-0.003-0.008-0.006c-0.003-0.002-0.005-0.002-0.006-0.004c-0.003-0.004-0.006-0.005-0.011-0.007
		c0-0.002-0.003,0.343-0.004,0.343c0.012,0.005,0.009,0.346,0.009,0.346c-0.005,0-0.005,0-0.005,0c-0.004,0-0.009-0.353-0.013-0.355
		c0-0.002-0.002-0.175-0.002-0.177c-0.004-0.002-0.006-0.091-0.011-0.094c0,0-0.004-0.043-0.004-0.045
		c-0.002-0.002-0.008-0.027-0.012-0.031c-0.025-0.02-0.051-0.051-0.077-0.072l-0.002-0.005c-0.004-0.004-0.009-0.009-0.013-0.012
		c-0.006-0.004-0.008-0.007-0.013-0.011c0,0-0.001,0-0.001-0.001c-0.006-0.003-0.006-0.005-0.015-0.009c0,0,0,0,0,0
		c-0.005-0.004-0.009-0.005-0.014-0.009v-0.002c-0.032-0.023-0.06-0.044-0.092-0.068c-0.006-0.003-0.006-0.007-0.014-0.01
		c0,0,0,0-0.001-0.002c-1.351-1.022-2.763-1.97-4.233-2.843l-1.929,2.903c2.494,1.48,4.829,3.218,6.942,5.162L93.083,22.548z"/>
	<path fill="#3a93d0" d="M103.663,37.563c-0.154-0.368-0.316-0.735-0.477-1.099c-0.023-0.044-0.042-0.09-0.062-0.133c0-0.002,0-0.002,0-0.002
		c-0.003-0.005-0.004-0.009-0.004-0.014c-0.005,0-0.005-0.002-0.005-0.002c0-0.005-0.003-0.009-0.003-0.014l0.032-0.002
		c-0.001-0.003,0.029-0.007,0.029-0.012c0,0,0-0.002,0-0.003c0-0.006-0.037-0.007-0.042-0.013c0-0.001-0.017-0.001-0.02-0.001
		c0-0.005-0.013-0.008-0.013-0.014c0-0.001-0.005-0.001-0.005-0.001c-0.014-0.029-0.031-0.056-0.04-0.085
		c-0.003-0.002-0.003-0.003-0.005-0.005c-0.003-0.004-0.004-0.007-0.004-0.011c-0.005-0.001-0.005-0.003-0.005-0.005
		c-0.001-0.003-0.001-0.007-0.004-0.01c-0.002-0.002-0.002-0.003-0.005-0.005c0-0.003-0.003-0.008-0.003-0.01
		c0-0.002,0-0.003-0.005-0.005c0-0.003-0.001-0.008-0.001-0.01c-0.003-0.002-0.003-0.005-0.005-0.006
		c-0.002-0.003-0.002-0.007-0.002-0.009c-0.004-0.003-0.004-0.005-0.004-0.006c-0.003-0.005-0.003-0.005-0.004-0.01
		c-0.003-0.002,0.084-0.004,0.084-0.007c-0.001,0,0.081-0.002,0.081-0.006c0,0,0-0.003,0-0.005c0-0.011-0.1-0.025-0.105-0.037
		l-0.044-0.002c-0.004-0.004-0.029-0.009-0.029-0.012c-0.001-0.002-0.012-0.004-0.014-0.005c-0.002-0.003-0.009-0.006-0.01-0.008
		c0-0.002-0.005-0.006-0.005-0.007c-0.003-0.004-0.004-0.006-0.006-0.009c-0.003-0.003-0.003-0.004-0.006-0.006
		c0-0.004,0-0.007-0.005-0.009c0-0.003,0-0.004-0.002-0.008c-0.002-0.002-0.004-0.005-0.004-0.009
		c-0.003-0.001-0.003-0.005-0.003-0.007c-0.004-0.003-0.004-0.005-0.004-0.008c-0.002-0.002-0.003-0.006-0.003-0.009
		c-0.003-0.002,0.12-0.005,0.12-0.007c0-0.002,0.119-0.003,0.119-0.006c0-0.004,0-0.005,0-0.007c0-0.004-0.127-0.007-0.128-0.011
		c0-0.003,0.069-0.003,0.069-0.007c-0.003-0.008,0.059-0.019,0.059-0.029c0,0,0-0.002,0-0.005c0-0.003,0-0.006,0-0.011
		c0,0,0-0.002,0-0.003c0-0.004-0.145-0.009-0.145-0.013c-0.005-0.001,0.074-0.003,0.074-0.005c-0.004-0.004,0.07-0.007,0.07-0.012
		c0-0.001,0-0.001,0-0.004c0-0.005,0-0.008,0-0.012c0-0.001,0-0.004,0-0.004c0-0.004,0-0.007,0-0.013c0-0.001,0-0.001,0-0.005
		c0-0.003,0-0.007,0-0.01c0-0.002,0-0.003,0-0.006c0-0.003,0-0.007,0-0.012c0-0.002,0-0.003,0-0.003c0-0.004,0-0.009,0-0.013
		c0-0.001,0-0.001,0-0.005s-0.17-0.008-0.174-0.013c0-0.002-0.085,0-0.085-0.002c-0.009-0.016-0.056-0.032-0.063-0.047
		c-0.003-0.005-0.025-0.012-0.03-0.016l-0.01,0.002c-0.002-0.005-0.008-0.01-0.013-0.016c0-0.001,0.19,0,0.19-0.001
		c-0.002-0.006,0.185-0.011,0.185-0.014v-0.003c0-0.003,0-0.009,0-0.014c0-0.002,0-0.002,0-0.003c0-0.004-0.202-0.009-0.202-0.014
		c0-0.001-0.103,0-0.103-0.001c-0.002-0.005-0.054-0.011-0.055-0.016h-0.027c-0.013-0.028-0.04-0.053-0.049-0.081l-0.009-0.002
		c0-0.005-0.007-0.011-0.012-0.016c0,0,0.232-0.001,0.23-0.001c-0.002-0.003,0.226-0.009,0.226-0.012c0-0.002,0-0.002,0-0.003
		c0-0.003-0.236-0.009-0.239-0.014l-0.117-0.002c-0.003-0.006-0.063-0.011-0.065-0.016c-0.005-0.006-0.034-0.012-0.037-0.018
		c-0.055-0.105-0.12-0.214-0.174-0.322c-0.621-1.245-1.309-2.459-2.046-3.633c0-0.002-0.003,0-0.003-0.002
		c-0.005-0.005-0.009-0.01-0.011-0.014l-0.002-0.001c-0.002-0.006-0.008-0.011-0.013-0.014v0c-0.031-0.049-0.062-0.101-0.095-0.151
		v-0.002c-0.005-0.005-0.006-0.008-0.009-0.013l-0.002-0.001c-0.002-0.004-0.007-0.009-0.01-0.014v-0.001
		c-0.02-0.031-0.037-0.06-0.059-0.091c0-0.005-0.004-0.01-0.009-0.016c-0.004-0.005-0.007-0.01-0.007-0.014l-0.003-0.002
		c-0.005-0.005-0.006-0.01-0.011-0.014c-0.001-0.006-0.004-0.011-0.009-0.014c0-0.001,0-0.001,0-0.001
		c-0.02-0.032-0.038-0.06-0.058-0.091h-0.002c-0.001-0.005-0.006-0.01-0.009-0.016c0,0-0.315,0-0.315-0.002
		c0,0-0.322-0.005-0.322-0.008s0-0.004,0-0.004c0-0.005,0-0.009,0-0.012c0-0.002,0-0.002,0-0.003c0-0.003,0-0.008,0-0.012
		c0-0.002,0-0.002,0-0.002c0-0.004,0-0.007,0-0.013c0,0,0,0,0-0.003c0-0.003,0-0.007,0-0.011c0,0,0-0.002,0-0.004
		c0-0.019,0.271-0.037,0.258-0.058c0,0,0.147-0.002,0.145-0.003c-0.002-0.004,0.07-0.007,0.069-0.012c0,0,0.037,0,0.034-0.002
		c-0.002-0.004,0.015-0.009,0.012-0.012c-0.001-0.002,0.008-0.004,0.008-0.006c-0.003-0.002,0-0.006-0.003-0.009
		c-0.002-0.002,0-0.004,0-0.004c-0.002-0.003-0.005-0.007-0.008-0.01c-0.003-0.004,0-0.004-0.003-0.005
		c0-0.004-0.003-0.007-0.003-0.011c-0.003-0.002-0.254-0.003-0.255-0.005c-0.002,0-0.254-0.004-0.254-0.007c0-0.002,0-0.004,0-0.005
		c0-0.004,0.241-0.007,0.239-0.011c-0.002-0.002-0.116-0.003-0.118-0.003c-0.002-0.004-0.121-0.007-0.121-0.011
		c0-0.002,0-0.002,0-0.004c0-0.009,0-0.019,0-0.028c0-0.002,0-0.004,0-0.005c0-0.004,0.221-0.008,0.218-0.011
		c0-0.004,0.113-0.002,0.113-0.005c0-0.004,0.052-0.007,0.049-0.011c0,0,0.025-0.003,0.025-0.005
		c-0.003-0.004,0.01-0.007,0.007-0.009c0-0.001,0.005-0.004,0.005-0.006c-0.002-0.002,0-0.005-0.002-0.009
		c-0.003-0.001-0.003-0.003-0.003-0.007c-0.003-0.001-0.003-0.005-0.007-0.008c0-0.002,0-0.004,0-0.006
		c-0.003-0.003-0.005-0.005-0.007-0.008c-0.002-0.002-0.002-0.006-0.002-0.007c-0.005-0.003-0.005-0.005-0.008-0.008
		c0-0.002-0.003-0.006-0.005-0.006c0-0.003-0.004-0.006-0.004-0.009c-0.005-0.002-0.188-0.004-0.19-0.005
		c0-0.004-0.189-0.007-0.189-0.011c0-0.002,0-0.002,0-0.005c0-0.002,0.181-0.003,0.18-0.007c-0.003-0.005,0.084-0.011,0.08-0.017
		c0,0,0.046-0.003,0.041-0.003c0-0.005,0.021-0.007,0.021-0.011c-0.005-0.001,0.009-0.003,0.009-0.004
		c-0.005-0.003,0-0.005-0.003-0.009c0-0.001,0-0.003-0.002-0.006c-0.003-0.003-0.003-0.005-0.004-0.009c0-0.001,0-0.003,0-0.005
		c-0.005-0.003-0.005-0.005-0.007-0.008c-0.001-0.002-0.155-0.004-0.155-0.006c-0.003,0.002-0.16-0.003-0.16-0.005
		c0-0.002,0-0.003,0-0.003c0-0.004,0.144-0.007,0.144-0.011c-0.004-0.002,0.071-0.004,0.071-0.005
		c-0.003-0.004,0.037-0.007,0.033-0.011c0-0.002-0.12-0.002-0.122-0.003c-0.005-0.002-0.126-0.005-0.126-0.009
		c0-0.001,0-0.001,0-0.003c0-0.021,0.108-0.042,0.095-0.065c-0.005,0-0.046,0-0.046,0c-0.004-0.003-0.049-0.008-0.049-0.011
		c0-0.002,0-0.002,0-0.004c0-0.003,0.215,0.652,0.212,0.652c-0.002,0-0.002,0-0.004,0s-0.208-0.672-0.208-0.677c0,0,0-0.002,0-0.004
		c0-0.003,0-0.006,0-0.01c0-0.001,0-0.001,0-0.004c0-0.003,0-0.007,0-0.01c0-0.001,0-0.003,0-0.003c0-0.003,0.086-0.008,0.082-0.012
		c-0.022-0.032,0.004-0.063-0.017-0.093c-0.002,0-0.031-0.002-0.033-0.004c0-0.002-0.032-0.004-0.032-0.007s0-0.002,0-0.003
		c0-0.004,0.045-0.008,0.04-0.013c0,0,0.025,0,0.025,0c-0.005-0.004,0.009-0.008,0.004-0.013c-0.137-0.203-0.269-0.401-0.409-0.6
		l-3.018,1.902c1.635,2.321,3.013,4.809,4.093,7.395L103.663,37.563z"/>
	<path fill="#3a93d0" d="M44.286,17.311l-1.494-2.862c-0.62,0.266-1.233,1.095-1.837,1.095c-0.002,0-0.002,0-0.004,0c-0.003,0-0.008,0-0.012,0
		c-0.002,0-0.002,0-0.003,0c-0.004,0-0.009,0-0.013,0c-0.001,0-0.003,0-0.003,0c-0.005,0-0.009,0-0.012,0c-0.002,0-0.004,0-0.006,0
		c-0.003,0-0.007-0.247-0.01-0.244c-0.002,0.002-0.005,0.121-0.005,0.121c-0.004,0.002-0.008,0.123-0.011,0.123
		c-0.002,0-0.003,0-0.003,0c-0.006,0-0.012-0.237-0.015-0.236c-0.001,0.001-0.001-0.12-0.001-0.12
		c-0.014,0.004-0.024-0.052-0.035-0.047c0,0.001,0-0.029,0-0.029c-0.007,0.001-0.012-0.011-0.015-0.009L40.8,15.32
		c-0.004,0.005-0.009,0.224-0.013,0.224c-0.001,0-0.004,0-0.006,0c-0.003,0-0.007,0-0.01,0c-0.002,0-0.005,0-0.007,0
		c-0.004,0-0.005-0.214-0.009-0.212c-0.003,0.002-0.005-0.106-0.007-0.106c-0.004,0.001-0.007-0.051-0.01-0.049
		c-0.003,0-0.004-0.026-0.007-0.024c-0.003,0.001-0.005-0.012-0.008-0.011c-0.004,0.001-0.007-0.003-0.009-0.001
		c-0.003,0-0.007-0.001-0.008,0c-0.004,0.001-0.006,0-0.009,0.001c-0.002,0.001-0.004,0.001-0.005,0.001
		c-0.007,0.002-0.007,0.004-0.012,0.006c-0.002,0-0.003,0-0.005,0c-0.02,0.009-0.038,0.018-0.055,0.027h-0.001
		c-0.004,0.002-0.009,0.006-0.015,0.007c0,0,0,0,0,0.002c-0.006,0.002-0.009,0.003-0.014,0.005c0,0.001-0.002,0.001-0.002,0.001
		c-0.006,0.004-0.009,0.005-0.014,0.007c0,0-0.002,0.168-0.002,0.17c-0.002,0.003-0.004,0.174-0.01,0.174c0,0,0,0-0.003,0
		c-0.006,0-0.009-0.162-0.013-0.16L40.545,15.3c-0.006,0.003-0.01-0.037-0.015-0.034c-1.474,0.723-2.896,1.5-4.266,2.366
		c-0.002,0.002-0.002-0.009-0.002-0.009c-0.005,0.004-0.008,0-0.014,0.004c-0.005,0.002-0.008,0.001-0.015,0.005l0,0
		c-0.011,0.005-0.02,0.01-0.029,0.016c-0.024,0.016-0.045,0.029-0.07,0.044c-0.004,0.002-0.009,0.006-0.012,0.007
		c0,0.001-0.002-0.225-0.004-0.224c0,0.006-0.002-0.215-0.005-0.215c-0.002,0-0.004,0-0.005,0c-0.004,0-0.006,0.231-0.009,0.233
		c-0.002,0.002-0.005,0.116-0.005,0.116c-0.004,0.002-0.007,0.062-0.012,0.064c-0.001,0-0.003,0.031-0.005,0.032
		c-0.003,0.002-0.005,0.018-0.009,0.02c-0.002,0-0.003,0.009-0.005,0.009c-0.004,0.004-0.005,0.009-0.009,0.011
		c-0.002,0-0.003,0.003-0.005,0.005c-0.004,0.002-0.007,0.003-0.011,0.007c0,0,0,0,0,0.002c-0.017,0.009-0.038,0.021-0.053,0.034
		c0,0,0-0.271-0.002-0.27c-0.002,0.001-0.005-0.264-0.009-0.264c-0.002,0-0.002,0-0.003,0c-0.004,0-0.007,0.278-0.012,0.279
		c-0.001,0.001-0.003,0.139-0.005,0.141c-0.004,0.001-0.005,0.072-0.009,0.073c-0.002,0-0.003,0.036-0.005,0.036
		c-0.002,0-0.007,0.021-0.01,0.023c-0.001,0.002-0.003,0.011-0.004,0.011c-0.004,0.002-0.007,0.009-0.01,0.011
		c-0.002,0-0.005,0.003-0.007,0.005c-0.002,0.002-0.005,0.005-0.007,0.007c-0.004,0.002-0.005,0.003-0.009,0.005
		c-0.001,0.001-0.003,0.003-0.007,0.006c-0.002,0-0.005,0.003-0.008,0.005c-0.002,0.002-0.002,0.003-0.007,0.003
		c-0.003,0.003-0.004,0.005-0.009,0.007c-0.003,0.004-0.008,0.006-0.013,0.009c-0.003,0.002-0.005,0.003-0.009,0.005
		c-0.001,0.002-0.001,0.002-0.005,0.003c-0.002,0.002-0.005,0.003-0.01,0.007c0,0-0.003,0.002-0.005,0.003
		c-0.003,0.002-0.007,0.003-0.009,0.007c-0.001,0-0.005,0.001-0.007,0.004c-0.001,0.002-0.005,0.004-0.008,0.005
		c-0.002,0.002-0.004,0.003-0.006,0.005c-0.003,0.002-0.007,0.003-0.008,0.006c-0.004,0.002-0.004,0.002-0.006,0.003
		c-0.003,0.002-0.007,0.005-0.01,0.007c-0.002,0.002-0.002,0.002-0.005,0.004c-0.004,0.002-0.006,0.002-0.01,0.007
		c-0.002,0-0.005,0.002-0.005,0.003c-0.004,0.002-0.006,0.003-0.009,0.006c-0.002,0.001-0.005,0.003-0.007,0.005
		c-0.002,0.002-0.006,0.003-0.009,0.005c-0.002,0.002-0.004,0.003-0.006,0.003c-0.014,0.01-0.031,0.021-0.043,0.031h-0.002
		c-0.005,0.004-0.009,0.007-0.014,0.011h-0.002c-0.004,0.003-0.01,0.007-0.015,0.01c0,0,0-0.383-0.002-0.382
		c0.004,0-0.001-0.377-0.005-0.377c-0.001,0-0.001,0-0.003,0c-0.004,0-0.007,0.39-0.011,0.391c-0.002,0.002-0.003,0.193-0.003,0.196
		c-0.006,0.002-0.009,0.102-0.013,0.104c-0.001,0-0.001,0.048-0.001,0.048c-0.006,0.004-0.011,0.031-0.014,0.034l-0.002,0.012
		c-0.006,0.003-0.009,0.441-0.015,0.444c-0.026,0.018-0.05-1.229-0.074,0.486c-0.002,0-0.002,0-0.004,0
		c-0.003,0-0.007-0.422-0.012-0.421c0,0.002,0-0.214-0.002-0.212c-0.003,0.003-0.008-0.103-0.015-0.1v-0.051
		c-0.317,0.208-0.631,0.394-0.941,0.611l2.157,2.746C39.044,19.89,41.607,18.457,44.286,17.311z"/>
	<path fill="#3a93d0" d="M106.804,52.968c0,0,0-0.002,0-0.005c0-0.007,0-0.016,0-0.023c0-0.001,0-0.004,0-0.005c0-0.007,0-0.016,0-0.022
		c0-0.003,0-0.003,0-0.003c0-0.01,0-0.018,0-0.026c0-0.001,0-0.004,0-0.006c0-0.016,0-0.031,0-0.048c0-0.001,0-0.005,0-0.006
		c0-0.008,0-0.016,0-0.024c0-0.001,0-0.001,0-0.004c0-0.008,0-0.016,0-0.023c0,0,0-0.001,0-0.004c0-0.009,0-0.017,0-0.023
		c0-0.002,0-0.005,0-0.005c0-0.01,0-0.018,0-0.025c0-0.01,0-0.019,0-0.026c0-0.001,0-0.004,0-0.006c0-0.008,0-0.016,0-0.023
		c0-0.002,0-0.005,0-0.005c0-0.009,0-0.016,0-0.022c0-0.002,0-0.004,0-0.005c0-0.009,0-0.016,0-0.024c0-0.002,0-0.003,0-0.004
		c0-0.01,0-0.019,0-0.026c0-0.009,0-0.018,0-0.024c0-0.003,0-0.005,0-0.007c0-0.009,0-0.016,0-0.024c0-0.001,0-0.004,0-0.005
		c0-0.007,0-0.016,0-0.022c0-0.002,0-0.002,0-0.003c0-0.01,0-0.018,0-0.026c0-0.001,0-0.003,0-0.003c0-0.019,0-0.034,0-0.05
		c0-0.002,0-0.004,0-0.005c0-0.01,0-0.018,0-0.025c0-0.001,0-0.004,0-0.004c0-0.009,0-0.016,0-0.023c0-0.002,0-0.002,0-0.005
		c0-0.008,0-0.016,0-0.022c0-0.003,0-0.005,0-0.006c0-0.017,0-0.035,0-0.051c0-0.001,0-0.002,0-0.005c0-0.007,0-0.016,0-0.022
		c0-0.003,0-0.005,0-0.006c0-0.008,0-0.016,0-0.024c0,0,0,0,0-0.001c0-0.01,0-0.019,0-0.026c0-0.001,0-0.004,0-0.004
		c0-0.017,0-0.033,0-0.05c0,0,0-0.003,0-0.005c0-0.009,0-0.016,0-0.025c0-0.001,0-0.001,0-0.004c0-0.008,0-0.017,0-0.023
		c0-0.002,0,0,0-0.002c0-0.01,0-0.018,0-0.024v-0.007c0-0.017,0-0.034,0-0.049c0-0.002,0-0.002,0-0.004c0-0.01,0-0.017,0-0.025
		c0-0.002,0-0.002,0-0.004c0-0.008,0-0.018,0-0.025c0-0.003,0,0,0-0.003c0-0.007,0-0.016,0-0.025v-0.003c0-0.017,0-0.035,0-0.051
		c0-0.002,0,0,0-0.002c0-0.009,0-0.017,0-0.028c0,0,0,0,0-0.001c0-0.017,0-0.036,0-0.052V51.76c0-0.018,0-0.036,0-0.052v-0.004
		c0-0.008,0-0.017,0-0.025v0.016c0-0.019,0-0.036,0-0.054V51.64c0-0.02,0-0.036,0-0.053c0-0.011,0-0.02,0-0.028c0-0.002,0,0,0-0.002
		c0-0.018,0-0.036,0-0.053v-0.001c0-0.02,0-0.037,0-0.053c0-0.011,0-0.02,0-0.03c0-0.045-0.025-0.092-0.028-0.137
		c-0.062-1.262-0.191-2.512-0.365-3.746l-0.004-0.001c-0.002-0.017-0.008-0.036-0.012-0.051c0-0.001,0,0,0-0.001
		c0-0.009-0.005-0.018-0.007-0.026v-0.001c0-0.008-0.002-0.018-0.004-0.025v-0.002c0-0.008-0.003-0.018-0.003-0.025V47.4
		c-0.003-0.017-0.006-0.034-0.008-0.052c0-0.001,0,0,0-0.001c-0.001-0.008-0.004-0.017-0.004-0.026l-0.002-0.001
		c0-0.008-0.003-0.017-0.003-0.026l0.22-0.001c0-0.008,0.218-0.014,0.218-0.024c0-0.001,0-0.003,0-0.005c0-0.016,0-0.033,0-0.049
		v-0.002c0-0.009,0-0.017,0-0.024c0-0.001,0-0.004,0-0.006c0-0.006,0-0.013,0-0.021c0-0.001,0-0.002,0-0.004
		c0-0.009,0-0.016,0-0.024c0-0.001,0-0.003,0-0.004c0-0.01,0-0.016,0-0.024c0-0.001,0-0.001,0-0.003c0-0.007,0-0.013,0-0.021
		c0-0.002,0-0.005,0-0.007c0-0.007,0-0.013,0-0.023c0-0.001,0-0.002,0-0.006c0-0.005,0-0.012,0-0.02c0-0.001,0-0.001,0-0.005
		c0-0.007,0-0.016,0-0.022c0-0.004,0-0.005,0-0.006c0-0.007,0-0.014,0-0.02c0-0.002,0-0.007,0-0.01c0-0.005,0-0.011,0-0.017
		c0-0.001,0-0.005,0-0.009c0-0.007,0-0.013,0-0.02c0-0.004,0-0.007,0-0.009c0-0.004,0-0.011,0-0.016c0-0.003,0-0.007,0-0.011
		c0-0.005,0-0.012,0-0.019c0-0.002,0-0.007,0-0.01c0-0.005,0-0.011,0-0.016c0-0.003,0-0.008,0-0.013c0-0.006,0-0.009,0-0.014
		c0-0.002,0-0.005,0-0.011c0-0.006,0-0.012,0-0.018c0-0.005,0-0.007,0-0.01c0-0.006,0-0.01,0-0.014c0-0.004,0-0.011,0-0.016
		c0-0.004,0-0.009,0-0.013c0-0.005,0-0.01,0-0.012c0-0.003,0-0.008,0-0.013s0-0.011,0-0.017c0-0.004,0-0.006,0-0.011
		c0-0.004,0-0.009,0-0.013c0-0.002,0-0.007,0-0.009c0-0.007,0-0.016,0-0.021c0-0.003,0-0.006,0-0.01c0-0.008,0-0.016,0-0.024
		c0-0.001,0-0.002,0-0.007c0-0.004,0-0.007,0-0.013c0-0.001,0-0.002,0-0.004c0-0.009,0-0.02,0-0.028c0-0.002,0-0.002,0-0.005
		c0-0.018-0.281-0.031-0.283-0.047c-0.003,0-0.141-0.001-0.141-0.001c-0.009-0.067-0.092-0.134-0.104-0.199l-3.614,0.552
		c0.364,2.104,0.529,4.258,0.529,6.408c0,0.649-0.023,1.292-0.058,1.93l3.639,0.169c0.005-0.107,0.033-0.231,0.033-0.353
		c0-0.022,0-0.045,0-0.068c0,0,0,0,0-0.001c0-0.019,0-0.036,0-0.052l0,0c0-0.008,0-0.01,0-0.016c0-0.003,0-0.004,0-0.006
		c0-0.007,0-0.008,0-0.013c0-0.001,0-0.003,0-0.005c0-0.004,0-0.006,0-0.012c0,0,0-0.005,0-0.008c0-0.002,0-0.007,0-0.008
		c0-0.005,0-0.006,0-0.01c0-0.002,0-0.006,0-0.006c0-0.005,0-0.008,0-0.012s0-0.004,0-0.009c0-0.001,0-0.003,0-0.007
		s0-0.004,0-0.009c0-0.003,0-0.007,0-0.01s0-0.003,0-0.006s0-0.007,0-0.013c0,0,0-0.003,0-0.006s0-0.006,0-0.01
		c0-0.003,0-0.006,0-0.006c0-0.004,0-0.009,0-0.013c0-0.003,0-0.003,0-0.003c0-0.006,0-0.009,0-0.015c0-0.001,0-0.001,0-0.004
		c0-0.001,0-0.01,0-0.013L106.8,54.66c0.004-0.065,0.004-0.137,0.004-0.207c0-0.011,0-0.021,0-0.033h-0.008
		c0-0.098,0.004-0.195,0.008-0.294v-0.001c0-0.011,0-0.021,0-0.033c0-0.004,0-0.013,0-0.016c0-0.006,0-0.013,0-0.016
		c0-0.004,0-0.004,0-0.004c0-0.005,0-0.009,0-0.015c0-0.002,0,0,0-0.002c0-0.005,0-0.011,0-0.016v0.002c0-0.006,0-0.009,0-0.016
		l-0.004-0.002c0.004-0.047,0.004-0.094,0.004-0.141v-0.004c0-0.003,0-0.009,0-0.016c0,0,0,0,0-0.002c0-0.004,0-0.01,0-0.014
		c0-0.002,0-0.002,0-0.002c0-0.006,0-0.01,0-0.013s0-0.005,0-0.005c0-0.004,0-0.008,0-0.014c0,0,0-0.002,0-0.006
		c0-0.003,0-0.007,0-0.012v-0.004c0-0.004,0-0.007,0-0.012c0-0.004,0-0.002,0-0.006c0-0.002,0-0.005,0-0.012
		c0-0.002,0-0.002,0-0.006c0-0.005,0-0.006,0-0.01s0-0.006,0-0.006c0-0.005,0-0.008,0-0.012c0,0,0-0.004,0-0.009
		c0-0.001,0-0.006,0-0.011c0,0,0-0.002,0-0.005s0-0.007,0-0.011c0,0,0-0.005,0-0.006c0-0.003,0-0.007,0-0.01
		c0-0.005,0-0.006,0-0.007c0-0.004,0-0.01,0-0.012c0-0.003,0-0.003,0-0.004c0-0.005,0-0.01,0-0.015c0,0,0-0.001,0-0.002
		c0-0.02,0-0.038,0-0.057c0-0.002,0-0.005,0-0.006c0-0.005,0-0.009,0-0.012s0-0.003,0-0.005c0-0.004,0-0.008,0-0.011
		c0-0.004,0-0.005,0-0.009c0-0.001,0-0.005,0-0.006c0-0.005,0-0.007,0-0.011c0-0.003,0-0.005,0-0.007c0-0.003,0-0.008,0-0.01
		c0-0.004,0-0.006,0-0.009c0-0.002,0-0.006,0-0.01c0-0.002,0-0.005,0-0.008c0-0.004,0-0.005,0-0.009s0-0.006,0-0.009
		s0-0.005,0-0.008c0-0.005,0-0.005,0-0.01c0-0.002,0-0.006,0-0.009c0-0.002,0-0.005,0-0.007c0-0.005,0-0.007,0-0.01
		c0-0.004,0-0.007,0-0.008c0-0.004,0-0.008,0-0.01c0-0.003,0-0.006,0-0.008c0-0.003,0-0.007,0-0.011c0-0.002,0-0.005,0-0.007
		c0-0.003,0-0.006,0-0.01c0-0.001,0-0.006,0-0.007c0-0.005,0-0.008,0-0.011s0-0.005,0-0.009c0-0.002,0-0.005,0-0.01
		c0-0.002,0-0.003,0-0.007s0-0.006,0-0.011c0-0.001,0-0.003,0-0.006c0-0.004,0-0.008,0-0.013c0-0.002,0-0.003,0-0.005
		c0-0.006,0-0.013,0-0.018c0-0.009,0-0.017,0-0.025c0-0.002,0-0.003,0-0.005c0-0.008,0-0.018,0-0.025V53.2c0-0.007,0-0.016,0-0.022
		v-0.004c0-0.008,0-0.016,0-0.025c0-0.002,0-0.003,0-0.005c0-0.019,0-0.034,0-0.05c0,0,0-0.003,0-0.006c0-0.008,0-0.016,0-0.023
		c0-0.003,0-0.003,0-0.005c0-0.008,0-0.014,0-0.023c0-0.001,0-0.001,0-0.005c0-0.006,0-0.015,0-0.023c0-0.001,0-0.004,0-0.005
		C106.804,53.003,106.804,52.986,106.804,52.968z"/>
	<path fill="#3a93d0" d="M87.491,84.095l2.264,2.677c2.057-1.552,3.965-3.271,5.708-5.134c0.107-0.113,0.212-0.231,0.318-0.349
		c0.004-0.004,0.068-0.008,0.073-0.014c0.001-0.006,0.063-0.01,0.063-0.013v-0.005c0-0.004-0.046-0.007-0.041-0.011
		c0.028-0.032,0.028-0.063,0.054-0.095c0-0.002-0.013,0-0.013-0.002c0.005-0.002,0-0.008,0.005-0.012h-0.005
		c0.005-0.002,0.008-0.01,0.013-0.012v-0.003c0.006-0.007,0.013-0.017,0.021-0.024l0.003-0.002c0.016-0.018,0.032-0.035,0.046-0.053
		l0,0c0.005-0.006,0.009-0.011,0.014-0.014c0.004-0.004,0.007-0.008,0.012-0.014c0,0,0,0,0.003-0.002
		c0.001-0.004,0.006-0.008,0.01-0.013v-0.001c0.005-0.005,0.008-0.006,0.013-0.012c0,0,0,0,0-0.003
		c0.024-0.026,0.047-0.054,0.074-0.081c0.002-0.003-0.107-0.009-0.104-0.013c0.005-0.003-0.103-0.006-0.103-0.007v-0.005
		c0-0.003,0.12-0.007,0.125-0.011h-0.067c0.005-0.006-0.058-0.011-0.058-0.012c0-0.005,0-0.005,0-0.005
		c0-0.004,0.134-0.01,0.139-0.011c0.001-0.006,0.068-0.01,0.072-0.016c0.002,0,0.033,0,0.033,0c0.016-0.019,0.05-0.037,0.066-0.056
		h0.009c0.003-0.003,0.012-0.007,0.017-0.012c0.004-0.007,0.007-0.01,0.012-0.016l0,0c0.004-0.004,0.011-0.007,0.015-0.012
		c0.002,0,0,0,0.002-0.004c0.004-0.004,0.006-0.006,0.01-0.012c0,0,0,0,0.003,0c0.003-0.004,0.008-0.01,0.011-0.014v-0.002
		c0.018-0.021,0.038-0.042,0.06-0.066l0,0c0.004-0.003,0.009-0.01,0.01-0.013c0.002-0.003,0.002,0,0.002-0.003
		c0.004-0.003,0.009-0.008,0.013-0.012l0,0c0.005-0.007,0.008-0.01,0.013-0.016c0.029-0.031,0.055-0.062,0.083-0.096
		c0,0,0,0,0-0.002c0.004-0.004,0.009-0.008,0.012-0.012H96.5c0.001-0.004,0.006-0.008,0.008-0.015c0.002,0,0.002,0,0.002-0.001
		c0.005-0.005,0.008-0.008,0.013-0.012c0-0.003,0,0,0-0.003c0.004-0.006,0.009-0.007,0.012-0.013l0,0
		c0.018-0.02,0.031-0.035,0.046-0.053v-0.003l-2.806-2.171C91.903,80.378,89.792,82.354,87.491,84.095z"/>
	<path fill="#3a93d0" d="M98.604,71.237l3.231,1.564c0.949-1.756,1.777-3.584,2.469-5.468c0.004-0.005,0.004-0.01,0.006-0.016
		c0.02-0.045,0.037-0.092,0.052-0.139l0.311-0.002c0.004-0.006,0.317-0.01,0.317-0.014c0-0.002,0-0.002,0-0.004
		c0-0.004,0-0.008,0-0.012c0,0,0,0,0-0.004s-0.305-0.008-0.3-0.011l0.148-0.005c0-0.004,0.151-0.008,0.151-0.011
		c0-0.005,0-0.005,0-0.005c0-0.007-0.297-0.008-0.297-0.014l-0.148-0.002c0-0.004-0.072-0.008-0.072-0.014l0.25-0.002
		c0.005-0.018,0.268-0.039,0.268-0.057c0-0.003,0-0.003,0-0.003c0-0.003,0-0.009,0-0.013c0-0.003,0-0.003,0-0.003
		c0-0.003,0-0.009,0-0.012c0-0.004,0-0.004,0-0.007s0-0.006,0-0.012c0,0,0,0,0-0.002c0-0.006,0-0.006,0-0.014c0,0,0-0.003,0-0.004
		c0-0.004,0-0.009,0-0.01c0-0.002,0-0.005,0-0.009c0-0.001,0-0.006,0-0.009s0-0.004,0-0.004c0-0.004-0.266-0.01-0.266-0.012
		c0.003-0.003,0.131-0.004,0.132-0.009c0-0.001,0.131-0.004,0.131-0.007c0-0.004,0-0.009,0-0.009c0-0.004,0-0.005,0-0.011
		c0,0,0-0.003,0-0.005c0-0.004,0-0.007,0-0.011c0,0,0,0,0-0.002c0-0.014,0-0.028,0-0.04c0-0.001,0-0.004,0-0.005
		c0-0.005,0-0.009,0-0.011c0-0.001,0-0.004,0-0.006c0-0.004,0-0.005,0-0.01c0-0.004,0-0.006,0-0.006c0-0.004,0-0.005,0-0.01
		c0-0.001,0-0.006,0-0.01c0-0.002,0-0.003,0-0.006c0-0.001,0-0.006,0-0.01c0-0.003,0-0.003,0-0.007c0-0.005,0-0.006,0-0.011
		c0-0.001,0-0.005,0-0.005c0-0.005,0-0.009,0-0.012c0,0,0-0.005,0-0.007c0-0.003,0-0.006,0-0.009c0.003,0,0-0.007,0-0.009
		c0,0,0-0.004,0-0.007s0-0.007,0-0.009c0.003-0.004,0-0.006,0-0.01c0-0.002,0-0.006,0-0.006c0-0.006-0.217-0.012-0.215-0.016
		l-0.107,0.004c0-0.004-0.055-0.01-0.052-0.016c0.002,0-0.026,0-0.026-0.004c0.004-0.004-0.011-0.009-0.009-0.016h0.203
		c0.001-0.006,0.209-0.012,0.209-0.013c0-0.005,0-0.005,0-0.007c0-0.004,0-0.008,0-0.012c0-0.002,0-0.004,0-0.004
		c0-0.004,0-0.011,0-0.012c0-0.004,0-0.004,0-0.008c0-0.002,0-0.008,0-0.011s0,0,0-0.005c0-0.004,0-0.008,0-0.011s0-0.003,0-0.007
		c0-0.002,0-0.008,0-0.012c0-0.002,0-0.004,0-0.004c0-0.006,0-0.011,0-0.014v-0.004c0-0.004,0-0.01,0-0.012v-0.004
		c0-0.035-0.168-0.067-0.156-0.104c0.005-0.005-0.089-0.01-0.089-0.017c0.003-0.004-0.043-0.012-0.038-0.016
		c0-0.006-0.023-0.012-0.021-0.019h-0.009c0.22-0.658,0.419-1.322,0.608-1.993l-3.51-0.882
		C101.02,66.14,99.951,68.756,98.604,71.237z"/>
	<path fill="#3a93d0" d="M35.923,88.71c1.55,1.002,3.17,1.912,4.852,2.729c0,0,0,0,0.002,0c0.005,0.004,0.01,0.004,0.015,0.007c0,0,0,0,0.002,0
		c0.003,0.003,0.007,0.005,0.013,0.009c0.002,0,0.002,0,0.002,0c0.005,0.002,0.01,0.004,0.014,0.007
		c0.046,0.021,0.093,0.043,0.138,0.065c0.005,0.004,0.01,0.006,0.015,0.009c0.001,0,0.001,0,0.001,0c0.005,0,0.01,0.005,0.015,0.007
		h0.002c0.005,0.004,0.008,0.006,0.014,0.006v0.003c0.005,0,0.01,0.003,0.016,0.007c0.031,0.016,0.06,0.029,0.091,0.043h0.002
		c0.004,0.002,0.009,0.006,0.014,0.006c0,0,0-0.305,0.002-0.305c0,0.001,0.003-0.304,0.008-0.304c0.002,0,0.002,0,0.004,0
		c0.003,0,0.007,0,0.012,0c0,0,0.002,0,0.004,0c0.003,0,0.007,0,0.01,0c0.002,0,0.004,0,0.006,0c0.003,0,0.007,0,0.011,0
		c0.002,0,0.004,0,0.004,0c0.003,0,0.008,0,0.013,0c0.002,0,0.002,0,0.003,0c0.024,0,0.048,0.347,0.072,0.357l0.002-0.18
		c0.004,0,0.008-0.178,0.011-0.178c0.001,0,0.004,0,0.007,0c0.004,0,0.005,0.348,0.011,0.348c0,0.005,0.002-0.175,0.004-0.174
		c0,0.004,0.003-0.174,0.007-0.174c0.001,0,0.003,0,0.007,0c0.001,0,0.007,0.357,0.009,0.357c0.001,0,0.003-0.18,0.005-0.18
		c0.003,0,0.007-0.178,0.01-0.178c0.002,0,0.004,0,0.006,0c0.003,0,0.008,0,0.013,0c0,0,0.002,0,0.003,0c0.004,0,0.007,0,0.011,0
		c0.002,0,0.003,0,0.005,0c0.004,0,0.007,0,0.012,0c0.001,0,0.001,0,0.003,0c0.013,0,0.026,0.382,0.039,0.388
		c0.003,0.002,0.004,0.189,0.007,0.189c0.004,0,0.005,0.096,0.009,0.098c0.001,0,0.005,0.048,0.008,0.048
		c0.003,0.001,0.005,0.026,0.01,0.026c0.001,0.002,0.004,0.014,0.006,0.016c0.003,0.002,0.005,0.012,0.01,0.012
		c0.002,0,0.004,0.005,0.005,0.006c0.004,0,0.007,0.003,0.009,0.006c0.004,0,0.005,0.003,0.008,0.004
		c0.004,0.002,0.007,0.005,0.012,0.006c0,0,0.003,0.003,0.007,0.003c0.001,0,0.005,0.003,0.007,0.003
		c0.003,0.003,0.005-0.403,0.007-0.4c0-0.003,0-0.403,0.005-0.403c0.002,0,0.003,0,0.005,0c0.004,0,0.007,0,0.011,0
		c0.001,0,0.003,0,0.005,0c0.018,0,0.036,0,0.053,0c0.002,0,0.003,0,0.005,0c0.004,0,0.005,0.425,0.01,0.429
		c0.003,0,0.005,0.213,0.007,0.215c0.003,0.002,0.004,0.105,0.009,0.107c0.001,0.003,0.005,0.056,0.007,0.056
		c0.003,0.001,0.007,0.031,0.008,0.032c0.002,0,0.006,0.016,0.007,0.016c0.002,0,0.007,0.011,0.009,0.012
		c0.004,0,0.005,0.009,0.007,0.009c0.004,0,0.007,0.003,0.009,0.006c0.003,0,0.005,0.001,0.007,0.006c0.004,0,0.007,0,0.01,0.001
		c0.003,0.003,0.005,0.003,0.009,0.004c0.001,0.002,0.006,0.002,0.007,0.002c0.004,0.004,0.006,0.004,0.009,0.004
		c0.004,0.005,0.006,0.005,0.01,0.006c0.002,0.003,0.004,0.003,0.007,0.004c0.002,0.002,0.005,0.399,0.009,0.402
		c0.002,0.003,0.007,0.406,0.013,0.406c0,0,0.002,0,0.004,0c0.003,0,0.008-0.396,0.013-0.394c0.001,0,0.003-0.198,0.007-0.195
		c0.003,0.002,0.005-0.098,0.009-0.098c0.003,0.002,0.003-0.045,0.008-0.043c0.002,0,0.006-0.024,0.007-0.021
		c0.002,0,0.006-0.012,0.007-0.012c0.004,0.003,0.007-0.003,0.01,0c0.004,0,0.005,0,0.009,0c0.002,0,0.005,0,0.009,0.003
		c0,0,0.005,0,0.007,0c0.003,0,0.005,0.003,0.007,0.004c0.003,0,0.007,0.005,0.009,0.005c0.003,0,0.005,0.004,0.008,0.004
		c0.002,0,0.007,0.003,0.007,0.003c0.004,0,0.007,0.003,0.01,0.005c0.001,0,0.005,0.001,0.009,0.004c0.002,0,0.005,0,0.007,0.004
		c0.003,0,0.005,0.002,0.01,0.002c0.001,0.001,0.004,0.004,0.007,0.006c0.005,0,0.009,0.359,0.015,0.361
		c0,0.003,0.003,0.362,0.007,0.362c0.001,0,0.003,0,0.005,0c0.003,0,0.007-0.353,0.01-0.353C41.998,92.367,42,92.188,42,92.188
		c0.004,0.003,0.007-0.086,0.01-0.083c0.003,0,0.005-0.044,0.009-0.04c0.002,0,0.005-0.022,0.007-0.021
		c0.004,0.002,0.005,0.333,0.01,0.334c0,0.005,0.003,0.337,0.007,0.337c0.001,0,0.003,0,0.007,0c0.003,0,0.005-0.338,0.009-0.335
		c0.001,0,0.005-0.17,0.006-0.168c0.004,0.002,0.006-0.084,0.009-0.082c0.002,0.002,0.006-0.041,0.009-0.041
		c0.002,0.003,0.005-0.016,0.007-0.016c0.004,0.002,0.005-0.009,0.009-0.009c0.003,0,0.005-0.004,0.009,0c0.001,0,0.005,0,0.007,0
		c0.001,0.003,0.005,0,0.008,0.003c0.002,0.002,0.006,0.002,0.007,0.002l0.002,0.001c0.009,0.005,0.017,0.006,0.025,0.011
		c0.001,0.002,0.004,0.317,0.005,0.317c0,0,0.003,0.316,0.007,0.316c0.002,0,0.004,0,0.005,0c0.004,0,0.007,0,0.012,0
		c0.001,0,0.003,0,0.004,0c0.006,0,0.007-0.306,0.012-0.306c0.001,0.005,0.003-0.152,0.006-0.147c0.002,0,0.006-0.077,0.009-0.074
		c0.002,0,0.006,0.259,0.007,0.261c0.002,0,0.006,0.267,0.007,0.267c0.002,0,0.007,0,0.007,0c0.004,0,0.007-0.295,0.01-0.294
		c0.004,0,0.005-0.144,0.009-0.144c0.002,0.001,0.005-0.074,0.007-0.071c0.003,0,0.007-0.034,0.011-0.034
		c0.002,0,0.004-0.019,0.006-0.018c0.003,0.003,0.007-0.003,0.01-0.003c0.002,0.002,0.004-0.004,0.007,0c0.005,0,0.01,0,0.014,0.002
		l0.002,0.276c0.004,0.003,0.009,0.285,0.015,0.285c0.002,0,0.004,0,0.005,0c0.004,0,0.007,0,0.011,0c0.003,0,0.003,0,0.005,0
		c0.003,0,0.007-0.269,0.013-0.269c0,0,0.006-0.135,0.006-0.131c0.003,0,0.007-0.066,0.011-0.064
		c0.002,0.002,0.004-0.032,0.007-0.032c0.002,0.001,0.005-0.013,0.009-0.013c0.003,0,0.006-0.006,0.007-0.006
		c0.003,0.003,0.007,0,0.01,0.003c0.003,0,0.005-0.003,0.008,0c0.002,0,0.006,0,0.008,0.003c0.003,0,0.007,0,0.009,0
		c0.004,0.001,0.005,0.001,0.01,0.004c0.003,0.002,0.003,0.251,0.007,0.251c0.003,0,0.003,0.254,0.005,0.254
		c0.004,0,0.005,0,0.007,0c0.004,0,0.007-0.247,0.012-0.242c0.003,0,0.003,0.116,0.007,0.116c0.005,0.005,0.011,0.126,0.016,0.126
		h0.004c0.005,0,0.01-0.235,0.013-0.235c0.001,0.004,0.004-0.117,0.006-0.115c0.003,0.003,0.007-0.055,0.01-0.055
		c0.002,0.002,0.005-0.027,0.008-0.027c0.003,0.002,0.007-0.014,0.011-0.01c0.001,0,0.003-0.008,0.008-0.006
		c0,0,0.005-0.002,0.008,0c0.002,0.002,0.007,0,0.007,0.002c0.004,0,0.006,0,0.009,0.004c0.004,0,0.005,0.217,0.007,0.22
		c0.004,0,0.007,0.223,0.012,0.223c0.001,0,0.003,0,0.007,0c0.002,0,0.005-0.216,0.008-0.211c0.002,0,0.006-0.105,0.009-0.105
		c0.003,0,0.004-0.056,0.008-0.053c0.004,0.001,0.006,0.181,0.008,0.184c0,0.004,0.003,0.186,0.007,0.186c0.004,0,0.004,0,0.006,0
		c0.005,0,0.008,0,0.014,0c0,0,0.001,0,0.003,0c0.005,0,0.012,0,0.017,0c0.003,0,0.005,0,0.007,0c0.003,0,0.006-0.195,0.009-0.191
		c0.001,0,0.005-0.099,0.008-0.099c0.002,0.005,0.007-0.045,0.007-0.045c0.004,0.003,0.006-0.021,0.01-0.021
		c0.001,0.003,0.004-0.012,0.009-0.01c0.002,0.002,0.005-0.003,0.007-0.002c0.003,0.002,0.007,0,0.009,0
		c0.003,0.002,0.005,0.002,0.009,0.002c0.001,0.002,0.006,0.002,0.008,0.004c0.003,0,0.005,0.003,0.008,0.003
		c0.002,0,0.006,0.003,0.009,0.003c0.002,0,0.005,0.003,0.007,0.004c0.004,0,0.007,0.002,0.009,0.005
		c0.002,0,0.007,0.004,0.007,0.004c0.004,0,0.008,0.003,0.011,0.003c0.002,0,0.004,0.003,0.007,0.003
		c0.002,0.001,0.006,0.003,0.007,0.003c0.004,0.003,0.007,0.003,0.009,0.003c0.004,0.004,0.005,0.004,0.007,0.004
		c0.005,0.003,0.013,0.164,0.019,0.164c-0.003,0.004,0,0.164,0.001,0.164c0.004,0,0.006,0,0.009,0c0.002,0,0.005-0.154,0.009-0.152
		c0.002,0,0.003-0.079,0.007-0.076c0.004,0,0.005-0.038,0.009-0.038c0.003,0.004,0.005-0.016,0.007-0.013
		c0.003,0.001,0.007-0.011,0.008-0.006c0.004,0,0.006-0.005,0.009-0.005c0.002,0.005,0.006,0,0.009,0
		c0.002,0.005,0.005,0.005,0.007,0.005c0.004,0.001,0.005,0.001,0.009,0.003c0.003,0,0.006,0.003,0.007,0.004
		c0.004,0,0.007,0,0.01,0.004c0.003,0,0.005,0,0.008,0.002c0.002,0,0.006,0.003,0.007,0.004c0.004,0.002,0.006,0.002,0.009,0.002
		c0.004,0.004,0.005,0.004,0.009,0.004c0.002,0.005,0.006,0.13,0.009,0.131c0.004,0,0.007,0.132,0.009,0.132
		c0.003,0,0.003,0,0.008,0c0.003,0,0.008-0.121,0.014-0.12c0.004,0.003,0.006-0.06,0.011-0.056c0.001,0,0.005,0.086,0.007,0.086
		c-0.002,0,0,0.09,0.002,0.09c0.005,0,0.006,0,0.008,0c0.004,0,0.007-0.111,0.008-0.111c0.005,0.001,0.006,0.054,0.01,0.057
		c0.002,0,0.005,0.055,0.01,0.055c0.001,0,0.002,0,0.007,0c0.001,0,0.007-0.105,0.008-0.105c0.003,0.001,0.006-0.053,0.007-0.049
		c0.001,0,0.007-0.027,0.011-0.025c0.002,0,0.003-0.012,0.004-0.012c0.005,0,0.007-0.004,0.012-0.004c0.002,0.004,0.002,0,0.007,0
		c0.002,0.004,0.005,0,0.009,0.004c0,0,0.002,0.094,0.005,0.094c0.004,0.003,0.005,0.098,0.011,0.098c0,0,0.001,0,0.004,0
		c0.019,0,0.038-0.076,0.058-0.067c0,0,0,0.031,0.002,0.031c0.003,0,0.007,0.036,0.011,0.036c0.001,0,0.003,0,0.006,0
		s0.005-0.074,0.01-0.07c0.002,0,0.005-0.035,0.007-0.035c0.002,0,0.007-0.021,0.009-0.021c0.002,0.005,0.004-0.006,0.007-0.003
		c0.002,0,0.007-0.003,0.011-0.003c0.002,0.003,0.003-0.001,0.006,0c0.004,0,0.007,0.003,0.011,0.005
		c0.001,0.001,0.004,0,0.005,0.001c0.004,0,0.009,0,0.011,0.005c0.002,0,0.004,0,0.006,0.001c0.006,0.003,0.007,0.003,0.012,0.004
		c0,0.003,0.002,0.003,0.002,0.003c0.006,0,0.011,0.043,0.015,0.046c0.017,0.01,0.036,0.067,0.056,0.067c0.001,0,0.001,0,0.004,0
		c0.003,0,0.009,0,0.012,0c0,0,0.002,0,0.005,0s0.007,0,0.01,0c0.005,0,0.007,0,0.007,0c0.002,0,0.007,0,0.012,0
		c0.002,0,0.003,0,0.005,0c0.002,0,0.007,0,0.012,0c0.001,0,0.002,0,0.005,0c0.004,0,0.007,0,0.011,0c0.001,0,0.004,0,0.006,0
		s0.007,0,0.012,0c0,0,0.002,0,0.005,0s0.007-0.018,0.012-0.016l0.002-0.012c0.024,0.012,0.05,0.02,0.075,0.027l0.001-0.002
		c0.002,0.002,0.007,0.002,0.011,0.002c0,0,0.002,0,0.003,0c0.005,0,0.007,0,0.011,0c0.002,0,0.003,0,0.006,0
		c0.005,0,0.007,0,0.012,0c0,0,0.002,0,0.005,0c0.005,0,0.007,0,0.012,0c0.002,0,0.002,0,0.003,0c0.004,0,0.01,0,0.013,0
		c0.001,0,0.001,0,0.004,0c0.003,0,0.008,0,0.012,0c0.002,0,0.004,0,0.004,0c0.02,0,0.04,0.033,0.06,0.041c0,0,0,0.007,0.001,0.007
		c0.006,0.005,0.01-0.024,0.014-0.022c0.007,0.001,0.01-0.025,0.015-0.025c0,0,0,0,0.002,0c0.006,0,0.007,0,0.013,0
		c0.001,0,0.001,0,0.003,0c0.004,0,0.01,0,0.012,0s0.005,0,0.005,0c0.004,0,0.009,0.047,0.014,0.047l0.002-0.027
		c0.002,0.004,0.007-0.02,0.012-0.02h0.002c0.004,0,0.009,0,0.014,0c0.001,0,0.001,0,0.002,0c0.005,0,0.01,0.055,0.013,0.055
		c0.001,0,0.001-0.044,0.001-0.044c0.031,0.013,0.06-0.011,0.094-0.011c0.001,0,0.001,0,0.004,0c0.004,0,0.008,0.076,0.014,0.079
		c0,0,0,0.038,0.001,0.038c0.006,0.002,0.009,0.023,0.014,0.023l0.002,0.012c0.005,0,0.008,0.008,0.014,0.01
		c0,0,0,0.003,0.001,0.003c0.006,0.003,0.01,0.007,0.014,0.007c0.099,0.04,0.195,0.078,0.293,0.115l1.368-3.18
		c-2.726-1.046-5.341-2.374-7.777-3.945L35.923,88.71z"/>
	<path fill="#3a93d0" d="M61.451,92.715c-2.428,0-4.858,0.121-7.225-0.27l-0.624,3.699c0.003,0,0.008,0,0.013,0l0.001-0.003
		c0.006,0.003,0.011,0.003,0.014,0.003s0.006,0,0.008,0s0.006,0,0.009,0c0.003,0,0.006,0,0.008,0c0.003,0,0.003,0,0.007,0
		c0.005,0,0.007,0,0.012,0c0,0,0.002,0,0.005,0c0.003,0,0.007,0,0.011,0c0.001,0,0.001,0,0.003,0c0.018,0,0.039,0,0.054,0h0.003
		c0.004,0,0.007,0,0.013,0.002c0.002,0,0-0.002,0.002-0.002c0.005,0,0.009,0,0.012,0h0.003c0.006,0,0.008,0,0.015,0
		c0.025,0,0.049-0.296,0.074-0.292c1.827,0.288,3.688,0.325,5.583,0.403l0.002-0.059c0.036,0,0.069-0.053,0.108-0.053
		c0.005,0,0.011,0,0.014,0c0.002,0,0-0.019,0.002-0.019c0.03,0,0.062-0.007,0.093-0.007l0.001-0.003c0.031,0,0.06,0.015,0.09,0.015
		v0.014c0.005,0,0.007,0,0.015,0l0,0c0.007,0,0.01,0,0.016,0c0.001,0,0.001,0,0.003,0c0.004,0,0.01,0,0.012,0
		c0.017,0,0.031,0,0.045,0h0.002c0.003,0,0.01,0,0.012,0s0.002,0,0.005,0c0.002,0,0.007,0,0.012,0c0.002,0,0.002,0,0.005,0
		c0.005,0,0.007,0,0.012,0c0.001,0,0.003,0,0.004,0c0.004,0,0.007,0,0.011,0h0.004c0.01,0,0.017,0,0.025,0c0.002,0,0.002,0,0.004,0
		c0.005,0,0.007,0,0.011,0c0.002,0,0.006,0,0.008,0c0.004,0,0.006,0,0.011,0c0.001,0,0.004,0,0.005,0c0.004,0,0.007,0,0.011,0
		c0.004,0,0.004,0,0.006,0c0.004,0,0.008,0,0.012,0c0,0,0.003,0,0.004,0c0.021,0,0.039,0,0.055,0c0.002,0,0.004,0,0.006,0
		c0.004,0,0.008,0,0.011,0c0.002,0,0.005,0,0.007,0c0.005,0,0.008,0,0.012,0c0,0,0,0,0.006,0c0.003,0,0.006,0,0.01,0
		c0.002,0,0.004,0,0.006,0c0.003,0,0.008,0,0.013,0h0.003c0.009,0,0.016,0,0.028,0c0.003,0,0.007,0,0.011,0c0.001,0,0.006,0,0.007,0
		c0.004,0,0.007,0,0.009,0c0.005,0,0.006,0,0.01,0c0.002,0,0.004,0,0.01,0c0.002,0,0.002,0,0.007,0c0.003,0,0.007,0,0.009,0
		s0.006,0,0.007,0c0.003,0,0.009,0,0.011,0h0.004c0.014,0,0.027,0,0.038,0c0.003,0,0.006,0,0.007,0c0.004,0,0.008,0,0.012,0
		c0,0,0.003,0,0.006,0s0.007,0,0.01,0c0.002,0,0.004,0,0.008,0s0.005,0,0.008,0s0.006,0,0.008,0c0.005,0,0.008,0,0.012,0
		c0.002,0,0.002,0,0.005,0c0.005,0,0.013,0,0.02,0c0.002,0,0.005,0,0.009,0c0.003,0,0.004,0,0.008,0c0.002,0,0.008,0,0.01,0
		s0.005,0,0.007,0c0.004,0,0.005,0,0.01,0c0.003,0,0.005,0,0.009,0s0.006,0,0.008,0s0.006,0,0.008,0c0.004,0,0.007,0,0.012,0
		c0.002,0,0.005,0,0.008,0c0.006,0,0.009,0,0.016,0c0,0,0.003,0,0.006,0c0.004,0,0.007,0,0.012,0c0.002,0,0.006,0,0.007,0
		c0.005,0,0.007,0,0.013,0c0.002,0,0.002,0,0.006,0c0.003,0,0.006,0,0.01,0c0,0,0.006,0,0.008,0s0.008,0,0.01,0s0.006,0,0.007,0
		c0.005,0,0.007,0,0.013,0c0,0,0.004,0,0.007,0c0.005,0,0.009,0,0.016,0c0.001,0,0.003,0,0.006,0s0.007,0,0.012,0
		c0.003,0,0.004,0,0.007,0c0.004,0,0.008,0,0.01,0c0.004,0,0.006,0,0.008,0c0.004,0,0.007,0,0.011,0c0.003,0,0.006,0,0.007,0
		c0.004,0,0.009,0,0.012,0c0.002,0,0.006,0,0.006,0c0.004,0,0.008,0,0.014,0h0.004c0.012,0,0.021,0,0.033,0c0.004,0,0.006,0,0.01,0
		c0.002,0,0.008,0,0.008,0c0.006,0,0.007,0,0.008,0c0.005,0,0.008,0,0.012,0c0.002,0,0.006,0,0.008,0s0.007,0,0.01,0
		c0.002,0,0.006,0,0.008,0c0.004,0,0.006,0,0.012,0c0.002,0,0.003,0,0.004,0c0.008,0,0.012,0,0.02,0c0.001,0,0.001,0,0.002,0
		c0.005,0,0.01,0,0.015,0c0.003,0,0.005,0,0.007,0c0.003,0,0.008,0,0.01,0s0.005,0,0.008,0c0.004,0,0.007,0,0.01,0
		c0.002,0,0.007,0,0.01,0c0.002,0,0.006,0,0.009,0s0.005,0,0.007,0c0.006,0,0.008,0,0.014,0c0,0,0.002,0,0.004,0
		c0.007,0,0.011,0,0.018,0c0.002,0,0.002,0,0.004,0c0.006,0,0.01,0,0.014,0c0,0,0.004,0,0.006,0c0.004,0,0.01,0,0.012,0
		c0.001,0,0.004,0,0.007,0s0.007,0,0.011,0c0.002,0,0.004,0,0.006,0c0.004,0,0.012,0,0.012,0c0.003,0,0.004,0,0.007,0
		c0.005,0,0.009,0,0.015,0c0.001,0,0.001,0,0.003,0c0.005,0,0.011,0,0.019,0c0,0,0.001,0,0.004,0c0.006,0,0.008,0,0.013,0
		c0.001,0,0.005,0,0.007,0s0.009,0,0.01,0c0.002,0,0.005,0,0.008,0c0.002,0,0.008,0,0.012,0c0.001,0,0.002,0,0.007,0
		c0.001,0,0.01,0,0.01,0c0.003,0,0.005,0,0.007,0c0.006,0,0.009,0,0.015,0c0.001,0,0.001,0,0.003,0c0.007,0,0.012,0,0.019,0
		c0.001,0,0.003,0,0.005,0s0.008,0,0.012,0c0,0,0.006,0,0.008,0s0.007,0,0.01,0c0.002,0,0.004,0,0.007,0s0.007,0,0.013,0
		c0,0,0.002,0,0.004,0c0.005,0,0.01,0,0.015,0h0.003c0.009,0,0.012,0,0.016,0h0.003c0.005,0,0.011,0,0.019,0c0,0,0.002,0,0.003,0
		c0.007,0,0.01,0,0.013,0c0.002,0,0.007,0,0.008,0c0.002,0,0.008,0,0.011,0s0.005,0,0.007,0c0.003,0,0.008,0,0.012,0
		c0.002,0,0.004,0,0.007,0s0.007,0,0.011,0c0.002,0,0.004,0,0.006,0c0.005,0,0.011,0,0.015,0c0.001,0,0.003,0,0.003,0
		c0.008,0,0.012,0,0.019,0c0.003,0,0.003,0,0.006,0c0.004,0,0.007,0,0.011,0c0.002,0,0.005,0,0.008,0c0.002,0,0.007,0,0.01,0
		c0.002,0,0.006,0,0.008,0c0.004,0,0.008,0,0.011,0s0.004,0,0.007,0s0.01,0,0.012,0c0.001,0,0.003,0,0.006,0
		c0.007,0,0.012,0,0.017,0c0.009,0,0.017,0,0.026,0c0.002,0,0.002,0,0.005,0c0.007,0,0.017,0,0.024,0h0.002c0.008,0,0.016,0,0.023,0
		c0,0,0.006,0,0.008,0c0.007,0,0.014,0,0.021,0c0.001,0,0.001,0,0.002,0c0.008,0,0.018,0,0.024,0c0.003,0,0.003,0,0.005,0
		c0.008,0,0.014,0,0.023,0c0,0,0,0,0.003,0c0.009,0,0.016,0,0.025,0c0.001,0,0.003,0,0.003,0c0.01,0,0.016,0,0.024,0h0.003
		c0.01,0,0.016,0,0.025,0c0.002,0,0.002,0,0.004,0c0.008,0,0.016,0,0.023,0h0.002c0.008,0,0.018,0,0.027,0c0.009,0,0.018,0,0.027,0
		h0.002c0.017,0,0.035,0,0.053,0c0.315,0,0.631,0,0.944,0c0.009,0,0.019,0,0.026,0c0.011,0,0.02,0,0.027,0c0,0,0.002,0,0.004,0
		c0.009,0,0.012,0,0.021,0c0.005,0,0.005,0,0.007,0c0.008,0,0.015,0,0.023,0h0.007c0.008,0,0.009,0,0.015,0c0.005,0,0.007,0,0.011,0
		c0.005,0,0.011,0,0.012,0c0.009,0,0.017,0,0.023,0c0.002,0,0.005,0,0.007,0c0.074,0,0.148-0.019,0.224-0.02l-0.134-3.434
		C62.515,92.71,61.984,92.715,61.451,92.715z"/>
	<path fill="#3a93d0" d="M71.781,91.498l0.894,3.322c3.144-0.756,6.152-1.822,8.993-3.164l-1.62-3.067C77.416,89.831,74.633,90.812,71.781,91.498z"
		/>
</g>
</svg>
