<?xml version="1.0" encoding="utf-8"?>
<!-- Generator: Adobe Illustrator 15.0.0, SVG Export Plug-In . SVG Version: 6.00 Build 0)  -->
<!DOCTYPE svg PUBLIC "-//W3C//DTD SVG 1.1//EN" "http://www.w3.org/Graphics/SVG/1.1/DTD/svg11.dtd">
<svg version="1.1" xmlns="http://www.w3.org/2000/svg" xmlns:xlink="http://www.w3.org/1999/xlink" x="0px" y="0px"
	 width="58.167px" height="47.333px" viewBox="125 157.167 58.167 47.333" enable-background="new 125 157.167 58.167 47.333"
	 xml:space="preserve">
<g id="Layer_4" display="none">
	<g display="inline">
		<path d="M167.455,174.033c3.802-2.229,9.709-1.901,12.492,1.51C175.941,173.508,171.8,173.246,167.455,174.033z"/>
		<path d="M167.59,173.246c2.716-2.821,7.944-3.478,10.999-1.115C174.719,171.276,171.189,171.672,167.59,173.246z"/>
		<path d="M166.843,174.953c3.735-1.183,9.913,0.589,10.457,3.87C174.245,176.133,170.917,175.215,166.843,174.953z"/>
	</g>
	<g display="inline">
		<path d="M150.143,174.033c-4.346-0.787-8.555-0.524-12.493,1.51C140.434,172.131,146.34,171.804,150.143,174.033z"/>
		<path d="M150.007,173.246c-3.667-1.574-7.13-1.904-11-1.115C142.131,169.769,147.291,170.425,150.007,173.246z"/>
		<path d="M150.753,174.953c-4.073,0.262-7.4,1.18-10.456,3.87C140.841,175.542,147.02,173.771,150.753,174.953z"/>
	</g>
	<path display="inline" d="M161.344,177.837c4.888-0.853,8.555-4.067,8.555-7.872c0-0.524-0.068-1.114-0.204-1.639
		c1.629-2.035,3.056-5.708,2.24-6.626c-0.814-0.854-4.616,0.197-6.925,1.574c-1.833-0.918-4.005-1.443-6.313-1.443
		c-2.377,0-4.549,0.525-6.314,1.443c-2.308-1.377-6.111-2.428-6.925-1.574c-0.816,0.852,0.61,4.591,2.308,6.691l0,0
		c-0.136,0.525-0.203,1.049-0.203,1.573c0,3.87,3.733,7.085,8.758,7.937c-2.647,4.594-6.518,12.99-8.487,19.026
		c-3.191,9.578,1.222,15.811,9.234,16.597c-0.339,1.248-0.951,2.166-1.765,2.887c-0.952,0.79-2.106,1.313-3.395,1.511
		c-1.358,0.196-2.852,0.131-4.21-0.197c-2.647-0.658-5.024-2.296-6.042-4.725c-1.291-3.018,0.203-6.364,1.901-9.972
		c1.629-3.477,3.326-7.281,3.191-11.676c-0.068-2.821-0.883-5.184-2.173-6.956c-1.289-1.835-3.124-3.147-5.16-4.001
		c-1.968-0.853-4.208-1.18-6.382-1.115c-3.054,0.066-6.042,0.984-8.487,2.56c-4.48,2.821-5.838,7.216-5.092,11.086
		c0.272,1.444,0.815,2.756,1.629,3.936c0.815,1.183,1.833,2.232,3.123,2.953c3.056,1.838,7.128,1.969,11.474-0.918
		c2.716-1.838,3.327-4.394,2.716-6.757c-0.272-0.983-0.748-1.903-1.358-2.69l0,0l0,0c-0.612-0.787-1.358-1.508-2.24-2.035
		c-2.241-1.376-5.093-1.704-7.604,0.131c-0.678,0.527-0.814,1.445-0.271,2.1s1.494,0.787,2.172,0.262
		c1.29-0.917,2.784-0.787,4.006,0c0.543,0.328,1.018,0.787,1.424,1.313l0,0c0.409,0.524,0.68,1.049,0.816,1.639
		c0.339,1.245,0,2.559-1.426,3.477c-3.124,2.1-5.976,2.035-8.08,0.787c-0.814-0.525-1.562-1.18-2.104-2.033
		c-0.543-0.852-0.952-1.838-1.155-2.821c-0.543-2.755,0.477-5.97,3.803-8.202c1.901-1.245,4.345-1.966,6.79-2.032
		c1.765-0.066,3.531,0.262,5.024,0.917c1.493,0.655,2.851,1.576,3.802,2.953c0.95,1.376,1.562,3.149,1.629,5.314
		c0.068,3.739-1.494,7.15-2.92,10.365c-1.968,4.263-3.734,8.133-1.9,12.333c1.426,3.412,4.617,5.641,8.147,6.495
		c1.833,0.459,3.734,0.59,5.567,0.262c1.833-0.33,3.598-1.052,4.956-2.231c1.426-1.245,2.513-2.952,2.92-5.118
		c8.351-0.656,12.695-7.085,9.504-16.86C167.727,190.63,163.924,182.365,161.344,177.837z"/>
</g>
<g id="Layer_2">
	<path d="M181.214,175.865c-0.946-4.589-4.275-12.488-15.903-15.221c0.677,3.956,2.668,14.77,5.42,22.663
		c0.011,0.029,0.021,0.056,0.031,0.084c0.932,2.659,1.949,4.979,3.031,6.583l0.186,0.296c1.078,1.494,1.85,1.737,2.209,1.737
		c0,0,0,0,0,0c0.253,0,0.515-0.115,0.802-0.305C180.156,189.591,182.671,182.929,181.214,175.865z"/>
	<path d="M157.92,192.536c-0.434-0.391-2.343-0.746-4.083-0.746c-2.807,0-3.645,0.413-3.847,0.551
		c0.198,0.634,1.944,2.079,3.861,3.212C157.205,193.727,157.812,192.785,157.92,192.536z"/>
	<path d="M130.65,191.681c0.286,0.19,0.549,0.282,0.802,0.282c0.352,0,1.098-0.216,2.136-1.617l0.2-0.292
		c0.544-0.79,1.07-1.758,1.578-2.857c0.027-0.059,0.054-0.115,0.081-0.174c0.036-0.081,0.072-0.163,0.108-0.243
		c1.054-2.387,2.258-5.855,3.562-10.9c1.591-6.162,2.727-12.391,3.213-15.242c-11.628,2.734-14.959,10.626-15.905,15.217
		C124.967,182.918,127.482,189.569,130.65,191.681z"/>
	<path d="M139.714,181.964c-0.051,0.16-0.102,0.319-0.153,0.478c-0.095,0.294-0.189,0.58-0.283,0.86
		c-0.004,0.012-0.009,0.024-0.013,0.037c-1.175,3.494-2.284,5.89-3.308,7.515c3.222,8.908,9.262,10.799,13.836,10.799
		c1.228,0,2.205-0.144,2.846-0.265v-3.901c-2.244-1.336-5.429-3.601-4.882-5.729c0.503-1.958,3.509-2.208,6.056-2.208
		c1.713,0,5.721,0.238,6.267,2.446c0.408,1.651-1.031,3.315-5.198,5.508v3.906c0.641,0.116,1.641,0.242,2.791,0.242
		c4.591,0,10.698-1.9,13.915-10.85c-1.575-2.561-3.337-6.928-5.248-14.329c-1.824-7.064-3.049-14.221-3.407-16.399
		c-2.77-1.232-5.999-1.907-9.163-1.907c-2.254,0-5.609,0.323-9.059,1.816c-0.418,2.588-2.186,12.96-4.867,21.562
		C139.8,181.686,139.758,181.826,139.714,181.964z M160.128,174.465c2.189,0,3.97,1.781,3.97,3.969c0,2.189-1.781,3.97-3.97,3.97
		c-2.188,0-3.969-1.781-3.969-3.97C156.159,176.246,157.94,174.465,160.128,174.465z M147.239,174.465
		c2.189,0,3.97,1.781,3.97,3.969c0,2.189-1.781,3.97-3.97,3.97s-3.969-1.781-3.969-3.97
		C143.27,176.246,145.05,174.465,147.239,174.465z"/>
	<path d="M147.239,180.163c0.953,0,1.728-0.776,1.728-1.729c0-0.953-0.775-1.727-1.728-1.727s-1.728,0.774-1.728,1.727
		S146.286,180.163,147.239,180.163z"/>
	<path d="M160.128,180.163c0.953,0,1.728-0.776,1.728-1.729c0-0.953-0.775-1.727-1.728-1.727c-0.953,0-1.728,0.774-1.728,1.727
		S159.175,180.163,160.128,180.163z"/>
</g>
</svg>
