<?xml version="1.0" encoding="utf-8"?>
<!DOCTYPE svg PUBLIC "-//W3C//DTD SVG 1.1//EN" "http://www.w3.org/Graphics/SVG/1.1/DTD/svg11.dtd">
<svg version="1.1" id="Layer_4" xmlns="http://www.w3.org/2000/svg" xmlns:xlink="http://www.w3.org/1999/xlink" x="0px" y="0px"
	 width="68px" height="67.333px" viewBox="115.167 157.167 68 67.333" enable-background="new 115.167 157.167 68 67.333"
	 xml:space="preserve">
<g>
	<path fill="#249ff6" d="M167.455,174.033c3.802-2.229,9.709-1.901,12.492,1.51C175.941,173.508,171.8,173.246,167.455,174.033z"/>
	<path fill="#249ff6" d="M167.59,173.246c2.716-2.821,7.944-3.478,10.999-1.115C174.719,171.276,171.189,171.672,167.59,173.246z"/>
	<path fill="#249ff6" d="M166.843,174.953c3.735-1.183,9.913,0.589,10.457,3.87C174.245,176.133,170.917,175.215,166.843,174.953z"/>
</g>
<g>
	<path fill="#249ff6" d="M150.143,174.033c-4.346-0.787-8.555-0.524-12.493,1.51C140.434,172.131,146.34,171.804,150.143,174.033z"/>
	<path fill="#249ff6" d="M150.007,173.246c-3.667-1.574-7.13-1.904-11-1.115C142.131,169.769,147.291,170.425,150.007,173.246z"/>
	<path fill="#249ff6" d="M150.753,174.953c-4.073,0.262-7.4,1.18-10.456,3.87C140.841,175.542,147.02,173.771,150.753,174.953z"/>
</g>
<path fill="#249ff6" d="M161.344,177.837c4.888-0.853,8.555-4.067,8.555-7.872c0-0.524-0.068-1.114-0.204-1.639c1.629-2.035,3.056-5.708,2.24-6.626
	c-0.814-0.854-4.616,0.197-6.925,1.574c-1.833-0.918-4.005-1.443-6.313-1.443c-2.377,0-4.549,0.525-6.314,1.443
	c-2.308-1.377-6.111-2.428-6.925-1.574c-0.816,0.852,0.61,4.591,2.308,6.691l0,0c-0.136,0.525-0.203,1.049-0.203,1.573
	c0,3.87,3.733,7.085,8.758,7.937c-2.647,4.594-6.518,12.99-8.487,19.026c-3.191,9.578,1.222,15.811,9.234,16.597
	c-0.339,1.248-0.951,2.166-1.765,2.887c-0.952,0.79-2.106,1.313-3.395,1.511c-1.358,0.196-2.852,0.131-4.21-0.197
	c-2.647-0.658-5.024-2.296-6.042-4.725c-1.291-3.018,0.203-6.364,1.901-9.972c1.629-3.477,3.326-7.281,3.191-11.676
	c-0.068-2.821-0.883-5.184-2.173-6.956c-1.289-1.835-3.124-3.147-5.16-4.001c-1.968-0.853-4.208-1.18-6.382-1.115
	c-3.054,0.066-6.042,0.984-8.487,2.56c-4.48,2.821-5.838,7.216-5.092,11.086c0.272,1.444,0.815,2.756,1.629,3.936
	c0.815,1.183,1.833,2.232,3.123,2.953c3.056,1.838,7.128,1.969,11.474-0.918c2.716-1.838,3.327-4.394,2.716-6.757
	c-0.272-0.983-0.748-1.903-1.358-2.69l0,0l0,0c-0.612-0.787-1.358-1.508-2.24-2.035c-2.241-1.376-5.093-1.704-7.604,0.131
	c-0.678,0.527-0.814,1.445-0.271,2.1s1.494,0.787,2.172,0.262c1.29-0.917,2.784-0.787,4.006,0c0.543,0.328,1.018,0.787,1.424,1.313
	l0,0c0.409,0.524,0.68,1.049,0.816,1.639c0.339,1.245,0,2.559-1.426,3.477c-3.124,2.1-5.976,2.035-8.08,0.787
	c-0.814-0.525-1.562-1.18-2.104-2.033c-0.543-0.852-0.952-1.838-1.155-2.821c-0.543-2.755,0.477-5.97,3.803-8.202
	c1.901-1.245,4.345-1.966,6.79-2.032c1.765-0.066,3.531,0.262,5.024,0.917c1.493,0.655,2.851,1.576,3.802,2.953
	c0.95,1.376,1.562,3.149,1.629,5.314c0.068,3.739-1.494,7.15-2.92,10.365c-1.968,4.263-3.734,8.133-1.9,12.333
	c1.426,3.412,4.617,5.641,8.147,6.495c1.833,0.459,3.734,0.59,5.567,0.262c1.833-0.33,3.598-1.052,4.956-2.231
	c1.426-1.245,2.513-2.952,2.92-5.118c8.351-0.656,12.695-7.085,9.504-16.86C167.727,190.63,163.924,182.365,161.344,177.837z"/>
</svg>
