<?xml version="1.0" encoding="utf-8"?>
<!-- Generator: Adobe Illustrator 15.0.0, SVG Export Plug-In . SVG Version: 6.00 Build 0)  -->
<!DOCTYPE svg PUBLIC "-//W3C//DTD SVG 1.1//EN" "http://www.w3.org/Graphics/SVG/1.1/DTD/svg11.dtd">
<svg version="1.1" id="Layer_1" xmlns="http://www.w3.org/2000/svg" xmlns:xlink="http://www.w3.org/1999/xlink" x="0px" y="0px"
	 width="119px" height="107px" viewBox="0 0 119 107" enable-background="new 0 0 119 107" xml:space="preserve">
<g transform="translate(0.000000,512.000000) scale(0.100000,-0.100000)">
	<path fill="#010101" d="M358.423,4979.599c-125.117-34.912-233.677-65.142-241.064-67.485
		c-21.147-6.626-31.729-21.255-27.134-37.446c2.593-9.16,8.579-16.382,17.363-20.674c4.189-1.953,112.549-39.985,240.864-84.253
		c228.286-78.794,233.872-80.747,248.442-80.547c14.57,0,20.156,1.753,196.758,62.798c99.99,34.521,183.008,62.798,184.199,62.798
		c1.396,0,4.375-4.092,6.777-9.16c3.994-8.584,4.404-13.071,4.99-58.125l0.801-48.955l-6.572-6.626
		c-16.367-17.168-21.357-44.272-11.787-65.732l4.395-10.337l-4.395-9.946c-8.574-19.888-4.98-42.51,13.184-78.213
		c7.764-15.596,32.51-55,40.898-65.537l3.604-4.473l15.361,22.812c25.742,38.242,41.709,70.801,45.684,94.014
		c1.611,9.751-1.982,28.081-7.393,37.637c-3.574,6.44-3.76,7.412-0.986,11.704c4.795,7.407,7.598,25.742,5.391,36.865
		c-2.197,11.313-6.182,19.502-14.16,29.448l-5.801,7.217v48.955c0,51.484-1.992,69.824-9.971,87.178l-3.594,7.998l16.572,6.24
		c18.76,7.017,25.537,11.509,30.332,20.288c7.578,14.624,0.996,32.178-14.971,40.176c-3.994,1.953-113.955,33.154-244.062,69.233
		c-173.613,48.179-239.258,65.537-246.45,65.342C589.316,5042.792,508.691,5021.142,358.423,4979.599z M615.84,4917.968
		c17.383-2.344,30.156-8.193,34.141-15.601c2.588-5.073,2.588-6.245,0-11.313c-9.365-17.358-67.446-23.013-94.985-9.36
		C518.276,4900.024,561.177,4925.771,615.84,4917.968z"/>
	<path fill="#010101" d="M281.602,4648.623c0-37.837,0.2-71.973,0-75.674c0-6.436-0.801-7.217-10.386-11.709
		c-24.541-11.113-48.687-44.463-57.471-78.604c-11.367-44.648-5.186-79.766,20.757-115.264
		c17.358-23.789,52.285-52.061,76.831-61.816c8.774-3.711,9.775-4.873,12.769-14.238c1.797-5.469,7.388-18.34,12.373-28.477
		c38.711-77.432,120.132-141.016,214.326-167.148c16.562-4.668,22.744-5.459,46.094-5.459s29.541,0.791,46.104,5.459
		c91.797,25.352,174.014,88.545,211.924,162.266c4.785,9.756,10.977,23.018,13.359,29.854l4.6,12.08l16.172,7.607
		c19.961,9.365,32.129,17.754,49.678,34.717c23.76,23.018,40.312,51.885,45.303,78.604c2.793,14.424,1.396,38.809-3.193,58.506
		c-4.18,17.754-18.75,45.84-30.742,58.906c-8.574,9.551-29.121,24.971-35.898,27.305c-1.602,0.391-2.207,23.604-2.002,76.255
		c0,41.543-0.205,75.479-0.605,75.479c-0.586,0-68.643-24.375-151.25-54.019c-139.502-50.127-151.475-54.028-163.447-54.028
		c-11.968,0-23.745,3.711-163.433,54.028c-82.617,29.644-150.669,54.019-151.265,54.019
		C281.802,4717.27,281.602,4686.264,281.602,4648.623z M480.161,4558.515l115.737-14.434l121.133,14.814
		c66.65,8.203,121.729,14.248,122.529,13.662c0.596-0.781,2.393-10.723,3.789-22.432c1.396-11.504,3.389-23.213,4.59-25.938
		c4.58-11.113,15.957-18.33,35.312-22.432c8.379-1.758,19.766-14.424,24.951-27.695c5.586-14.238,7.588-40.566,3.789-49.727
		c-7.578-18.34-27.539-40.371-45.889-50.908c-4.99-2.93-15.381-6.826-22.949-8.584c-22.939-5.469-29.336-12.285-36.729-38.623
		c-5.186-18.906-16.553-42.9-27.939-59.668c-12.363-17.949-47.891-51.494-68.447-64.756c-43.496-28.086-94.58-46.416-120.522-43.496
		c-15.972,1.758-47.104,12.09-69.053,22.812c-55.073,26.924-97.783,66.504-120.132,111.582
		c-4.785,9.932-10.576,24.375-12.769,32.168c-2.197,7.803-5.991,17.939-8.584,22.422c-4.785,8.389-17.158,16.963-24.746,16.963
		c-9.78,0-33.521,14.248-48.687,29.082c-19.956,19.287-25.947,31.006-25.947,50.117c0,23.027,9.385,46.211,21.953,54.805
		c2.397,1.553,9.78,4.102,16.362,5.654c22.749,5.264,28.74,13.643,32.729,45.439c1.401,12.49,2.793,22.822,2.793,23.213
		C353.643,4573.925,373.994,4571.582,480.161,4558.515z"/>
	<path fill="#010101" d="M444.233,4502.148c-26.938-8.77-41.504-27.695-41.504-54.023c0-31.396,24.146-55.195,56.079-55.195
		c61.455,0,79.819,81.719,23.74,105.898C470.381,4504.111,454.614,4505.468,444.233,4502.148z"/>
	<path fill="#010101" d="M719.629,4502.148c-26.943-8.77-41.709-28.086-41.709-54.023c0-60.264,84.004-76.855,109.16-21.641
		c8.77,19.287,3.379,46.406-12.178,61.24C760.742,4501.162,736.387,4507.617,719.629,4502.148z"/>
</g>
</svg>
