<?xml version="1.0" encoding="utf-8"?>
<!-- Generator: Adobe Illustrator 15.0.0, SVG Export Plug-In . SVG Version: 6.00 Build 0)  -->
<!DOCTYPE svg PUBLIC "-//W3C//DTD SVG 1.1//EN" "http://www.w3.org/Graphics/SVG/1.1/DTD/svg11.dtd">
<svg version="1.1" id="Layer_1" xmlns="http://www.w3.org/2000/svg" xmlns:xlink="http://www.w3.org/1999/xlink" x="0px" y="0px"
	 width="119px" height="107px" viewBox="0 0 119 107" enable-background="new 0 0 119 107" xml:space="preserve">
<g>
	<path fill="#010101" d="M59.981,58.95"/>
	<path fill="#010101" d="M76.086,61.465L76.086,61.465c0.577,4.114,2.779,7.772,6.022,10.287l0,0
		c14.714,11.431,1.391,34.291-16.103,27.434l0,0c-3.823-1.486-8.226-1.486-12.048,0l0,0c-17.377,6.857-30.816-16.003-16.103-27.434
		l0,0c3.244-2.515,5.445-6.173,6.024-10.287l0,0C46.543,43.176,73.421,43.176,76.086,61.465z"/>
	<g>
		<path fill="#010101" d="M42.095,9.27c7.225-0.988,14.086,5.358,15.325,14.174c1.239,8.817-3.614,16.766-10.839,17.753
			c-7.225,0.989-14.085-5.357-15.324-14.174C30.018,18.207,34.871,10.257,42.095,9.27z"/>
		<path fill="#010101" d="M73.331,41.23c-7.226-0.987-12.079-8.937-10.84-17.752c1.238-8.817,8.101-15.164,15.323-14.175
			c7.225,0.989,12.078,8.937,10.839,17.753C87.416,35.872,80.554,42.218,73.331,41.23z"/>
	</g>
	<g>
		<path fill="#010101" d="M22.399,41.381c7.225-0.989,14.086,5.357,15.325,14.173c1.239,8.816-3.614,16.766-10.839,17.754
			C19.661,74.298,12.8,67.95,11.561,59.134C10.323,50.317,15.175,42.37,22.399,41.381z"/>
		<path fill="#010101" d="M93.133,73.36c-7.226-0.988-12.077-8.937-10.838-17.753c1.239-8.817,8.099-15.163,15.323-14.174
			c7.225,0.988,12.078,8.936,10.84,17.752S100.358,74.349,93.133,73.36z"/>
	</g>
</g>
</svg>
