<?xml version="1.0" encoding="utf-8"?>
<!-- Generator: Adobe Illustrator 15.0.0, SVG Export Plug-In . SVG Version: 6.00 Build 0)  -->
<!DOCTYPE svg PUBLIC "-//W3C//DTD SVG 1.1//EN" "http://www.w3.org/Graphics/SVG/1.1/DTD/svg11.dtd">
<svg version="1.1" id="Layer_3" xmlns="http://www.w3.org/2000/svg" xmlns:xlink="http://www.w3.org/1999/xlink" x="0px" y="0px"
	 width="40.667px" height="67.333px" viewBox="139.167 157.167 40.667 67.333"
	 enable-background="new 139.167 157.167 40.667 67.333" xml:space="preserve">
	 <style type="text/css">
	.st0{fill:#0074DB;stroke:#0074DB;stroke-width:1;stroke-linecap:round;stroke-linejoin:round;stroke-miterlimit:10;}
</style>
<path class="st0" d="M158.774,220.152c-0.902,0-1.636,0.735-1.636,1.637h-0.35c0-0.959,0.682-1.761,1.586-1.946v-0.946h-3.914v2.87v0.503h6.125
	v-0.482h-0.175C160.412,220.887,159.677,220.152,158.774,220.152z"/>
<path class="st0" d="M166.14,220.152c-0.903,0-1.637,0.735-1.637,1.637h-0.35c0-0.959,0.683-1.761,1.587-1.946v-0.946h-3.914v2.87v0.503h6.125
	v-0.482h-0.175C167.777,220.887,167.042,220.152,166.14,220.152z"/>
<path class="st0" d="M166.113,218.429v-21.144c0.005-0.071,0.021-0.139,0.021-0.211v-1.097h-11.99v1.097c0,0.099,0.021,0.192,0.03,0.289v21.066
	h4.687v-18.204h2.566v18.204H166.113z"/>
<path class="st0" d="M164.283,161.046c1.206-0.267,0.755-1.635,0.024-1.879c0.041,1.133-3.154,0.648-3.154,0.648l0.026,0.012
	c-0.336-0.048-0.677-0.082-1.026-0.082c-3.994,0-7.232,3.238-7.232,7.232c0,1.448,0.3,2.797,1.034,3.929l0-0.011
	c0.795,2.672,3.268,4.621,6.198,4.621s5.402-1.949,6.197-4.621l0.001,0.011c0.733-1.131,1.034-2.48,1.034-3.929
	C167.385,164.521,166.156,162.353,164.283,161.046z"/>
<path class="st0" d="M154.144,195.267h11.99v-13.695l0.948,2.606l2.337-0.851l-0.003-0.009l0.733-0.271l-2.102-5.344
	c-0.198-0.543-1.244-0.779-1.913-0.675v-0.011h-3.868c0,1.202-0.952,2.177-2.127,2.177s-2.127-0.975-2.127-2.177h-3.868v0.01
	c-0.653-0.089-1.626,0.182-1.823,0.719l-2.103,5.389l2.99,1.042l0.935-2.569L154.144,195.267L154.144,195.267z"/>
<path class="st0" d="M158.468,175.776v1.282c0,0.931,0.754,1.685,1.685,1.685s1.685-0.754,1.685-1.685v-1.282
	c-0.541,0.131-1.104,0.208-1.685,0.208C159.572,175.984,159.01,175.908,158.468,175.776z"/>
<path class="st0" d="M150.438,183.79l-5.004,13.749c-0.232,0.636,0.097,1.342,0.734,1.573c0.139,0.05,0.28,0.074,0.419,0.074
	c0.501,0,0.972-0.309,1.154-0.808l5.012-13.771L150.438,183.79z"/>
<path class="st0" d="M169.842,183.802l5.004,13.749c0.232,0.636-0.097,1.341-0.733,1.572c-0.139,0.051-0.281,0.075-0.42,0.075
	c-0.501,0-0.972-0.31-1.153-0.808l-5.013-13.771L169.842,183.802z"/>
</svg>
