<?xml version="1.0" encoding="utf-8"?>
<!-- Generator: Adobe Illustrator 15.0.0, SVG Export Plug-In . SVG Version: 6.00 Build 0)  -->
<!DOCTYPE svg PUBLIC "-//W3C//DTD SVG 1.1//EN" "http://www.w3.org/Graphics/SVG/1.1/DTD/svg11.dtd">
<svg version="1.1" xmlns="http://www.w3.org/2000/svg" xmlns:xlink="http://www.w3.org/1999/xlink" x="0px" y="0px"
	 width="37.333px" height="67.333px" viewBox="139.167 157.167 37.333 67.333"
	 enable-background="new 139.167 157.167 37.333 67.333" xml:space="preserve">
<g id="Layer_3" display="none">
	<path display="inline" d="M158.774,220.152c-0.902,0-1.636,0.735-1.636,1.637h-0.35c0-0.959,0.682-1.761,1.586-1.946v-0.946h-3.914
		v2.87v0.503h6.125v-0.482h-0.175C160.412,220.887,159.677,220.152,158.774,220.152z"/>
	<path display="inline" d="M166.14,220.152c-0.903,0-1.637,0.735-1.637,1.637h-0.35c0-0.959,0.683-1.761,1.587-1.946v-0.946h-3.914
		v2.87v0.503h6.125v-0.482h-0.175C167.777,220.887,167.042,220.152,166.14,220.152z"/>
	<path display="inline" d="M166.113,218.429v-21.144c0.005-0.071,0.021-0.139,0.021-0.211v-1.097h-11.99v1.097
		c0,0.099,0.021,0.192,0.03,0.289v21.066h4.687v-18.204h2.566v18.204H166.113z"/>
	<path display="inline" d="M164.283,161.046c1.206-0.267,0.755-1.635,0.024-1.879c0.041,1.133-3.154,0.648-3.154,0.648l0.026,0.012
		c-0.336-0.048-0.677-0.082-1.026-0.082c-3.994,0-7.232,3.238-7.232,7.232c0,1.448,0.3,2.797,1.034,3.929l0-0.011
		c0.795,2.672,3.268,4.621,6.198,4.621s5.402-1.949,6.197-4.621l0.001,0.011c0.733-1.131,1.034-2.48,1.034-3.929
		C167.385,164.521,166.156,162.353,164.283,161.046z"/>
	<path display="inline" d="M154.144,195.267h11.99v-13.695l0.948,2.606l2.337-0.851l-0.003-0.009l0.733-0.271l-2.102-5.344
		c-0.198-0.543-1.244-0.779-1.913-0.675v-0.011h-3.868c0,1.202-0.952,2.177-2.127,2.177s-2.127-0.975-2.127-2.177h-3.868v0.01
		c-0.653-0.089-1.626,0.182-1.823,0.719l-2.103,5.389l2.99,1.042l0.935-2.569L154.144,195.267L154.144,195.267z"/>
	<path display="inline" d="M158.468,175.776v1.282c0,0.931,0.754,1.685,1.685,1.685s1.685-0.754,1.685-1.685v-1.282
		c-0.541,0.131-1.104,0.208-1.685,0.208C159.572,175.984,159.01,175.908,158.468,175.776z"/>
	<path display="inline" d="M150.438,183.79l-5.004,13.749c-0.232,0.636,0.097,1.342,0.734,1.573c0.139,0.05,0.28,0.074,0.419,0.074
		c0.501,0,0.972-0.309,1.154-0.808l5.012-13.771L150.438,183.79z"/>
	<path display="inline" d="M169.842,183.802l5.004,13.749c0.232,0.636-0.097,1.341-0.733,1.572c-0.139,0.051-0.281,0.075-0.42,0.075
		c-0.501,0-0.972-0.31-1.153-0.808l-5.013-13.771L169.842,183.802z"/>
</g>
<g id="Layer_2">
	<path fill="none" d="M157.373,174.366c0.886,0,1.603-0.714,1.603-1.594h-3.206C155.77,173.652,156.488,174.366,157.373,174.366z"/>
	<path fill="none" d="M160.326,162.228c0.022,0.011,0.042,0.024,0.063,0.035C160.367,162.252,160.347,162.239,160.326,162.228z"/>
	<path fill="none" d="M163.554,166.25c0.025,0.097,0.047,0.193,0.068,0.291c-0.005-0.084-0.017-0.163-0.019-0.25l0.048-0.031
		C163.62,166.258,163.586,166.254,163.554,166.25z"/>
	<path d="M151.597,173.289c0.048-0.07,0.077-0.15,0.11-0.228c0.971,2.159,3.147,3.665,5.68,3.665c2.548,0,4.736-1.523,5.699-3.703
		c0.025,0.049,0.04,0.103,0.07,0.147c0.31,0.275-0.07-0.704,0.516-1.332c0.586-0.629,0.525-1.407,0.116-2.131
		c-0.335-0.592-0.066-1.066,0.134-1.316c0.958,3.312,3.75,4.031,3.622,3.594c-2.184-2.007-0.203-8.07-0.203-8.07l-0.019,0.011
		c0.135-0.375,0.223-0.775,0.223-1.196c0-1.738-1.255-3.181-2.912-3.496c-0.202-0.054-0.405-0.071-0.606-0.06
		c-0.023,0-0.045-0.007-0.068-0.007c-1.703,0-3.122,1.183-3.488,2.765c-0.271-0.029-0.543-0.036-0.812-0.001
		c0.008,0.003,0.015,0.006,0.021,0.01c-0.714-0.275-1.49-0.429-2.302-0.429c-3.528,0-6.387,2.842-6.387,6.347
		c0,0.122,0.03,0.232,0.078,0.335c0.001,0.002-0.001,0.007,0,0.01c0.124,0.207,0.266,0.879-0.145,1.604
		c-0.41,0.725-0.431,1.521,0.155,2.149C151.668,172.586,151.287,173.564,151.597,173.289z M163.622,166.541
		c-0.021-0.097-0.043-0.193-0.068-0.291c0.032,0.004,0.065,0.007,0.098,0.01l-0.048,0.031
		C163.605,166.379,163.617,166.456,163.622,166.541z M160.389,162.264c-0.022-0.012-0.042-0.025-0.063-0.035
		C160.347,162.239,160.367,162.252,160.389,162.264z"/>
	<path d="M152.232,203.309l0.002,14.947l3.221-0.001l-0.003-14.946h3.87l0.003,14.947l3.221-0.001l-0.003-14.945h0.597v-7.237h0.091
		v-13.268l0.925,2.525l2.278-0.823l-0.004-0.011l0.716-0.261l-2.05-5.178c-0.193-0.525-1.213-0.754-1.865-0.652v-0.011h-3.771
		c0,1.165-0.929,2.109-2.074,2.109s-2.074-0.944-2.074-2.109h-3.771v0.01c-0.638-0.086-1.586,0.175-1.777,0.697l-2.05,5.22
		l2.915,1.011l0.913-2.49v13.233h0.065v7.235H152.232L152.232,203.309z"/>
	<path d="M156.193,219.934c-0.88,0-1.595,0.712-1.595,1.586h-0.342c0-0.929,0.666-1.706,1.547-1.885v-0.917h-3.816v2.781v0.487
		h5.973v-0.467h-0.171C157.789,220.646,157.073,219.934,156.193,219.934z"/>
	<path d="M163.374,219.934c-0.88,0-1.597,0.712-1.597,1.586h-0.341c0-0.929,0.665-1.706,1.548-1.885v-0.917h-3.816v2.781v0.487
		h5.972v-0.467h-0.171C164.969,220.646,164.254,219.934,163.374,219.934z"/>
	<path d="M155.796,178.334c0,0.901,0.736,1.632,1.644,1.632c0.907,0,1.642-0.731,1.642-1.632v-1.243
		c-0.527,0.127-1.076,0.201-1.642,0.201c-0.567,0-1.115-0.074-1.644-0.201V178.334z"/>
	<path d="M143.049,198.275c-0.226,0.617,0.094,1.3,0.716,1.524c0.135,0.049,0.273,0.072,0.409,0.072c0.489,0,0.948-0.3,1.125-0.783
		l4.887-13.342l-2.257-0.792L143.049,198.275z"/>
	<path d="M171.725,198.285l-4.878-13.319l-2.258,0.791l4.887,13.342c0.176,0.483,0.636,0.782,1.125,0.782
		c0.136,0,0.274-0.023,0.41-0.071C171.631,199.584,171.953,198.901,171.725,198.285z"/>
</g>
</svg>
