<svg version="1.1" id="Layer_1" xmlns="http://www.w3.org/2000/svg" xmlns:xlink="http://www.w3.org/1999/xlink" x="0px" y="0px"
	 width="119px" height="107px" viewBox="0 0 119 107" enable-background="new 0 0 119 107" xml:space="preserve">
<g>
	<path fill="#ffffff" d="M85.631,59.666c-0.24,0.145-0.838,0.445-1.586,0.816c-0.654,0.324-1.861,0.92-2.793,1.426
		c0.076,0.21,0.141,0.421,0.193,0.634c0.447,1.846-0.039,3.742-1.373,5.342c-1.582,1.895-3.996,2.979-6.631,2.979
		c-0.02,0-0.035,0-0.051,0l-18.974-0.102c0,0.002-0.069,0.123-0.069,0.125l-4.306-0.051c-0.005-1.168,0.452-2.271,1.283-3.102
		c0.826-0.824,1.924-1.279,3.092-1.279c0.008,0,0.014,0,0.021,0l18.972,0.104c0.01,0,0.02,0,0.029,0
		c1.334,0,2.574-0.535,3.326-1.434c0.607-0.73,0.572-1.242,0.494-1.564c-0.047-0.195-0.135-0.389-0.252-0.578
		c-0.162-0.146-0.301-0.318-0.412-0.516c-0.32-0.32-0.73-0.599-1.182-0.788c-1.387-0.582-3.127-0.572-4.812-0.557
		c-0.904,0.006-1.838,0.025-2.783,0.043c-4.803,0.092-10.25,0.197-15.208-1.098c-1.062-0.275-2.083-0.572-3.077-0.859
		c-4.525-1.312-8.105-2.346-12.722-0.756c-4.47,1.543-8.801,4.622-13.635,9.69c-0.036,0.037-0.073,0.072-0.111,0.107l-9.811,8.896
		l13.268,15.436l13.331-10.213c0.508-0.391,1.165-0.533,1.789-0.391c0.844,0.193,1.793,0.211,2.857,0.211l28.492,0.004
		c1.17,0,2.373,0,3.316-0.344c1.104-0.402,2.158-1.404,3.088-2.283c11.557-10.949,24.047-25.887,26.102-30.957
		c-1.436,0.15-3.084,1.015-4.697,1.979L85.631,59.666z"/>
	<path fill="#ffffff" d="M60.951,44.494L77.443,28c1.506-1.505,2.332-3.508,2.332-5.644c0-2.135-0.828-4.141-2.332-5.645
		c-1.504-1.504-3.508-2.333-5.643-2.333c-2.137,0-4.141,0.828-5.645,2.332l-2.16,2.161c-0.84,0.84-1.943,1.261-3.045,1.261
		c-1.102,0-2.204-0.42-3.043-1.261l-2.16-2.16c-1.508-1.508-3.513-2.339-5.645-2.339s-4.138,0.83-5.645,2.338
		c-1.505,1.505-2.333,3.509-2.333,5.646c0,2.136,0.829,4.14,2.333,5.644L60.951,44.494z"/>
	<path class="color" d="M108.609,44.78c-3.902-1.541-7.885,0.836-10.02,2.115l-15.17,9.078c-0.199,0.117-0.684,0.354-1.283,0.65
		c-1.488,0.734-2.691,1.33-3.609,1.873c-0.447-0.309-0.932-0.574-1.445-0.789c-2.201-0.926-4.588-0.902-6.51-0.893
		c-0.924,0.008-1.869,0.025-2.832,0.043c-4.752,0.092-9.659,0.188-14.041-0.955c-1.025-0.27-2.009-0.553-2.966-0.83
		c-4.842-1.404-9.417-2.727-15.325-0.689c-5.126,1.768-9.988,5.18-15.291,10.731l-9.835,8.92c-1.697,1.537-1.857,4.102-0.363,5.836
		l13.41,15.602c0.826,0.961,1.999,1.461,3.182,1.461c0.893,0,1.788-0.283,2.545-0.865l12.67-9.705
		c0.925,0.121,1.844,0.133,2.777,0.133l28.494,0.004c1.469,0,3.133,0,4.789-0.604c1.943-0.709,3.402-2.094,4.574-3.203
		c5.822-5.516,13.006-13.238,18.303-19.676c9.555-11.609,10.031-15.085,9.127-17.115C109.559,45.39,109.135,44.985,108.609,44.78z
		 M79.396,79.567c-0.928,0.881-1.984,1.881-3.088,2.283c-0.943,0.344-2.148,0.344-3.314,0.344L44.501,82.19
		c-1.063,0-2.013-0.016-2.857-0.209c-0.624-0.145-1.281,0-1.788,0.389L26.524,92.583L13.255,77.151l9.811-8.898
		c0.04-0.035,0.075-0.072,0.111-0.109c4.832-5.068,9.165-8.146,13.635-9.688c4.616-1.59,8.196-0.557,12.722,0.756
		c0.993,0.287,2.014,0.582,3.077,0.859c4.958,1.295,10.405,1.188,15.208,1.096c0.949-0.018,1.879-0.035,2.785-0.041
		c1.684-0.016,3.426-0.027,4.811,0.555c0.453,0.189,0.861,0.468,1.184,0.79c0.111,0.197,0.248,0.369,0.412,0.516
		c0.117,0.189,0.203,0.383,0.25,0.578c0.08,0.322,0.115,0.836-0.494,1.566c-0.748,0.896-1.99,1.43-3.326,1.43
		c-0.008,0-0.02,0-0.025,0l-18.973-0.105c-0.008,0-0.015,0-0.023,0c-1.167,0-2.265,0.453-3.091,1.279
		c-0.831,0.83-1.287,1.934-1.283,3.102l4.306,0.051c0-0.002,0.069-0.123,0.069-0.125l18.974,0.102c0.016,0,0.033,0,0.053,0
		c2.633,0,5.047-1.084,6.631-2.979c1.332-1.6,1.82-3.498,1.371-5.342c-0.053-0.215-0.117-0.424-0.193-0.634
		c0.932-0.506,2.139-1.102,2.793-1.426c0.748-0.371,1.346-0.672,1.586-0.816l15.17-9.076c1.613-0.964,3.264-1.83,4.697-1.979
		C103.445,53.682,90.953,68.618,79.396,79.567z"/>
	<path class="color" d="M41.412,31.045l19.35,19.35l0.189-0.188l0.188,0.188l19.352-19.35c4.791-4.791,4.791-12.588,0-17.379
		c-2.396-2.396-5.541-3.594-8.689-3.594c-3.146,0-6.293,1.198-8.689,3.592l-2.16,2.161l-2.161-2.159
		c-2.321-2.321-5.407-3.6-8.689-3.6c-3.283,0-6.369,1.278-8.69,3.6C36.621,18.458,36.621,26.253,41.412,31.045z M44.458,16.71
		c1.506-1.508,3.511-2.338,5.644-2.338c2.132,0,4.137,0.83,5.645,2.339l2.16,2.16c0.841,0.84,1.942,1.261,3.044,1.261
		c1.102,0,2.205-0.42,3.045-1.261l2.158-2.161c1.504-1.503,3.51-2.332,5.645-2.332c2.137,0,4.141,0.828,5.645,2.333
		c1.504,1.503,2.332,3.509,2.332,5.645s-0.828,4.14-2.332,5.644L60.951,44.494L44.458,28c-1.504-1.504-2.333-3.508-2.333-5.644
		S42.953,18.215,44.458,16.71z"/>
</g>
</svg>