<?xml version="1.0" encoding="utf-8"?>
<!-- Generator: Adobe Illustrator 15.0.0, SVG Export Plug-In . SVG Version: 6.00 Build 0)  -->
<!DOCTYPE svg PUBLIC "-//W3C//DTD SVG 1.1//EN" "http://www.w3.org/Graphics/SVG/1.1/DTD/svg11.dtd">
<svg version="1.1" id="Layer_2" xmlns="http://www.w3.org/2000/svg" xmlns:xlink="http://www.w3.org/1999/xlink" x="0px" y="0px"
	 width="80.912px" height="55.875px" viewBox="151.167 168.625 80.912 55.875"
	 enable-background="new 151.167 168.625 80.912 55.875" xml:space="preserve">
<g>
	<path fill="#249ff6" d="M228.689,206.723c-1.272-4.92-2.715-9.755-3.987-14.675c-0.509-2.036-1.781-3.309-3.732-4.072
		c-2.969-1.188-6.022-1.188-8.991-0.17c-1.867,0.594-3.394,1.697-3.987,3.648c-1.272,4.156-2.459,8.397-3.647,12.554
		c-0.255,0.848-0.424,1.781-0.679,2.884c-3.478-3.817-6.701-7.294-12.299-7.294c-5.599-0.085-8.907,3.393-12.385,7.209
		c-0.085-0.509-0.169-0.763-0.254-1.018c-0.933-4.411-1.782-8.907-2.63-13.317c-0.424-2.121-1.697-3.393-3.647-4.072
		c-4.411-1.612-8.821-1.612-13.148,0c-1.866,0.679-3.223,1.951-3.647,4.072c-0.933,5.005-2.036,10.179-2.969,15.353
		c-0.085,0.425,0.509,1.018,0.763,1.442c0.509-0.339,1.272-0.509,1.527-0.933c1.272-2.969,2.375-5.938,3.562-8.906
		c0.17-0.339,0.339-0.679,0.594-1.103c0.339,4.411,0.594,8.567,1.103,12.724c0.424,3.139,1.102,6.277,1.781,9.416
		c0.339,1.442,1.188,2.206,2.799,1.951c0.848-0.085,1.696-0.085,2.544,0c1.273,0.17,1.951-0.424,2.376-1.527
		c0.254-0.509,0.509-1.103,0.594-1.611c0.678-4.156,1.357-8.313,1.866-12.554c0.339-2.715,0.424-5.514,0.678-8.652
		c0.255,0.594,0.425,0.848,0.509,1.103c1.188,2.969,2.375,5.938,3.562,8.906c0.509,1.357,1.103,1.442,2.375,0.678
		c2.205-1.442,4.496-2.799,6.871-4.241c0.085,0.594,0.254,1.018,0.254,1.357c0.17,2.629,0.339,5.344,0.594,7.973
		c0.255,2.375,0.679,4.666,1.188,6.956c0.085,0.594,0.848,1.443,1.272,1.443c1.527,0,2.799,0.169,4.326-0.085
		c0.169,0,0.594-0.764,0.678-0.933c0.17-0.509,0.425-1.103,0.509-1.612c0.424-2.8,0.764-5.599,1.103-8.482
		c0.255-2.121,0.34-4.327,0.509-6.702c2.46,1.527,4.666,2.799,6.871,4.157c1.612,1.018,2.037,0.848,2.8-0.849
		c1.272-3.053,2.63-6.107,3.987-9.161c0.085-0.255,0.254-0.509,0.424-0.764c0.085,1.442,0.085,2.8-0.254,4.072
		c-0.764,3.478-1.527,6.956-2.375,10.433c-0.254,1.018,0.084,1.273,1.018,1.273c1.103,0,2.206,0,3.054,0
		c0.679,2.629,1.273,5.089,1.951,7.464c0.255,0.933,0.849,1.442,1.951,1.442c2.121-0.085,2.375-0.085,2.97-2.121
		c0.593-2.205,1.102-4.411,1.612-6.786c1.187,0,2.29,0,3.393,0c0.763,0,1.018-0.255,0.848-1.103
		c-0.509-2.206-1.103-4.496-1.527-6.786c-0.509-2.545-0.933-5.174-1.442-7.804c0.17,0,0.339-0.085,0.509-0.085
		c1.357,3.224,2.714,6.447,4.157,9.585c0.339,0.849,0.509,2.206,1.866,1.782C229.537,208.843,228.943,207.571,228.689,206.723z"/>
	<path fill="#249ff6" d="M216.134,186.279c4.072,0,7.295-3.139,7.38-7.21c0-4.071-3.139-7.294-7.21-7.294c-4.157,0-7.295,3.139-7.295,7.21
		C209.009,183.141,212.147,186.279,216.134,186.279z"/>
	<path fill="#249ff6" d="M165.918,186.279c3.987,0,7.21-3.223,7.21-7.21c0-4.071-3.139-7.294-7.21-7.294c-4.156,0-7.294,3.139-7.294,7.21
		C158.708,183.141,161.847,186.279,165.918,186.279z"/>
	<path fill="#249ff6" d="M191.281,199.088c3.393,0,6.192-2.8,6.192-6.192c0-3.308-2.885-6.193-6.192-6.193c-3.393,0-6.192,2.885-6.192,6.193
		C185.004,196.204,187.888,199.088,191.281,199.088z"/>
</g>
</svg>
