<svg xmlns="http://www.w3.org/2000/svg" xmlns:xlink="http://www.w3.org/1999/xlink" version="1.1" x="0px" y="0px" viewBox="0 0 100 100" enable-background="new 0 0 100 100" xml:space="preserve"><g><path d="M58.296,60.819c0.429,0.287,0.923,0.431,1.418,0.431s0.99-0.144,1.418-0.431c0.873-0.582,21.401-14.377,28.963-28.234   c1.871-2.898,2.858-6.245,2.858-9.688C92.953,13.027,84.924,5,75.056,5c-7.257,0-12.631,6.021-15.341,9.167   C57.004,11.021,51.631,5,44.375,5c-9.87,0-17.899,8.027-17.899,17.897c0,3.442,0.989,6.789,2.858,9.688   C36.895,46.442,57.423,60.237,58.296,60.819z M44.375,10.112c5.112,0,9.388,4.975,11.687,7.648   c1.428,1.662,2.215,2.579,3.653,2.579s2.225-0.917,3.655-2.579c2.297-2.674,6.573-7.648,11.687-7.648   c7.049,0,12.784,5.736,12.784,12.785c0,2.481-0.721,4.896-2.083,6.979c-0.038,0.059-0.075,0.12-0.108,0.182   c-5.84,10.787-21.186,22.169-25.934,25.523c-4.748-3.354-20.092-14.736-25.934-25.523c-0.034-0.062-0.07-0.123-0.108-0.182   c-1.362-2.083-2.083-4.497-2.083-6.979C31.589,15.849,37.324,10.112,44.375,10.112z"/><path d="M90.461,60.201c-4.676-2.739-8.597,1.323-10.074,2.851c-3.113,3.225-6.863,6.413-8.761,7.979   c-0.806-0.361-1.695-0.566-2.631-0.575c-5.783-0.311-14.897-1.354-17.178-2.71c-2.451-1.457-4.414-2.88-6.145-4.134   c-4.975-3.606-8.903-6.452-18.686-6.452c-2.836,0-5.322,0.786-7.727,1.548c-2.468,0.782-4.8,1.521-7.613,1.521   c-3.103,0-5.625,2.522-5.625,5.625V80.17c0,3.103,2.522,5.625,5.625,5.625c5.348,0,13.709,0.275,15.554,0.891   c3.325,1.108,11.118,5.729,13.84,7.415c0.035,0.021,0.07,0.043,0.105,0.062C42.13,94.71,43.247,95,44.375,95h26   c2.752,0,5.811-2.546,6.872-4.307c3.409-5.657,15.633-21.05,15.756-21.205c0.11-0.14,0.205-0.29,0.284-0.448   C94.871,65.872,93.655,62.071,90.461,60.201z M70.374,89.885h-26c-0.246,0-0.489-0.059-0.706-0.17   c-0.961-0.595-10.421-6.404-14.851-7.88c-3.294-1.098-14.883-1.154-17.171-1.154c-0.283,0-0.513-0.229-0.513-0.511V65.853   c0-0.284,0.23-0.513,0.513-0.513c3.602,0,6.554-0.935,9.155-1.758c2.222-0.703,4.14-1.31,6.185-1.31   c8.124,0,10.97,2.062,15.686,5.479c1.819,1.318,3.882,2.812,6.53,4.389c1.33,0.791,3.533,1.412,6.003,1.895   c5.309,1.038,11.848,1.438,13.579,1.53c0.044,0.003,0.089,0.003,0.135,0.003c0.845,0,1.534,0.688,1.534,1.535   c0,0.846-0.688,1.532-1.534,1.532c-0.045,0-0.089,0.003-0.135,0.005l-19.348,1.018c-1.541-0.056-5.177-2.631-7.592-4.339   c-0.625-0.444-1.235-0.87-1.835-1.284c-1.307-0.904-2.555-1.716-3.697-2.287c-1.263-0.635-2.798-0.12-3.429,1.143   s-0.12,2.799,1.143,3.431c1.317,0.657,3.04,1.878,4.865,3.17c3.835,2.716,7.459,5.282,10.597,5.282   c0.045,0,0.091-0.002,0.135-0.003l19.373-1.021c3.631-0.04,6.573-3.008,6.573-6.646c0-0.823-0.149-1.611-0.425-2.341   c2.051-1.699,5.745-4.866,8.924-8.156c2.178-2.256,3.047-2.44,3.812-1.992c0.678,0.398,1.175,1.175,0.913,1.954   c-1.699,2.145-12.558,15.899-15.924,21.486C72.42,88.795,70.92,89.827,70.374,89.885z"/></g></svg>