<?xml version="1.0" encoding="utf-8"?>
<!-- Generator: Adobe Illustrator 15.0.0, SVG Export Plug-In . SVG Version: 6.00 Build 0)  -->
<!DOCTYPE svg PUBLIC "-//W3C//DTD SVG 1.1//EN" "http://www.w3.org/Graphics/SVG/1.1/DTD/svg11.dtd">
<svg version="1.1" id="Layer_1" xmlns="http://www.w3.org/2000/svg" xmlns:xlink="http://www.w3.org/1999/xlink" x="0px" y="0px"
	 width="119px" height="107px" viewBox="0 0 119 107" enable-background="new 0 0 119 107" xml:space="preserve">
<path fill="#66cb80" d="M56.029,35.72C39.014,54.993,27.725,66.806,27.725,66.806l14.589,2.428L56.029,35.72z"/>
<path fill="#66cb80" d="M84.858,47.292c-1.077-1.155-2.892-1.217-4.05-0.134l-6.472,6.046l0.451-9.745
	c0.071-1.582-1.152-2.923-2.729-2.996c-0.27-0.012-0.533,0.019-0.781,0.076l-8.087-3.029l1.605-4.377
	c0.588,1.871,1.927,3.502,3.845,4.398c3.627,1.706,7.952,0.141,9.654-3.487c1.703-3.628,0.143-7.951-3.489-9.655
	c-2.327-1.09-4.935-0.839-6.958,0.435l6.219-16.953c0.548-1.485-0.218-3.132-1.701-3.677c-1.488-0.545-3.135,0.216-3.678,1.701
	L56.985,37.792c-0.019,0.051-0.036,0.104-0.048,0.154l-10.11,24.167l0.037,0.021c-0.116,0.207-0.22,0.419-0.303,0.648l-13.237,36.79
	c-0.802,2.237,0.357,4.699,2.592,5.499c0.48,0.176,0.971,0.257,1.454,0.257c1.762,0,3.413-1.091,4.045-2.846l13.111-36.446
	l3.003,1.528L50.8,79.09c-1.2,2.048-0.506,4.684,1.542,5.881c0.682,0.399,1.428,0.587,2.161,0.587c1.48,0,2.917-0.766,3.717-2.132
	l9.761-16.712c1.198-2.048,0.505-4.682-1.543-5.879c-0.32-0.189-0.658-0.321-1-0.419l3.138-6.682l-0.286,6.238
	c-0.056,1.164,0.605,2.244,1.658,2.733c0.385,0.176,0.798,0.264,1.201,0.264c0.713,0,1.415-0.264,1.959-0.772l11.614-10.855
	C85.879,50.262,85.938,48.45,84.858,47.292z"/>
</svg>
