<?xml version="1.0" encoding="utf-8"?>
<!-- Generator: Adobe Illustrator 15.0.0, SVG Export Plug-In . SVG Version: 6.00 Build 0)  -->
<!DOCTYPE svg PUBLIC "-//W3C//DTD SVG 1.1//EN" "http://www.w3.org/Graphics/SVG/1.1/DTD/svg11.dtd">
<svg version="1.1" id="Layer_2" xmlns="http://www.w3.org/2000/svg" xmlns:xlink="http://www.w3.org/1999/xlink" x="0px" y="0px"
	 width="24.389px" height="54.903px" viewBox="171.452 168.597 24.389 54.903"
	 enable-background="new 171.452 168.597 24.389 54.903" xml:space="preserve">
<path d="M192.521,201.176c-1.954,0-3.318,1.582-3.318,3.359c0,1.58,2.368,1.58,2.368,0c0-0.533,0.422-0.969,0.951-0.989
	c0.53,0.02,0.951,0.455,0.951,0.989v17.752c0,1.578,2.368,1.578,2.368,0v-17.752C195.841,202.758,194.46,201.176,192.521,201.176z
	 M182.613,176.983c2.316,0,4.193-1.877,4.193-4.193s-1.877-4.193-4.193-4.193c-2.314,0-4.191,1.877-4.191,4.193
	S180.299,176.983,182.613,176.983z M187.666,185.714c0-0.431,0.58-0.43,0.639-0.023c0.072,0.419,2.129,13.287,2.129,13.287
	c0.134,0.804,1.14,1.41,1.985,1.215c0.839-0.192,1.478-1.011,1.341-1.905l-2.305-15.862c-0.29-1.859-1.675-4.138-4.545-4.138h-8.59
	c-2.87,0-4.257,2.279-4.544,4.138l-2.306,15.862c-0.134,0.894,0.502,1.712,1.341,1.905c0.846,0.194,1.852-0.411,1.987-1.215
	c0,0,2.057-12.868,2.128-13.287c0.081-0.406,0.648-0.391,0.648,0.012v7.893l-0.71,27.365c-0.159,3.331,4.428,3.317,4.6,0.229
	c0,0,0.738-20.236,0.757-20.431c0.031-0.598,0.82-0.605,0.847,0l0.818,20.499c0.179,3.042,4.79,3.012,4.599-0.243l-0.821-27.497
	L187.666,185.714z"/>
</svg>
