<?xml version="1.0" encoding="utf-8"?>
<!-- Generator: Adobe Illustrator 15.0.0, SVG Export Plug-In . SVG Version: 6.00 Build 0)  -->
<!DOCTYPE svg PUBLIC "-//W3C//DTD SVG 1.1//EN" "http://www.w3.org/Graphics/SVG/1.1/DTD/svg11.dtd">
<svg version="1.1" id="Layer_1" xmlns="http://www.w3.org/2000/svg" xmlns:xlink="http://www.w3.org/1999/xlink" x="0px" y="0px"
	 width="119px" height="107px" viewBox="0 0 119 107" enable-background="new 0 0 119 107" xml:space="preserve">
<path fill="#010101" d="M99.35,36.952L44.453,91.889c-0.682,0.682-1.517,1.059-2.38,1.299v0.092l-26.755,4.982l5.023-26.711h0.094
	c0.235-0.863,0.615-1.699,1.297-2.379L76.629,14.23c2.092-2.092,5.488-2.092,7.578,0L99.35,29.378
	C101.439,31.471,101.439,34.86,99.35,36.952L99.35,36.952z M29,90.254c-1.616-2.121-3.51-4.014-5.628-5.629l-1.442,7.07L29,90.254
	L29,90.254z M26.02,71.551l-2.079,10.238c3.071,2.156,5.738,4.82,7.891,7.889l10.24-2.076l0.013-0.045
	c-2.982-7.258-8.763-13.037-16.021-16.02L26.02,71.551L26.02,71.551z M82.305,19.875c-1.043-1.044-2.739-1.044-3.783,0
	L28.636,69.752c1.773,0.84,3.426,1.859,5,2.994l50.771-50.769L82.305,19.875L82.305,19.875z M86.299,23.868L35.751,74.406
	c1.241,1.064,2.397,2.221,3.464,3.465l50.538-50.546L86.299,23.868L86.299,23.868z M93.662,31.233l-2.017-2.018L40.877,79.986
	c1.11,1.541,2.116,3.152,2.945,4.879l49.84-49.845C94.714,33.974,94.714,32.282,93.662,31.233L93.662,31.233z"/>
</svg>
