<?xml version="1.0" encoding="utf-8"?>
<!-- Generator: Adobe Illustrator 15.0.0, SVG Export Plug-In . SVG Version: 6.00 Build 0)  -->
<!DOCTYPE svg PUBLIC "-//W3C//DTD SVG 1.1//EN" "http://www.w3.org/Graphics/SVG/1.1/DTD/svg11.dtd">
<svg version="1.1" id="Layer_1" xmlns="http://www.w3.org/2000/svg" xmlns:xlink="http://www.w3.org/1999/xlink" x="0px" y="0px"
	 width="119px" height="107px" viewBox="0 0 119 107" enable-background="new 0 0 119 107" xml:space="preserve">
<path fill="#010101" d="M57.002,74.953"/>
<path fill="#010101" d="M57.002,35.583"/>
<path fill="#010101" d="M57.002,74.953"/>
<path fill="#010101" d="M57.002,35.583"/>
<g>
	<path fill="#010101" d="M111.6,49.775L61.217,10.589c-0.688-0.537-1.647-0.537-2.338,0L8.496,49.775
		c-0.829,0.647-0.979,1.841-0.333,2.671c0.647,0.831,1.841,0.979,2.671,0.333l9.842-7.653v53.442c0,1.047,0.85,1.902,1.901,1.902
		h24.04h26.864h24.039c1.053,0,1.904-0.853,1.904-1.902V45.126l9.842,7.653c0.829,0.646,2.024,0.497,2.669-0.333
		C112.581,51.616,112.43,50.421,111.6,49.775z M69.676,96.664H50.42v-21.16c0-5.31,4.32-9.625,9.628-9.625
		c5.309,0,9.628,4.315,9.628,9.625V96.664z M95.618,96.664H73.48v-21.16c0-7.402-6.027-13.432-13.433-13.432
		c-7.406,0-13.432,6.029-13.432,13.432v21.16H24.478V42.167L60.048,14.5l35.57,27.665V96.664z"/>
	<path fill="#010101" d="M60.364,45.025c0,3.95,3.214,7.162,7.163,7.162c3.951,0,7.164-3.212,7.164-7.162
		c0-3.951-3.213-7.164-7.164-7.164C63.578,37.861,60.364,41.074,60.364,45.025z M71.137,45.025c0,1.988-1.62,3.608-3.609,3.608
		c-1.988,0-3.607-1.62-3.607-3.608c0-1.99,1.619-3.61,3.607-3.61C69.517,41.415,71.137,43.036,71.137,45.025z"/>
</g>
</svg>
