<svg version="1.1" id="Layer_1" xmlns="http://www.w3.org/2000/svg" xmlns:xlink="http://www.w3.org/1999/xlink" x="0px" y="0px"
	 width="119px" height="107px" viewBox="0 0 119 107" enable-background="new 0 0 119 107" xml:space="preserve">
<g>
	<path fill="#ff1e00" d="M60.5,8.215c-25.687,0-46.585,20.898-46.585,46.585s20.898,46.585,46.585,46.585s46.585-20.896,46.585-46.585
		C107.085,29.112,86.187,8.215,60.5,8.215z M60.5,94.029c-21.631,0-39.229-17.599-39.229-39.23S38.87,15.57,60.5,15.57
		c21.631,0,39.229,17.599,39.229,39.23C99.729,76.432,82.131,94.029,60.5,94.029z"/>
	<path fill="#ff1e00" d="M84.158,32.497c-1.436-1.435-3.763-1.435-5.201,0L60.74,50.715L42.523,32.497c-1.437-1.435-3.765-1.435-5.201,0
		c-1.437,1.438-1.437,3.765,0,5.202L55.54,55.917L37.322,74.133c-1.437,1.438-1.437,3.766,0,5.202
		c0.718,0.717,1.659,1.076,2.6,1.076s1.883-0.357,2.6-1.076L60.74,61.118l18.217,18.217c0.719,0.717,1.659,1.076,2.601,1.076
		s1.883-0.357,2.6-1.076c1.437-1.437,1.437-3.764,0-5.202L65.94,55.917l18.217-18.218C85.597,36.262,85.597,33.935,84.158,32.497z"
		/>
</g>
</svg>
