<?xml version="1.0" encoding="utf-8"?>
<!-- Generator: Adobe Illustrator 15.0.0, SVG Export Plug-In . SVG Version: 6.00 Build 0)  -->
<!DOCTYPE svg PUBLIC "-//W3C//DTD SVG 1.1//EN" "http://www.w3.org/Graphics/SVG/1.1/DTD/svg11.dtd">
<svg version="1.1" id="Layer_1" xmlns="http://www.w3.org/2000/svg" xmlns:xlink="http://www.w3.org/1999/xlink" x="0px" y="0px"
	 width="20.393px" height="59px" viewBox="174.452 165.5 20.393 59" enable-background="new 174.452 165.5 20.393 59"
	 xml:space="preserve">
<path d="M178.976,220.398c0,1.543,0.75,2.315,2.254,2.315c1.507,0,2.26-0.772,2.26-2.315v-20.852h2.316v20.853
	c0,1.543,0.755,2.315,2.26,2.315c1.506,0,2.262-0.772,2.262-2.315v-35.523h1.101v12.796c0,0.81,0.276,1.397,0.828,1.765
	c0.55,0.367,1.116,0.367,1.71,0c0.586-0.367,0.879-0.955,0.879-1.765v-13.79c0-1.471-0.499-2.609-1.488-3.419
	c-0.99-0.81-2.367-1.216-4.132-1.216h-9.04c-1.691,0-3.066,0.369-4.131,1.104c-1.065,0.735-1.602,1.875-1.602,3.421v14.672
	c0,0.661,0.295,1.139,0.884,1.433c0.587,0.295,1.157,0.295,1.708,0c0.549-0.294,0.828-0.771,0.828-1.433v-13.568h1.105v35.522
	H178.976z"/>
<path d="M179.853,172.574c0,1.288,0.458,2.391,1.375,3.31c0.922,0.919,2.022,1.38,3.307,1.38c1.29,0,2.389-0.461,3.312-1.38
	c0.916-0.918,1.376-2.041,1.376-3.366c0-1.248-0.46-2.334-1.376-3.252c-0.924-0.919-2.021-1.38-3.312-1.38
	c-1.283,0-2.385,0.461-3.307,1.38C180.312,170.184,179.853,171.287,179.853,172.574z"/>
<path d="M179.853,172.574c0,1.288,0.458,2.391,1.375,3.31c0.922,0.919,2.022,1.38,3.307,1.38c1.29,0,2.389-0.461,3.312-1.38
	c0.916-0.918,1.376-2.041,1.376-3.366c0-1.248-0.46-2.334-1.376-3.252c-0.924-0.919-2.021-1.38-3.312-1.38
	c-1.283,0-2.385,0.461-3.307,1.38C180.312,170.184,179.853,171.287,179.853,172.574z"/>
</svg>
