<?xml version="1.0" encoding="utf-8"?>
<!-- Generator: Adobe Illustrator 15.0.0, SVG Export Plug-In . SVG Version: 6.00 Build 0)  -->
<!DOCTYPE svg PUBLIC "-//W3C//DTD SVG 1.1//EN" "http://www.w3.org/Graphics/SVG/1.1/DTD/svg11.dtd">
<svg version="1.1" id="Layer_1" xmlns="http://www.w3.org/2000/svg" xmlns:xlink="http://www.w3.org/1999/xlink" x="0px" y="0px"
	 width="119px" height="107px" viewBox="0 0 119 107" enable-background="new 0 0 119 107" xml:space="preserve">
<g>
	<path fill="#ff520f" d="M60.161,40.787c-0.644,0-1.286-0.157-1.863-0.472c-0.564-0.307-13.877-7.61-19.071-15.796
		c-2.737-4.315-3.126-9.11-1.067-13.154c1.978-3.883,5.975-6.617,10.434-7.133c0.488-0.057,0.99-0.085,1.489-0.085
		c4.125,0,7.743,1.91,10.078,3.539c2.335-1.629,5.954-3.539,10.078-3.539c0.5,0,1.001,0.029,1.49,0.085
		c4.458,0.517,8.456,3.25,10.434,7.133c2.06,4.044,1.671,8.84-1.067,13.154c-5.193,8.187-18.507,15.49-19.069,15.796
		C61.448,40.63,60.806,40.787,60.161,40.787z M50.083,11.337c-0.192,0-0.387,0.01-0.582,0.033c-1.918,0.222-3.71,1.454-4.568,3.138
		c-0.947,1.86-0.693,4.031,0.736,6.284c2.961,4.668,10.296,9.682,14.49,12.2c4.196-2.522,11.54-7.545,14.493-12.2
		c1.429-2.252,1.684-4.424,0.736-6.284c-0.857-1.684-2.65-2.916-4.567-3.138c-0.196-0.023-0.39-0.033-0.582-0.033
		c-3.084,0-6.435,2.632-7.367,3.555c-1.419,1.405-4.004,1.405-5.422,0C56.442,13.911,53.134,11.337,50.083,11.337z"/>
	<g>
		<path fill="#ff520f" d="M109.658,101.432H10.664c-2.08,0-3.766-1.609-3.766-3.597V38.654c0-1.985,1.686-3.596,3.766-3.596h98.994
			c2.079,0,3.767,1.61,3.767,3.596v59.181C113.425,99.822,111.737,101.432,109.658,101.432z M14.43,94.239h91.464V42.25H14.43
			V94.239z"/>
		<path fill="#ff520f" d="M60.161,101.432c-2.08,0-3.767-1.609-3.767-3.597V38.654c0-1.985,1.687-3.596,3.767-3.596
			c2.081,0,3.766,1.61,3.766,3.596v59.181C63.927,99.822,62.242,101.432,60.161,101.432z"/>
		<path fill="#ff520f" d="M109.658,58.646H10.664c-2.08,0-3.766-1.61-3.766-3.596c0-1.987,1.686-3.596,3.766-3.596h98.994
			c2.079,0,3.767,1.609,3.767,3.596C113.425,57.035,111.737,58.646,109.658,58.646z"/>
	</g>
</g>
</svg>
