<?xml version="1.0" encoding="utf-8"?>
<!-- Generator: Adobe Illustrator 15.0.0, SVG Export Plug-In . SVG Version: 6.00 Build 0)  -->
<!DOCTYPE svg PUBLIC "-//W3C//DTD SVG 1.1//EN" "http://www.w3.org/Graphics/SVG/1.1/DTD/svg11.dtd">
<svg version="1.1" id="Layer_1" xmlns="http://www.w3.org/2000/svg" xmlns:xlink="http://www.w3.org/1999/xlink" x="0px" y="0px"
	 width="119px" height="107px" viewBox="0 0 119 107" enable-background="new 0 0 119 107" xml:space="preserve">
<g>
	<path fill="#010101" d="M100.326,56.99l-40.13,40.131L20.064,56.99c-0.565-0.564-1.098-1.152-1.603-1.76
		c6.755,0.322,18.271,0.898,18.922,0.986h0.013c0.717-0.003,1.417-0.367,1.821-1.024l10.24-16.746l11.16,32.91
		c0.17,0.501,0.522,0.939,1.022,1.204c1.044,0.553,2.34,0.158,2.893-0.889L77.06,48.053c0.565-0.056,22.685-1.027,29.519-1.304
		C105.379,50.497,103.297,54.021,100.326,56.99 M20.064,20.899l1.436-1.436C26.476,14.487,33.009,12,39.546,12
		c6.535,0,13.07,2.487,18.044,7.463l2.605,2.604l2.604-2.604c4.82-4.821,11.229-7.476,18.048-7.476
		c6.814,0,13.223,2.655,18.043,7.476l1.436,1.436c6.625,6.622,8.838,16.007,6.645,24.477c-6.445-0.266-30.298-1.352-31.274-1.46
		c-0.711-0.077-1.435,0.277-1.788,0.948l-0.103,0.189L63.076,65.286L52.043,32.743c-0.156-0.458-0.465-0.866-0.91-1.138
		c-1.008-0.618-2.325-0.3-2.943,0.708l-12.091,19.77c-0.373,0.04-13.283,0.577-19.364,0.816c-2.699-4.112-4.146-8.922-4.146-13.956
		C12.589,32.127,15.244,25.719,20.064,20.899 M103.354,17.872l-1.435-1.435c-5.631-5.629-13.113-8.729-21.071-8.729
		c-7.765,0.001-15.073,2.948-20.651,8.315C48.545,4.821,29.953,4.957,18.473,16.437l-1.436,1.435
		C11.409,23.501,8.31,30.984,8.31,38.944s3.1,15.444,8.728,21.071l43.159,43.16l42.065-42.067l1.092-1.093
		C114.973,48.396,114.973,29.49,103.354,17.872"/>
</g>
</svg>
