<?xml version="1.0" encoding="utf-8"?>
<!-- Generator: Adobe Illustrator 15.0.0, SVG Export Plug-In . SVG Version: 6.00 Build 0)  -->
<!DOCTYPE svg PUBLIC "-//W3C//DTD SVG 1.1//EN" "http://www.w3.org/Graphics/SVG/1.1/DTD/svg11.dtd">
<svg version="1.1" id="Layer_3" xmlns="http://www.w3.org/2000/svg" xmlns:xlink="http://www.w3.org/1999/xlink" x="0px" y="0px"
	 width="38.125px" height="55.875px" viewBox="163.625 168.625 38.125 55.875"
	 enable-background="new 163.625 168.625 38.125 55.875" xml:space="preserve">
<path d="M200.921,211.618l-3.642-6.308c0.333-0.255,0.646-0.521,0.914-0.809c0.414-0.441,0.49-1.102,0.187-1.626l-4.45-7.71
	c0.323-0.236,0.619-0.487,0.87-0.76c0.317-0.346,0.374-0.857,0.139-1.263l-4.867-8.429c0.29-0.198,0.546-0.414,0.754-0.656
	c0.201-0.232,0.232-0.566,0.079-0.831l-7.634-13.224c-0.129-0.224-0.367-0.361-0.625-0.361c-0.258,0-0.496,0.138-0.625,0.36
	l-7.635,13.224c-0.157,0.273-0.12,0.617,0.094,0.849c0.21,0.229,0.463,0.436,0.747,0.626l-4.875,8.441
	c-0.234,0.405-0.178,0.917,0.14,1.262c0.251,0.274,0.547,0.525,0.87,0.761l-4.451,7.71c-0.301,0.521-0.229,1.174,0.178,1.617
	c0.271,0.294,0.585,0.565,0.92,0.824l-3.638,6.301c-0.349,0.604-0.265,1.364,0.207,1.878c3.013,3.278,9.752,4.683,15.762,4.96v3.626
	c0,0.231,0.188,0.419,0.419,0.419h3.773c0.231,0,0.419-0.188,0.419-0.419v-3.628c6.015-0.286,12.738-1.691,15.757-4.954
	C201.185,212.986,201.271,212.224,200.921,211.618z"/>
</svg>
