<?xml version="1.0" encoding="utf-8"?>
<!-- Generator: Adobe Illustrator 15.0.0, SVG Export Plug-In . SVG Version: 6.00 Build 0)  -->
<!DOCTYPE svg PUBLIC "-//W3C//DTD SVG 1.1//EN" "http://www.w3.org/Graphics/SVG/1.1/DTD/svg11.dtd">
<svg version="1.1" id="Layer_1" xmlns="http://www.w3.org/2000/svg" xmlns:xlink="http://www.w3.org/1999/xlink" x="0px" y="0px"
	 width="119px" height="107px" viewBox="0 0 119 107" enable-background="new 0 0 119 107" xml:space="preserve">
<path fill="#010101" d="M50.67,37.794l7.764-7.764v40.276c0,1.545,1.253,2.797,2.798,2.797c1.544,0,2.797-1.252,2.797-2.797V30.03
	l7.763,7.764c0.546,0.545,1.262,0.819,1.977,0.819c0.716,0,1.431-0.273,1.978-0.819c1.093-1.092,1.093-2.862,0-3.955L63.208,21.301
	c-1.049-1.049-2.905-1.05-3.954,0L46.716,33.839c-1.093,1.092-1.093,2.863,0,3.955C47.808,38.886,49.579,38.886,50.67,37.794z
	 M99.45,73.104c-1.544,0-2.797,1.253-2.797,2.797v6.525H25.808V75.9c0-1.544-1.252-2.797-2.797-2.797
	c-1.544,0-2.796,1.253-2.796,2.797v9.321c0,1.545,1.252,2.797,2.796,2.797H99.45c1.545,0,2.797-1.252,2.797-2.797V75.9
	C102.247,74.356,100.995,73.104,99.45,73.104z"/>
</svg>
