<?xml version="1.0" encoding="UTF-8" standalone="no"?>
<!-- Created with Inkscape (http://www.inkscape.org/) -->
<svg xmlns:svg="http://www.w3.org/2000/svg" xmlns="http://www.w3.org/2000/svg" version="1.0" width="732" height="225" viewBox="0 0 88.0487 26.9959" id="svg2" xml:space="preserve">
 <defs id="defs4">
  <style type="text/css" id="style6"/>
 
  
  
  
  
  
  
 </defs>
 <g id="g5088"><polygon points="31.0183,26.6077 35.4754,0.453591 42.6041,0.453591 38.1441,26.6077 31.0183,26.6077 " style="fill:#004686;stroke:none" id="polygon10"/><path d="M 63.9988,1.09833 C 62.58648,0.567483 60.37334,0 57.60947,0 C 50.56588,-0.000710068 45.60377,3.54707 45.56177,8.63087 C 45.522148,12.38869 49.10401,14.48524 51.80809,15.73623 C 54.58289,17.01719 55.51564,17.83547 55.50243,18.98039 C 55.484962,20.73255 53.28659,21.53422 51.23762,21.53422 C 48.38443,21.533936 46.86857,21.138002 44.52748,20.16152 L 43.608936,19.745136 L 42.608446,25.599926 C 44.273696,26.330302 47.352406,26.962976 50.549136,26.995916 C 58.042626,26.99549 62.907136,23.489316 62.962436,18.060706 C 62.989419,15.085096 61.090126,12.821396 56.977556,10.954776 C 54.485926,9.744256 52.959706,8.937616 52.975896,7.712606 C 52.976038,6.625206 54.267506,5.462966 57.058216,5.462966 C 59.389656,5.4259005 61.077906,5.935019 62.393526,6.464876 L 63.032587,6.766087 L 63.998847,1.098327 L 63.9988,1.09833 z " style="fill:#004686;stroke:none" id="path12"/><path d="M 82.279,0.478444 L 76.77015,0.478444 C 75.06386,0.478444 73.78673,0.945243 73.03718,2.648414 L 62.45038,26.615614 L 69.93577,26.615614 C 69.93577,26.615614 71.15993,23.393464 71.43685,22.686104 C 72.255132,22.686104 79.52665,22.697323 80.56619,22.697323 C 80.779778,23.6126 81.433609,26.616183 81.433609,26.616183 L 88.048739,26.615615 L 82.279009,0.47841505 M 73.488229,17.336115 C 74.077869,15.829065 76.328359,10.025685 76.328359,10.025685 C 76.286607,10.094846 76.913455,8.511395 77.273601,7.529515 L 77.756021,9.783695 C 77.756021,9.783695 79.120491,16.027325 79.405791,17.336545 L 73.488231,17.336119 L 73.488229,17.336115 z " style="fill:#004686;stroke:none" id="path14"/><path d="M 25.0395,0.472763 L 18.06053,18.307863 L 17.316805,14.683823 C 16.017665,10.505213 11.969285,5.979243 7.443735,3.713023 L 13.825395,26.585123 L 21.367735,26.576176 L 32.590535,0.47277615 L 25.039535,0.47277615 L 25.0395,0.472763 z " style="fill:#004686;stroke:none" id="path16"/><path d="M 11.586,0.457 L 0.091,0.457 L -3.07e-005,1.00148 C 8.9428493,3.16577 14.860269,8.39797 17.316669,14.68378 L 14.817089,2.66528 C 14.385652,1.00926 13.133949,0.51519 11.585999,0.45697 L 11.586,0.457 z " style="fill:#ef9b11" id="path18"/></g>
</svg>