<?xml version="1.0" encoding="utf-8"?>
<svg version="1.1" id="Layer_1" xmlns="http://www.w3.org/2000/svg" xmlns:xlink="http://www.w3.org/1999/xlink" x="0px" y="0px"
	 width="611.97px" height="141.73px" viewBox="0 0 611.97 141.73" enable-background="new 0 0 611.97 141.73" xml:space="preserve">
<path fill="#EF3C49" d="M302.236,19.605c2.147-0.473,4.358-0.276,6.539-0.334c2.557,0.05,5.156-0.176,7.671,0.426
	c6.181,1.07,12.34,2.862,17.704,6.188c9.373,5.345,16.868,13.81,21.26,23.65c2.996,6.856,4.438,14.345,4.53,21.807
	c-0.38,3.719-0.513,7.501-1.563,11.115c-3.656,16.325-15.94,30.428-31.646,36.215c-3.82,1.421-7.835,2.21-11.834,2.934
	c-2.972,0.689-6.038,0.41-9.055,0.41c-4.593-0.678-9.147-1.689-13.551-3.163c-16.643-5.964-29.479-21.24-32.613-38.622
	c-0.364-2.115-0.911-4.217-0.84-6.378c0.063-3.897-0.321-7.859,0.581-11.695c1.596-10.242,6.498-19.89,13.618-27.398
	c1.788-1.713,3.647-3.36,5.515-4.985c2.591-1.985,5.39-3.698,8.261-5.252C291.634,22.033,296.933,20.633,302.236,19.605z"/>
<path fill="#FFFFFF" d="M287.825,40.849c1.83-0.153,3.68-0.125,5.51-0.021c5.452,0.821,10.252,3.82,14.384,7.339
	c4.68-4.062,10.481-7.588,16.881-7.427c4.688-0.232,9.252,1.888,12.654,5.021c4.104,3.982,6.381,9.617,6.684,15.284
	c-0.008,3.145,0.42,6.538-1.356,9.339c-0.833-0.133-1.875,0.062-2.423-0.746c-0.225-1.531,0.083-3.062,0.315-4.572
	c0.535-4.917-0.81-9.99-3.493-14.123c-2.315-3.526-6.165-6.008-10.355-6.571c-2.406-0.531-4.863,0.091-7.174,0.759
	c-3.588,1.087-6.684,3.307-9.417,5.809c-0.842,0.618-1.656,1.672-2.817,1.469c-1.519-1.004-2.767-2.361-4.228-3.447
	c-3.282-2.664-7.352-4.323-11.55-4.768c-4.692-0.207-9.376,1.971-12.272,5.672c-3.041,3.65-4.091,8.488-4.506,13.109
	c0.212,4.572,1.643,9.045,3.817,13.061c3.543,6.364,8.435,11.87,13.778,16.778c3.771,3.323,7.734,6.477,12.119,8.949
	c1.22,0.531,2.598,1.605,3.946,0.842c2.12-0.938,4.029-2.277,5.967-3.534c5.658-3.692,10.943-8.028,15.291-13.223
	c1.287-1.594,2.738-3.157,3.32-5.169c-1.402-0.029-2.805,0.058-4.199-0.079c-0.879-0.158-0.594-1.287-0.646-1.913
	c0.236-0.854,1.269-0.585,1.916-0.651c2.651,0.179,5.27-0.718,7.912-0.298c1.096,0.816,0.498,2.356,0.771,3.513
	c0.395,2.249,0.262,4.531,0.361,6.801c-0.738,0.411-2.199,1.062-2.619-0.07c-0.128-1.535-0.02-3.074-0.09-4.609
	c-0.996,0.639-1.909,1.414-2.535,2.431c-2.254,3.364-5.211,6.153-8.115,8.94c-5.016,4.647-10.846,8.277-16.666,11.804
	c-1.564,0.631-3.436,0.37-4.8-0.618c-3.415-2.273-7.045-4.244-10.157-6.945c-3.39-2.534-6.331-5.58-9.289-8.588
	c-5.696-6.252-10.754-13.434-12.916-21.715c-0.382-3.522-0.224-7.095-0.112-10.629c0.913-4.934,3.369-9.684,7.215-12.97
	C281.436,42.897,284.56,41.441,287.825,40.849z"/>
<g>
	<path d="M17.788,72.573c0.78,6.695,4.16,10.271,10.92,10.271c3.64,0,6.89-1.364,10.141-3.12l1.69,2.73
		c-3.055,2.08-7.15,3.771-11.831,3.771c-9.75,0-14.82-6.046-14.82-16.706c0-8.97,5.59-16.966,14.105-16.966
		c6.435,0,11.765,3.771,11.765,9.881c0,7.67-7.085,10.14-14.3,10.14H17.788z M17.593,69.193h7.865c8.905,0,10.595-3.705,10.595-6.76
		c0-4.03-3.315-6.695-8.06-6.695C21.688,55.738,17.658,62.499,17.593,69.193z"/>
	<path d="M62.573,86.484c-5.655,0-8.45-4.42-9.686-8.775l-6.825-23.856l3.51-0.975l6.825,23.855
		c0.975,3.641,2.925,6.176,6.305,6.631l9.621-30.486l3.38,1.105L65.628,86.095C64.523,86.354,63.548,86.484,62.573,86.484z"/>
	<path d="M85.127,72.573c0.78,6.695,4.16,10.271,10.92,10.271c3.64,0,6.89-1.364,10.141-3.12l1.69,2.73
		c-3.055,2.08-7.15,3.771-11.831,3.771c-9.75,0-14.82-6.046-14.82-16.706c0-8.97,5.59-16.966,14.105-16.966
		c6.435,0,11.765,3.771,11.765,9.881c0,7.67-7.085,10.14-14.3,10.14H85.127z M84.932,69.193h7.865c8.905,0,10.595-3.705,10.595-6.76
		c0-4.03-3.315-6.695-8.06-6.695C89.027,55.738,84.997,62.499,84.932,69.193z"/>
	<path d="M139.662,85.574c-1.365-2.601-1.69-6.175-1.69-8.71c0-4.096,0.52-7.085,0.52-13.131c0-5.33-2.405-7.8-7.345-7.8
		c-4.615,0-7.605,2.47-10.596,6.565v0.13v22.946h-3.575V62.628c0-3.445-0.91-5.916-2.6-7.735l2.21-2.145
		c2.08,1.495,3.12,3.705,3.575,5.98c2.86-4.16,6.63-6.175,10.986-6.175c7.54,0,10.92,3.835,10.92,10.466
		c0,6.175-0.52,10.01-0.52,14.235c0,2.86,0.39,5.33,1.56,8.32H139.662z"/>
	<path d="M152.856,52.813c0-3.445-0.91-5.915-2.6-7.735l2.21-2.145c3.25,2.34,3.965,6.305,3.965,9.88v0.39h10.271v3.575h-10.271
		v19.501c0,5.069,2.21,6.564,4.875,6.564c3.185,0,7.085-2.21,8.581-3.12l1.69,2.73c-1.365,1.105-6.436,3.771-10.92,3.771
		c-4.095,0-7.8-2.275-7.8-9.945V52.813z"/>
	<path d="M175.8,69.519c0-9.686,6.436-16.966,16.186-16.966c9.686,0,16.121,7.15,16.121,16.771c0,9.75-6.435,16.901-16.121,16.901
		C182.236,86.225,175.8,79.204,175.8,69.519z M179.505,69.324c0,8.125,4.94,13.52,12.48,13.52c7.476,0,12.416-5.59,12.416-13.65
		c0-7.995-4.94-13.26-12.416-13.26C184.446,55.933,179.505,61.328,179.505,69.324z"/>
	<path d="M215.45,79.724c2.275,1.495,5.525,3.12,9.686,3.12c3.705,0,6.955-1.43,6.955-5.395c0-9.036-16.641-4.876-16.641-17.031
		c0-4.16,3.64-7.866,9.49-7.866c2.6,0,4.875,0.13,7.8,0.39v3.38c-3.38-0.26-6.045-0.39-8.255-0.39c-3.38,0-5.265,2.145-5.265,4.485
		c0,8.97,16.641,4.81,16.641,17.031c0,6.37-5.525,8.775-11.246,8.775c-4.29,0-8.32-1.69-10.985-3.771L215.45,79.724z"/>
</g>
<g>
	<path d="M383.742,69.518c0-9.686,5.98-16.966,15.146-16.966c3.641,0,6.5,0.325,8.516,0.585V38.317h3.575v37.896
		c0,3.445,0.845,5.916,2.535,7.736l-2.21,2.145c-1.95-1.43-2.926-3.445-3.445-5.59c-1.82,3.574-5.655,5.721-10.271,5.721
		C388.747,86.225,383.742,78.812,383.742,69.518z M407.403,73.354V56.583c-1.561-0.195-4.875-0.65-8.45-0.65
		c-6.955,0-11.506,5.46-11.506,13.391c0,7.021,3.38,13.521,10.141,13.521C402.138,82.844,407.403,79.789,407.403,73.354z"/>
	<path d="M420.012,69.518c0-9.686,6.436-16.966,16.186-16.966c9.686,0,16.121,7.15,16.121,16.771
		c0,9.751-6.436,16.901-16.121,16.901C426.447,86.225,420.012,79.203,420.012,69.518z M423.717,69.323
		c0,8.126,4.94,13.521,12.48,13.521c7.476,0,12.416-5.59,12.416-13.651c0-7.995-4.94-13.26-12.416-13.26
		C428.657,55.933,423.717,61.328,423.717,69.323z"/>
	<path d="M507.762,69.258c0,9.685-5.98,16.966-15.146,16.966c-7.735,0-12.025-1.301-12.025-1.301V38.382h3.575v19.046
		c1.95-3.055,5.525-4.875,9.75-4.875C502.757,52.552,507.762,59.963,507.762,69.258z M484.166,64.253v18.005
		c1.56,0.195,4.875,0.586,8.385,0.586c6.956,0,11.506-5.461,11.506-13.391c0-7.02-3.38-13.521-10.141-13.521
		C489.626,55.933,484.751,58.663,484.166,64.253z"/>
	<path d="M518.81,72.572c0.78,6.695,4.16,10.271,10.921,10.271c3.64,0,6.891-1.365,10.141-3.121l1.689,2.73
		c-3.055,2.08-7.149,3.771-11.83,3.771c-9.75,0-14.82-6.047-14.82-16.707c0-8.97,5.59-16.966,14.105-16.966
		c6.435,0,11.766,3.771,11.766,9.881c0,7.67-7.086,10.139-14.301,10.139H518.81z M518.615,69.193h7.865
		c8.905,0,10.596-3.705,10.596-6.76c0-4.03-3.315-6.695-8.061-6.695C522.71,55.738,518.68,62.498,518.615,69.193z"/>
	<path d="M570.16,85.574V63.733c0-5.46-2.404-7.8-6.63-7.8c-3.51,0-7.54,2.405-9.295,6.37v0.325v22.946h-3.575V62.628
		c0-3.445-0.91-5.916-2.601-7.735l2.21-2.145c2.016,1.43,2.99,3.51,3.511,5.72c2.34-3.965,5.979-5.916,10.14-5.916
		c4.226,0,7.671,2.015,9.101,6.045c2.535-4.16,6.5-6.045,10.011-6.045c6.24,0,10.335,3.835,10.335,10.466
		c0,6.175-0.585,10.009-0.585,14.236c0,2.859,0.39,5.33,1.561,8.32h-3.445c-1.365-2.602-1.69-6.176-1.69-8.711
		c0-4.096,0.521-7.085,0.521-13.13c0-5.33-2.21-7.8-6.631-7.8c-4.03,0-7.085,2.08-9.36,6.435v0.65v22.556H570.16z"/>
</g>
</svg>