<?xml version="1.0" encoding="utf-8"?>
<!-- Generator: Adobe Illustrator 15.0.0, SVG Export Plug-In . SVG Version: 6.00 Build 0)  -->
<!DOCTYPE svg PUBLIC "-//W3C//DTD SVG 1.1//EN" "http://www.w3.org/Graphics/SVG/1.1/DTD/svg11.dtd">
<svg version="1.1" id="Layer_1" xmlns="http://www.w3.org/2000/svg" xmlns:xlink="http://www.w3.org/1999/xlink" x="0px" y="0px"
	 width="119px" height="107px" viewBox="0 0 119 107" enable-background="new 0 0 119 107" xml:space="preserve">
<path fill="#EF3C49" d="M59.396,41.49c0.442-0.098,0.897-0.057,1.346-0.068c0.526,0.01,1.062-0.038,1.58,0.087
	c1.272,0.22,2.54,0.588,3.645,1.275c1.931,1.099,3.474,2.843,4.377,4.869c0.617,1.411,0.914,2.953,0.934,4.49
	c-0.079,0.765-0.105,1.543-0.322,2.288c-0.751,3.361-3.282,6.266-6.516,7.456c-0.786,0.294-1.613,0.455-2.438,0.605
	c-0.61,0.141-1.241,0.084-1.863,0.084c-0.946-0.14-1.883-0.349-2.79-0.651c-3.427-1.229-6.07-4.373-6.715-7.952
	c-0.075-0.437-0.188-0.869-0.173-1.313c0.014-0.804-0.066-1.619,0.12-2.409c0.329-2.108,1.338-4.094,2.805-5.64
	c0.367-0.354,0.75-0.692,1.135-1.026c0.533-0.409,1.11-0.762,1.701-1.082C57.213,41.991,58.303,41.703,59.396,41.49z"/>
<path fill="#FFFFFF" d="M56.429,45.865c0.376-0.033,0.757-0.027,1.134-0.004c1.122,0.169,2.11,0.786,2.961,1.51
	c0.963-0.836,2.157-1.562,3.476-1.528c0.965-0.049,1.905,0.388,2.605,1.034c0.844,0.82,1.313,1.98,1.375,3.146
	c-0.001,0.648,0.088,1.346-0.278,1.923c-0.172-0.028-0.387,0.012-0.499-0.154c-0.047-0.314,0.018-0.629,0.065-0.941
	c0.11-1.011-0.166-2.056-0.72-2.907c-0.477-0.727-1.27-1.238-2.132-1.354c-0.496-0.11-1.002,0.018-1.478,0.156
	c-0.738,0.224-1.377,0.68-1.938,1.195c-0.174,0.128-0.341,0.345-0.58,0.303c-0.313-0.207-0.57-0.487-0.871-0.71
	c-0.675-0.547-1.514-0.89-2.378-0.981c-0.966-0.043-1.931,0.406-2.527,1.167c-0.626,0.752-0.842,1.748-0.927,2.699
	c0.044,0.942,0.338,1.863,0.786,2.69c0.73,1.311,1.737,2.443,2.837,3.454c0.777,0.685,1.592,1.333,2.496,1.844
	c0.251,0.109,0.534,0.33,0.812,0.174c0.437-0.194,0.83-0.47,1.229-0.729c1.164-0.76,2.252-1.653,3.148-2.723
	c0.265-0.328,0.563-0.65,0.683-1.065c-0.289-0.006-0.576,0.012-0.864-0.015c-0.182-0.032-0.123-0.266-0.133-0.395
	c0.049-0.175,0.261-0.121,0.394-0.134c0.547,0.037,1.086-0.147,1.629-0.061c0.226,0.168,0.104,0.484,0.159,0.724
	c0.082,0.462,0.055,0.933,0.074,1.399c-0.151,0.085-0.452,0.219-0.538-0.014c-0.027-0.316-0.005-0.634-0.02-0.949
	c-0.204,0.131-0.393,0.291-0.521,0.501c-0.465,0.692-1.073,1.267-1.671,1.841c-1.034,0.956-2.234,1.703-3.432,2.43
	c-0.323,0.129-0.708,0.075-0.989-0.128c-0.703-0.469-1.451-0.873-2.091-1.429c-0.698-0.523-1.303-1.149-1.912-1.77
	c-1.173-1.286-2.214-2.766-2.659-4.471c-0.079-0.725-0.047-1.46-0.024-2.188c0.188-1.016,0.693-1.993,1.487-2.67
	C55.112,46.286,55.756,45.986,56.429,45.865z"/>
<text transform="matrix(1 0 0 1 8.5918 55.0732)" font-family="'Snippet'" font-size="10.2946">Eventos </text>
<text transform="matrix(1 0 0 1 76.333 55.0723)" font-family="'Snippet'" font-size="10.2946">do bem</text>
</svg>
