<svg version="1.1"
	 id="Layer_1" xmlns:ns1="http://sozi.baierouge.fr" xmlns:rdf="http://www.w3.org/1999/02/22-rdf-syntax-ns#" xmlns:svg="http://www.w3.org/2000/svg" xmlns:dc="http://purl.org/dc/elements/1.1/" xmlns:cc="http://web.resource.org/cc/" xmlns:sodipodi="http://sodipodi.sourceforge.net/DTD/sodipodi-0.dtd" xmlns:inkscape="http://www.inkscape.org/namespaces/inkscape"
	 xmlns="http://www.w3.org/2000/svg" xmlns:xlink="http://www.w3.org/1999/xlink" x="0px" y="0px" width="604.627px"
	 height="381.157px" viewBox="5.545 206.314 604.627 381.157" enable-background="new 5.545 206.314 604.627 381.157"
	 xml:space="preserve">
<g id="_x23_2d5b99ff">
	<path fill="#2D5B99" d="M6.508,225.032c1.6-10.551,11.754-19.126,22.461-18.703c184.834,0.018,369.669,0.004,554.5,0.009
		c3.12,0.031,6.329-0.236,9.404,0.673c7.533,1.93,13.907,7.912,16.002,15.418c1.962,6.847,0.401,14.005,1.07,20.977
		c-11.634,1.181-23.312-0.433-34.946,0.316c-10.965,0.161-21.975-0.071-32.984-0.218c-12.035,0.459-24.07,0.169-36.105,0.022
		c-5.482-0.013-11.01-0.098-16.492,0.268c-9.494,0.401-19.033-0.308-28.527-0.339c-5.036-0.067-10.073,0.294-15.155,0.352
		c-10.096,0.245-20.205-0.147-30.314,0.009c-10.697,0.058-21.396-0.106-32.089-0.143c-12.329-0.133-24.653,0.125-36.982,0.062
		c-11.438,0.067-22.876-0.348-34.313-0.107c-12.494,0.156-24.992,0.228-37.486-0.067c-4.903-0.178-9.802,0.259-14.705,0.294
		c-5.643,0.151-11.291-0.04-16.929-0.165c-40.861,0.236-81.717,0.049-122.578-0.116c-15.45,0.481-30.912,0.16-46.366,0.093
		c-8.019-0.535-16.042,0.326-24.066,0.081c-7.274,0-14.553,0.25-21.823-0.076c-7.243,0.076-14.496,0.415-21.729-0.111
		c-0.049-6.173-0.348-12.365,0.151-18.529H6.508z"/>
	<path fill="#2D5B99" d="M6.267,319.748c7.274-0.308,14.553-0.129,21.828-0.178h430.571c50.457,0.129,100.87-0.196,151.328,0.183
		c-0.045,12.267-0.401,24.529-0.134,36.791c-0.045,49.624,0,99.244-0.045,148.868c0.09,12.039-0.134,24.088,0.134,36.127
		c-0.356,6.08-0.089,12.183-0.178,18.275c-0.089,3.633,0.356,7.351-0.669,10.894c-2.496,9.629-11.99,17.13-22.063,16.747
		c-186.012-0.014-372.041-0.014-558.066,0c-11.781,0.494-22.795-10.016-22.715-21.832C6.263,483.664,6.258,401.705,6.267,319.748
		 M92.032,325.488c0,3.967,0.004,7.93,0,11.897c1.609,0.004,3.218,0.004,4.832,0.004c-0.401-3.94-0.415-7.907-0.219-11.861
		C95.107,325.52,93.57,325.502,92.032,325.488 M141.255,325.498c-0.009,3.962-0.014,7.925-0.022,11.888
		c1.484,0.009,2.964,0.009,4.449-0.013c0.472-3.954,0.392-7.948-0.049-11.897C144.17,325.475,142.712,325.489,141.255,325.498
		 M32.146,326.402c-1.399,3.575-2.34,7.306-3.423,10.983c1.003-0.004,2.001,0,3,0c0.254-0.847,0.5-1.698,0.753-2.541
		c1.542,0.223,3.058,0.927,3.566,2.514c1.168,0.027,2.335,0.04,3.499,0.054c-1.212-3.922-2.394-7.854-3.865-11.688
		C34.491,325.908,33.314,326.13,32.146,326.402 M72.83,326.01c-3.642,1.007-4.654,5.812-3.014,8.856
		c1.507,3.125,6.281,3.687,8.576,1.132c1.574-1.48,1.6-3.793,1.404-5.79C79.346,327.115,75.802,324.905,72.83,326.01
		 M97.385,326.019c-0.018,0.954-0.031,1.908-0.049,2.862c1.36,0.026,2.719,0.04,4.079,0.044c-1.439,1.966-2.879,3.931-4.346,5.884
		c0.009,0.86,0.026,1.716,0.031,2.581c3.089-0.004,6.174,0.009,9.263,0c-0.004-0.896-0.004-1.783-0.004-2.674
		c-1.649-0.004-3.298-0.004-4.943-0.004c2.14-2.652,4.07-5.469,5.559-8.541c0.107,0.228,0.321,0.687,0.428,0.914
		c-0.107,3.432-0.299,6.869-0.201,10.31c2.92,0,5.844-0.004,8.768-0.009c0.009-0.847,0.018-1.694,0.031-2.541
		c-2.086-0.081-4.823,0.428-6.044-1.756c1.703-0.223,3.414-0.366,5.13-0.455c-0.018-0.798-0.036-1.596-0.049-2.394
		c-1.422,0-2.849,0.004-4.271,0.004c0.009-0.33,0.018-0.99,0.027-1.319c1.707-0.014,3.419-0.036,5.13-0.044
		c-0.049-0.954-0.107-1.903-0.165-2.853C109.634,325.832,103.51,326.037,97.385,326.019 M131.172,331.417
		c1.743,1.431,4.029,1.961,5.861,3.276c-1.524,0.045-2.969-0.455-4.279-1.181c-1.029,0.232-2.055,0.473-3.075,0.749
		c0.86,1.199,1.876,2.376,3.294,2.924c2.331,0.896,5.897,0.566,6.846-2.144c0.357-1.092,0.807-2.679-0.263-3.508
		c-1.449-1.181-3.383-1.382-5.082-2.015l0.673-0.45c1.823,0.463,3.677,0.201,5.416-0.481c-1.614-1.77-3.9-3.392-6.428-2.737
		C131.609,326.028,129.55,329.224,131.172,331.417 M147.156,327.642c-1.333,2.536-1.279,5.75,0.018,8.291
		c1.047,1.569,3.214,1.56,4.881,1.311c1.399-0.285,2.804-0.076,4.172,0.258c0.054-2.193,0.031-4.386,0.04-6.574
		c-1.832-0.022-3.668-0.027-5.5,0.116c0.187,1.466,0.65,2.875,1.15,4.261c-2.608-1.083-2.207-4.154-1.868-6.405l1.676-0.303
		c0.45,0.571,0.896,1.141,1.346,1.716c1.097-0.174,2.188-0.343,3.285-0.521C155.63,325.658,149.639,324.388,147.156,327.642
		 M185.976,326.015c-0.044,3.156-0.285,6.338,0.183,9.472c1.663,2.768,6.093,2.839,8.331,0.74c1.351-3.214,0.615-6.798,0.749-10.176
		c-0.985-0.018-1.975-0.031-2.955-0.036c-0.223,3.013,0.972,6.432-1.057,9.053c-0.78-0.557-1.689-1.137-1.868-2.162
		c-0.415-2.278,0.241-4.583,0.085-6.874C188.285,326.023,187.13,326.015,185.976,326.015 M40.201,336.048
		c1.288,1.561,3.624,1.854,5.509,1.462c1.333-0.375,2.996-1.221,3-2.817c0.241-2.884,0.053-5.79,0.094-8.683
		c-0.967,0.013-1.93,0.031-2.897,0.044c-0.031,2.879,0.228,5.786-0.325,8.634c-0.691-0.009-1.382-0.013-2.073-0.018
		c-0.459-2.862-0.245-5.768-0.268-8.652h-3.793C39.613,329.349,38.779,332.901,40.201,336.048 M49.361,326.028
		c-0.067,1.609,0.847,3,2.344,3.575c0.014,2.594-0.009,5.188,0,7.783c1.271,0,2.537,0,3.807-0.004
		c-0.009-2.647-0.026-5.291,0.014-7.934c1.613-0.343,2.398-1.81,2.679-3.303C55.258,326.019,52.312,325.992,49.361,326.028
		 M58.619,326.001c-0.45,3.775-0.49,7.591-0.396,11.389c1.23,0.004,2.46-0.004,3.69-0.013c0.018-1.52,0.116-3.04,0.464-4.52
		c0.575,0.147,1.404-0.053,1.689,0.628c0.334,1.266,0.232,2.59,0.29,3.883c1.23,0.018,2.456,0.026,3.686,0.018
		c0.009-3.775,0-7.555-0.04-11.335c-1.208-0.018-2.412-0.031-3.619-0.036c-0.031,1.408-0.067,2.817-0.121,4.226
		c-0.749-0.004-1.498-0.009-2.251-0.009c-0.027-1.404-0.049-2.809-0.058-4.208C60.839,326.019,59.729,326.01,58.619,326.001
		 M81.08,326.023c-0.036,3.789-0.062,7.573-0.067,11.362h3.677c0.103-1.466,0.205-2.933,0.303-4.399
		c0.874,1.431,1.649,2.915,2.425,4.399c1.221,0.004,2.447,0.004,3.673,0.004c-0.575-1.56-1.164-3.116-1.752-4.671
		c0.562-0.579,1.128-1.159,1.698-1.729c-0.223-1.386,0.169-3.24-1.132-4.172C87.138,325.596,84.018,326.122,81.08,326.023
		 M117.229,326.015c-0.004,3.793-0.018,7.582-0.018,11.375c2.755-0.134,5.862,0.562,8.273-1.137c2.706-2.34,2.594-7.314-0.401-9.374
		C122.659,325.658,119.846,326.09,117.229,326.015 M157.346,326.015c0,3.793-0.005,7.582-0.009,11.371
		c1.034,0.004,2.073,0.004,3.107,0.009c-0.165-2.126-0.191-4.257-0.312-6.378c1.261,2.028,2.469,4.092,3.655,6.169
		c1.047,0.103,2.095,0.188,3.142,0.272c0.014-3.82,0.009-7.635,0-11.451c-1.056,0.018-2.108,0.045-3.16,0.076
		c0.151,1.729,0.276,3.459,0.383,5.193c-1.172-1.716-2.345-3.433-3.405-5.215C159.615,326.032,158.478,326.001,157.346,326.015
		 M170.785,326.041c-1.124,3.793-2.251,7.582-3.41,11.367c0.905-0.014,1.81-0.022,2.719-0.031c0.455-1.471,1.734-2.354,3.25-2.434
		c0.303,0.753,0.432,1.756,1.297,2.104c1.124,0.473,2.385,0.357,3.575,0.477c-1.114-3.838-2.322-7.649-3.495-11.473
		C173.411,326.05,172.096,326.046,170.785,326.041 M176.793,326.063c-0.084,1.667,0.99,3.018,2.603,3.37
		c0.027,2.648,0.009,5.3,0.009,7.948c1.137,0.004,2.273,0.004,3.41,0.009c0.014-2.706,0.018-5.411,0.04-8.121
		c0.713-0.209,1.614-0.174,2.104-0.833c0.521-0.673,0.468-1.583,0.651-2.372C182.673,326.005,179.731,326.005,176.793,326.063
		 M196.972,326.032c-0.022,3.784-0.027,7.573-0.009,11.357c1.114,0,2.229,0.009,3.347,0.014c0.067-1.583,0.188-3.161,0.357-4.734
		c0.833,1.524,1.604,3.084,2.322,4.671c1.319,0.04,2.643,0.053,3.967,0.053c-0.597-1.458-1.217-2.902-1.796-4.368
		c1.029-1.631,2.451-3.878,1.083-5.719C203.569,325.337,200.048,326.197,196.972,326.032 M207.714,326.05v11.335h8.545
		c0.009-0.851,0.018-1.707,0.031-2.554c-1.912-0.084-5.082,0.651-5.411-2.082c1.475-0.049,2.955-0.036,4.435,0.004
		c-0.076-0.744,0.258-1.653-0.129-2.291c-1.583-0.352-3.205-0.513-4.747-1.025c1.917-0.415,3.882-0.531,5.83-0.718
		c-0.013-0.9-0.026-1.801-0.036-2.701C213.393,326.001,210.554,326.063,207.714,326.05 M28.906,342.213
		c0.143,2.688,0.285,5.375,0.129,8.068c-0.268,5.647,0.018,11.295-0.112,16.947c0.259,11.309-0.258,22.621,0.196,33.93
		c0.076,3.143-0.009,6.285-0.178,9.428c44.73,0.009,89.456,0.098,134.186,0.093c89.901,0.005,179.797-0.075,269.699-0.049
		c51.647,0.036,103.265,0.094,154.926,0.094c-0.223-22.853-0.312-45.706-0.045-68.555c-12.525,0.473-25.095-0.053-37.665,0.103
		c-64.632,0.04-129.255,0.009-193.892,0.018c-11.14-0.027-22.283,0.196-33.422-0.018c-6.245-0.044-12.489,0.103-18.734,0.125
		c-12.03-0.241-24.065-0.049-36.1-0.107c-15.155,0.031-30.311-0.076-45.461,0.076c-9.058-0.254-18.12,0.054-27.177,0.013
		c-6.847-0.227-13.698-0.071-20.544-0.009c-5.647,0.071-11.291-0.205-16.938-0.094c-5.937,0.009-11.875,0.196-17.812,0.041
		c-8.902-0.214-17.803,0.205-26.709-0.014c-8.772-0.218-17.544,0.263-26.316,0.009c-7.288-0.187-14.576,0.116-21.863,0.067
		C53.016,342.003,40.959,342.667,28.906,342.213 M188.646,420.137c-0.018,1.194-0.049,2.394-0.067,3.598
		c-1.467-0.245-3.294-1.182-4.533,0.084c-1.743,1.841-1.997,5.505,0.33,6.98c2.037,0.803,4.306,0.558,6.455,0.704
		c0.018-3.727,0.04-7.457,0.116-11.188C190.175,420.257,189.413,420.199,188.646,420.137 M29.842,420.133
		c-0.031,3.775-0.111,7.551,0.027,11.321c0.62-0.018,1.234-0.026,1.85-0.035c0.219-2.301,0.134-4.609,0.174-6.914
		c1.93,2.67,2.875,6.807,6.637,7.436c0.067-3.914,0.044-7.832,0.04-11.75c-0.744,0-1.493,0.004-2.237,0.004
		c-0.041,2.087,0.036,4.182-0.147,6.263c-0.062,0.014-0.178,0.036-0.241,0.05c-1.386-1.984-2.527-4.123-3.793-6.179
		C31.38,420.262,30.609,420.199,29.842,420.133 M56.364,420.217c1.333,3.713,2.536,7.479,3.985,11.152
		c0.785,0.312,1.756,0.019,2.612,0.067c1.31-3.74,2.643-7.471,3.967-11.211c-0.882,0.005-1.765,0.014-2.647,0.027
		c-0.847,2.527-1.658,5.072-2.572,7.577c-0.887-2.51-1.783-5.019-2.612-7.546C58.187,420.262,57.273,420.222,56.364,420.217
		 M74.394,420.213c0,3.962-0.022,7.925-0.125,11.888c0.896,0.004,1.792,0.009,2.692,0.018c0.004-3.972-0.009-7.938-0.004-11.901
		C76.101,420.213,75.245,420.213,74.394,420.213 M78.076,420.19c-0.018,3.972-0.022,7.943-0.036,11.914
		c0.883,0,1.765,0.005,2.652,0.01v-11.897C79.818,420.208,78.945,420.194,78.076,420.19 M87.378,419.99
		c-0.009,1.252-0.022,2.509-0.031,3.771c-1.021-0.236-2.042-0.575-3.093-0.593c-1.364,0-2.14,1.346-2.51,2.482
		c-0.713,2.166,0.174,5.095,2.559,5.737c1.756,0.267,3.548-0.019,5.322,0.04c0-3.673,0.103-7.351-0.049-11.019
		C88.845,420.266,88.109,420.128,87.378,419.99 M94.029,420.213c0.071,2.99-0.263,6.018,0.232,8.981
		c1.27,3.459,7.27,3.32,8.406-0.17c0.366-2.901,0.156-5.839,0.179-8.754c-0.776-0.04-1.556-0.085-2.332-0.12
		c-0.027,2.255,0.062,4.516-0.044,6.771c-0.098,0.86-0.076,2.02-1.087,2.331c-0.878,0.241-2.456,0.188-2.635-0.936
		c-0.753-2.635-0.338-5.407-0.379-8.104H94.029 M113.387,420.239c-0.004,3.954-0.018,7.907-0.018,11.865
		c0.856,0,1.712,0.01,2.572,0.014c0.348-3.976,0.098-7.97-0.031-11.95C115.068,420.19,114.225,420.213,113.387,420.239
		 M145.57,420.524c-2.171,0.718-2.073,4.008-0.33,5.148c1.618,1.07,3.584,1.404,5.313,2.251c-0.833,0.615-1.725,1.159-2.625,1.672
		c-0.847-0.638-1.703-1.267-2.523-1.939c-0.771,0.062-1.538,0.13-2.305,0.191c0.486,1.034,0.976,2.064,1.453,3.107
		c1.957,0.615,4.186,1.074,6.111,0.094c1.93-0.928,2.469-3.928,0.815-5.358c-1.613-1.332-3.793-1.573-5.674-2.371
		c1.257-1.399,3.178-0.963,4.458,0.143c0.753,0.031,1.511,0.054,2.273,0.076c-0.584-1.065-0.927-2.412-2.01-3.085
		C148.926,420.012,147.156,420.025,145.57,420.524 M153.33,420.213c-0.005,3.967-0.009,7.934-0.009,11.901
		c0.874-0.005,1.748-0.005,2.621-0.005c0.022-3.967,0.018-7.93-0.018-11.896H153.33 M49.481,421.256
		c-1.636,3.231,0.107,6.735,0.129,10.101c1.204,0.021,2.402,0.053,3.606,0.08c-0.562-1.319-1.426-2.559-1.604-4.012
		c0.125-1.088,0.842-2.02,0.882-3.116c-0.031-1.386-0.691-2.643-1.167-3.909C50.712,420.686,50.101,420.975,49.481,421.256
		 M43.326,423.065c-3.512,0.276-4.702,5.215-2.255,7.443c1.529,1.204,3.94,1.538,5.509,0.21c1.716-1.248,1.997-3.727,1.15-5.562
		C46.914,423.609,45.02,422.815,43.326,423.065 M67.427,423.15c-0.495,0.851-0.99,1.698-1.48,2.554
		c1.663-0.219,3.455-0.843,5.059-0.026c-1.623,0.61-3.33,1.056-4.805,2.006c-0.022,1.087-0.062,2.18-0.094,3.271
		c2.38,0.334,4.778,0.504,7.177,0.575c-0.138-2.113-0.058-4.239-0.357-6.339c-0.138-0.615-0.125-1.444-0.855-1.662
		C70.609,422.9,68.969,423.208,67.427,423.15 M104.423,423.088c0.018,2.781,0.022,5.567,0.036,8.349
		c0.695,0.075,1.391,0.156,2.091,0.24c0.183-1.707,0.031-3.454,0.405-5.135c0.188-0.918,1.355-1.912,2.242-1.386
		c0.838,2.006,0.348,4.252,0.446,6.365c0.758-0.027,1.52-0.05,2.282-0.067c-0.014-2.242,0.134-4.493-0.125-6.717
		c-0.169-0.99-1.204-1.587-2.153-1.543C107.905,423.248,106.157,423.314,104.423,423.088 M117.84,423.997
		c-1.587,1.681-1.689,4.439-0.437,6.338c1.765,2.127,6.303,1.605,6.396-1.608c-1.703,0.249-3.842,1.083-5.197-0.459
		c2.015-0.201,4.038-0.232,6.053-0.42c-0.508-1.613-0.869-3.588-2.487-4.475C120.769,422.815,118.932,422.824,117.84,423.997
		 M124.223,425.704c1.466,1.765,3.588,2.764,5.79,3.271c-0.553,0.299-1.11,0.602-1.658,0.909c-0.855-0.655-1.756-1.252-2.701-1.765
		c-0.548,0.954-0.539,2.309,0.477,2.95c2.073,1.364,5.875,0.401,6.156-2.335c-0.829-2.313-3.664-2.607-5.509-3.803
		c1.823,0.152,3.619,0.504,5.442,0.66c-0.664-1.142-1.6-2.247-2.973-2.474C127.178,422.575,125.11,423.854,124.223,425.704
		 M133.053,426.314c0.994,1.931,3.499,1.948,5.188,2.965c-1.975,0.223-3.887-0.397-5.804-0.74c0.624,2.215,3.071,3.646,5.295,2.955
		c1.605-0.348,3.209-2.309,1.984-3.855c-1.235-1.413-3.254-1.667-4.788-2.652c1.796,0.139,3.57,0.433,5.358,0.642
		c-0.999-1.208-2.019-2.91-3.847-2.679C134.6,422.673,132.318,424.3,133.053,426.314 M159.481,423.271
		c-2.055,0.41-2.799,2.812-2.442,4.649c0.214,1.568,1.221,2.856,2.349,3.908c1.315-0.374,2.634-0.748,3.962-1.069
		c-0.441,0.789-0.936,1.796-1.997,1.783c-1.569-0.059-3.035-0.709-4.56-1.003c0.7,3.637,6.343,4.431,7.965,1.123
		c0.637-3.115,0.294-6.316,0.316-9.468C163.212,423.248,161.327,422.963,159.481,423.271 M166.453,423.194
		c0.009,2.781,0.018,5.563,0.036,8.34c0.74-0.004,1.484-0.004,2.229,0c0.044-2.522-0.535-5.816,2.095-7.301
		c0.441,2.357,0.633,4.751,0.994,7.118c0.687,0.04,1.373,0.08,2.064,0.134c0.094-2.541-0.009-5.091-0.544-7.582
		C171.24,422.65,168.744,423.319,166.453,423.194 M174.133,426.323c0.521,1.583,0.619,3.478,1.93,4.663
		c2.135,1.351,5.866,0.348,5.938-2.55c-1.788,0.396-3.553,0.905-5.38,1.074c1.248-1.983,3.785-1.471,5.764-1.618
		c-0.268-1.302-0.383-2.724-1.204-3.815c-0.687-0.892-1.895-1.043-2.933-1.105C176.299,423.097,175.22,424.951,174.133,426.323
		L174.133,426.323z"/>
	<path fill="#2D5B99" d="M73.417,334.515c-0.588-2.068-1.069-5.046,1.329-6.151c1.319,1.511,1.792,3.852,0.762,5.63
		C75.067,334.787,74.158,334.6,73.417,334.515L73.417,334.515z"/>
	<path fill="#2D5B99" d="M83.821,329.638c0.557-1.092,1.707-1.252,2.812-1.248c0.014,0.798,0.018,1.596,0,2.394
		C85.555,330.762,84.45,330.641,83.821,329.638z"/>
	<path fill="#2D5B99" d="M121.321,328.114c1.248,1.124,2.652,2.572,2.331,4.413c-0.615,1.079-1.694,1.778-2.603,2.59
		C120.992,332.781,120.974,330.432,121.321,328.114z"/>
	<path fill="#2D5B99" d="M200.355,328.702c0.985-1.342,3.495,0.535,2.157,1.725C201.501,331.773,199.036,329.901,200.355,328.702z"
		/>
	<path fill="#2D5B99" d="M33.399,331.024c0.374,0.263,1.177,0.241,1.159,0.86c-0.352,0.504-0.976,0.575-1.538,0.655
		C33.163,332.037,33.288,331.533,33.399,331.024z"/>
	<path fill="#2D5B99" d="M171.574,332.607c0.018-0.668,0.294-1.226,0.816-1.627c0.308,0.326,0.606,0.66,0.905,0.999
		C172.724,332.201,172.149,332.402,171.574,332.607z"/>
	<path fill="#2D5B99" d="M84.454,428.512c-0.543-1.354-0.053-2.821,0.468-4.096c0.655,0.517,1.529,0.918,1.841,1.756
		c0.557,1.307,0.08,2.715-0.218,4.021C85.769,429.761,84.797,429.417,84.454,428.512L84.454,428.512z"/>
	<path fill="#2D5B99" d="M118.861,425.57c0.678-0.481,1.698-1.257,2.456-0.468c0.869,0.562,0.508,1.947-0.562,1.921
		C119.717,427.345,119.249,426.297,118.861,425.57z"/>
	<path fill="#2D5B99" d="M176.963,426.132c0.375-0.513,0.611-1.311,1.369-1.337c0.887-0.165,2.108,0.802,1.386,1.658
		C179.067,427.541,177.627,426.867,176.963,426.132z"/>
	<path fill="#2D5B99" d="M43.29,425.303c1.85-0.793,3.094,1.971,2.051,3.294c-0.495,0.558-1.137,1.368-1.975,0.954
		C42.096,428.615,41.717,426.114,43.29,425.303z"/>
	<path fill="#2D5B99" d="M159.503,426.533c-0.223-1.422,2.13-2.091,2.683-0.763c0.838,1.378-0.223,2.911-0.584,4.284
		C160.56,429.149,159.125,428.138,159.503,426.533z"/>
	<path fill="#2D5B99" d="M185.298,427.425c-0.183-1.186,0.94-3.036,2.273-2.202c1.346,1.297,0.37,3.299,0.174,4.863
		C186.796,429.372,185.245,428.864,185.298,427.425L185.298,427.425z"/>
	<path fill="#2D5B99" d="M68.982,428.227c0.602-0.807,1.275,0.036,1.792,0.46c-0.428,0.4-0.86,0.802-1.297,1.198
		C69.054,429.506,68.198,428.69,68.982,428.227z"/>
</g>
<path fill="#231F20" d="M49.91,243.749c8.023,0.245,16.046-0.615,24.065-0.081c15.454,0.067,30.917,0.388,46.366-0.093
	c40.861,0.165,81.717,0.352,122.578,0.116c5.639,0.125,11.286,0.316,16.929,0.165c4.903-0.036,9.802-0.473,14.705-0.294
	c12.494,0.294,24.993,0.223,37.487,0.067c11.438-0.241,22.875,0.174,34.312,0.107c12.329,0.062,24.654-0.196,36.983-0.062
	c10.693,0.036,21.391,0.201,32.089,0.143c10.109-0.156,20.219,0.236,30.314-0.009c5.081-0.058,10.118-0.419,15.155-0.352
	c9.494,0.031,19.033,0.74,28.527,0.339c5.482-0.366,11.01-0.281,16.492-0.268c12.035,0.147,24.07,0.437,36.104-0.022
	c11.01,0.147,22.02,0.379,32.985,0.218c11.634-0.749,23.312,0.865,34.945-0.316c0.312,25.447,0.268,50.899,0.045,76.346
	c-50.458-0.379-100.871-0.054-151.328-0.183H28.095c-7.274,0.049-14.553-0.129-21.828,0.178c-0.174,0.009-0.517,0.022-0.691,0.031
	c-0.031-25.425,0.036-50.846-0.031-76.271l0.811,0.053c7.234,0.526,14.487,0.188,21.73,0.111
	C35.356,243.999,42.635,243.749,49.91,243.749L49.91,243.749z"/>
<path fill="#231F20" d="M261.618,356.829c2.372-1.168,5.09-0.651,7.631-0.673c2.287,1.324,4.016,3.655,4.676,6.218
	c0.49,1.823-0.049,3.686-0.602,5.429c-1.012,3.218-2.18,6.387-3.414,9.521c-1.105,2.692-3.597,4.395-5.812,6.12
	c-0.081,0.705-0.165,1.409-0.241,2.117c2.117,0.504,4.399,1.712,6.543,0.673c4.604-2.117,9.374-4.885,14.647-4.167
	c1.475,2.126,2.964,4.248,4.23,6.512c2.037-0.041,4.239,0.441,6.16-0.415c3.918-2.621,5.848-7.105,8.643-10.738
	c3.155-0.267,6.525,0.112,9.178,1.988c14.87,10.417,32.779,15.284,50.488,18.173c1.227,0.209,2.515,0.263,3.633,0.874
	c-1.426,0.654-3.03,0.267-4.542,0.36c-2.224-0.085-4.506,0.272-6.677-0.37c-4.689-1.118-9.53-0.308-14.286-0.574
	c-2.416-0.09-4.773-0.678-7.114-1.235c-9.396-2.317-18.387-6.307-26.365-11.79c-3.833,2.55-6.811,6.24-10.92,8.393
	c-1.654,0.927-3.615,1.141-5.474,0.91c-3.54-0.433-6.767-2.158-10.292-2.639c-1.079-0.263-2.032,0.406-2.937,0.878
	c-2.323,1.346-4.52,3.031-7.194,3.632c-4.217-2.79-8.643-5.237-12.922-7.929c-2.229-1.239-4.587,0.419-6.61,1.315
	c-5.131,2.67-11.112,5.019-16.929,3.276c-0.107-0.62,0.093-1.101,0.602-1.453c1.476-1.351,3.076-2.554,4.68-3.744
	c-1.689-2.162-3.334-4.979-2.291-7.792C241.778,368.886,251.254,360.983,261.618,356.829 M257.009,365.275
	c-5.474,3.686-9.877,8.808-13.181,14.486c-0.936,1.355,0.25,3.103,1.516,3.758c1.734,1.029,3.798,0.356,5.581-0.169
	c4.466-1.52,7.284-5.527,10.747-8.474c1.498-1.351,3.495-2.184,4.573-3.963c1.751-2.746,1.587-6.16,1.386-9.271
	C264.011,362.561,260.187,363.185,257.009,365.275L257.009,365.275z"/>
<ellipse fill="none" stroke="#DC1E1E" stroke-width="42" stroke-miterlimit="10" cx="510.25" cy="376.553" rx="73.75" ry="54.781"/>
<g>
	<path d="M485.482,364.383h-0.09l-5.081,2.743l-0.765-3.013l6.386-3.417h3.372v29.229h-3.822V364.383z"/>
	<path d="M499.96,389.924v-2.428l3.103-3.013c7.465-7.105,10.838-10.882,10.883-15.289c0-2.968-1.439-5.711-5.801-5.711
		c-2.653,0-4.856,1.349-6.206,2.473l-1.259-2.788c2.023-1.708,4.901-2.968,8.273-2.968c6.296,0,8.949,4.317,8.949,8.499
		c0,5.396-3.912,9.758-10.073,15.693l-2.338,2.159v0.09h13.131v3.283H499.96z"/>
	<path d="M523.971,385.383c1.124,0.719,3.732,1.843,6.476,1.843c5.081,0,6.655-3.237,6.61-5.666
		c-0.045-4.092-3.732-5.846-7.555-5.846h-2.203v-2.968h2.203c2.878,0,6.521-1.484,6.521-4.946c0-2.338-1.484-4.407-5.127-4.407
		c-2.338,0-4.586,1.034-5.846,1.934l-1.034-2.878c1.529-1.125,4.497-2.249,7.645-2.249c5.756,0,8.364,3.417,8.364,6.97
		c0,3.013-1.799,5.576-5.396,6.88v0.09c3.598,0.72,6.521,3.417,6.521,7.51c0,4.677-3.643,8.769-10.657,8.769
		c-3.283,0-6.161-1.034-7.6-1.979L523.971,385.383z"/>
</g>
</svg>