<svg xmlns="http://www.w3.org/2000/svg" id="boleto" width="281px" height="172px" viewBox="9 25 281 172">
    <path fill="#505050" d="M38.594 91.378h13.024c5.934 0 10.242.845 12.923 2.533 2.68 1.689 4.022 4.374 4.022 8.058 0 2.499-.586 4.551-1.76 6.154-1.174 1.603-2.733 2.567-4.68 2.891v.287c2.651.592 4.565 1.698 5.739 3.32 1.174 1.623 1.76 3.778 1.76 6.469 0 3.816-1.379 6.793-4.136 8.931-2.759 2.138-6.503 3.206-11.235 3.206H38.594V91.378zm8.874 16.573h5.152c2.405 0 4.146-.372 5.225-1.116 1.077-.745 1.617-1.975 1.617-3.693 0-1.603-.587-2.753-1.761-3.449-1.174-.696-3.03-1.044-5.567-1.044h-4.666v9.302zm0 7.042v10.906h5.782c2.442 0 4.246-.467 5.41-1.403 1.163-.936 1.746-2.367 1.746-4.293 0-3.472-2.481-5.209-7.442-5.209l-5.496-.001zm68.496-2.748c0 6.927-1.718 12.251-5.152 15.972-3.435 3.721-8.358 5.582-14.77 5.582-6.411 0-11.335-1.861-14.77-5.582-3.435-3.721-5.152-9.065-5.152-16.029 0-6.965 1.721-12.285 5.167-15.958 3.443-3.673 8.381-5.51 14.812-5.51 6.43 0 11.35 1.852 14.755 5.553 3.407 3.701 5.11 9.025 5.11 15.972zm-30.541 0c0 4.675.887 8.195 2.662 10.562 1.775 2.367 4.426 3.549 7.958 3.549 7.079 0 10.62-4.703 10.62-14.111 0-9.426-3.521-14.14-10.563-14.14-3.531 0-6.193 1.188-7.986 3.564-1.795 2.375-2.691 5.901-2.691 10.576zm39.214 20.981V91.378h8.873v34.521h16.974v7.327h-25.847zm57.22 0h-24.104V91.378h24.104v7.271h-15.229v9.188h14.17v7.271h-14.17v10.791h15.229v7.327zm24.875 0h-8.875V98.763h-11.363v-7.385h31.602v7.385h-11.363v34.463h-.001zm55.788-20.981c0 6.927-1.718 12.251-5.151 15.972-3.435 3.721-8.358 5.582-14.771 5.582s-11.336-1.861-14.771-5.582c-3.435-3.721-5.152-9.065-5.152-16.029 0-6.965 1.718-12.285 5.167-15.958 3.442-3.673 8.381-5.51 14.813-5.51 6.428 0 11.351 1.852 14.757 5.553 3.402 3.701 5.108 9.025 5.108 15.972zm-30.541 0c0 4.675.888 8.195 2.662 10.562 1.773 2.367 4.422 3.549 7.957 3.549 7.076 0 10.619-4.703 10.619-14.111 0-9.426-3.521-14.14-10.563-14.14-3.535 0-6.197 1.188-7.985 3.564-1.797 2.375-2.69 5.901-2.69 10.576zm-162.08 40.719h7.424V198.5h-7.424zm-32.218 0h7.424V198.5h-7.424zm49.128-.116h2.476V198.5h-2.476zm-38.856 0h1.417V198.5h-1.417zm-15.974 0h2.476V198.5h-2.476zm19.537 0h1.414V198.5h-1.414zm5.401 0h1.413V198.5h-1.413zm23.55 0h1.063V198.5h-1.063zm30.855 0h7.424V198.5h-7.424zm-27.289 0h1.063V198.5h-1.063zm-21.885 0h4.244V198.5h-4.244zm29.311 0h4.243V198.5h-4.243zm7.787 0h1.417V198.5h-1.417zm3.564 0h1.413V198.5h-1.413zm5.401 0h1.413V198.5h-1.413zm18.9 0h2.476V198.5h-2.476zm-6.341 0h1.063V198.5h-1.063zm3.565 0h1.063V198.5h-1.063zm7.426 0h4.243V198.5h-4.243zm19.863 0h7.424V198.5h-7.424zm-12.076 0h1.417V198.5h-1.417zm3.564 0h1.413V198.5h-1.413zm5.401 0h1.413V198.5h-1.413zm13.016 0h1.418V198.5h-1.418zm3.567 0h1.413V198.5h-1.413zm5.398 0h1.417V198.5h-1.417zm3.113 0h7.424V198.5h-7.424zm9.446 0h1.066V198.5h-1.066zm3.567 0h1.063V198.5h-1.063zm6.441 0h2.477V198.5h-2.477zm-2.777 0h1.062V198.5h-1.062zm7.424 0h4.244V198.5h-4.244zm8.874 0h7.423V198.5h-7.423zm9.906 0h1.418V198.5h-1.418zm3.564 0h1.414V198.5h-1.414zm5.983 0h2.477V198.5h-2.477zm4.649 0h4.242V198.5h-4.242zm7.789 0h1.416V198.5h-1.416zm3.562 0h1.414V198.5h-1.414zm4.849 0h7.425V198.5h-7.425zm9.445 0h1.067V198.5h-1.067zm3.664 0h4.243V198.5h-4.243zm7.691 0h1.412V198.5h-1.412zM86.809 26h2.476v44.079h-2.476zm-38.856 0h1.417v44.079h-1.417zm-15.974 0h2.476v44.079h-2.476zm19.537 0h1.414v44.073h-1.414zm5.401 0h1.413v44.079h-1.413zm23.55 0h1.063v44.079h-1.063zm30.855 0h7.424v43.503h-7.424zm-41.423 0h7.424v43.503h-7.424zm-32.218 0h7.424v43.503h-7.424zm46.352 0h1.063v44.079h-1.063zm-21.885 0h4.244v44.079h-4.244zm29.311 0h4.243v44.079h-4.243zm7.787 0h1.417v44.079h-1.417zm3.564 0h1.413v44.073h-1.413zm5.401 0h1.413v44.079h-1.413zm18.9 0h2.476v44.079h-2.476zm-6.341 0h1.063v44.079h-1.063zm3.565 0h1.063v44.079h-1.063zm7.426 0h4.243v44.079h-4.243zm19.863 0h7.424v43.503h-7.424zm-12.076 0h1.417v44.079h-1.417zm3.564 0h1.413v44.073h-1.413zm5.401 0h1.413v44.079h-1.413zm13.016 0h1.418v44.079h-1.418zm3.567 0h1.413v44.073h-1.413zm5.398 0h1.417v44.079h-1.417zm3.113 0h7.424v43.503h-7.424zm9.446 0h1.066v44.079h-1.066zm3.567 0h1.063v44.079h-1.063zm6.441 0h2.477v44.079h-2.477zm-2.777 0h1.062v44.079h-1.062zm7.424 0h4.244v44.079h-4.244zm8.874 0h7.423v43.503h-7.423zm9.906 0h1.418v44.079h-1.418zm3.564 0h1.414v44.073h-1.414zm5.983 0h2.477v44.079h-2.477zm4.649 0h4.242v44.079h-4.242zm7.789 0h1.416v44.079h-1.416zm3.562 0h1.414v44.073h-1.414zm4.849 0h7.425v43.503h-7.425zm9.445 0h1.067v44.079h-1.067zm3.664 0h4.243v44.079h-4.243zm7.691 0h1.412v44.073h-1.412zM20.431 26h2.025v172.5h-2.025zm5.398 0h2.025v172.5h-2.025zM271.7 26h2.575v172.5H271.7zm5.353 0h2.676v172.5h-2.676zm5.638 0h2.576v172.5h-2.576zm5.353 0h2.677v172.5h-2.677zM9.439 26h2.025v172.5H9.439zm5.398 0h2.025v172.5h-2.025z"/>
</svg>
