<svg xmlns="http://www.w3.org/2000/svg" xmlns:xlink="http://www.w3.org/1999/xlink" id="Layer_1" x="0px" y="0px" style="enable-background:new 0 0 60 40;" version="1.1" viewBox="0 0 60 40" xml:space="preserve">
    <style type="text/css">
        .st12{fill-rule:evenodd;clip-rule:evenodd;} .st13{fill-rule:evenodd;clip-rule:evenodd;fill:#FFFFFF;stroke:#FFFFFF;stroke-width:0.216;stroke-miterlimit:22.9256;} .st14{fill-rule:evenodd;clip-rule:evenodd;fill:#A72A30;stroke:#A72A30;stroke-width:0.216;stroke-miterlimit:22.9256;} .st15{fill-rule:evenodd;clip-rule:evenodd;fill:#FFF100;stroke:#FFF100;stroke-width:0.216;stroke-miterlimit:22.9256;}
    </style>
    <g>
        <path d="M55,0H5C2.3,0,0,2.2,0,5v30c0,2.8,2.3,5,5,5h50c2.8,0,5-2.2,5-5V5C60,2.2,57.7,0,55,0L55,0z" class="st0"/>
        <path d="M30.3,6.7c7.5,0,13.6,6.1,13.6,13.6c0,7.5-6.1,13.6-13.6,13.6c-7.5,0-13.6-6.1-13.6-13.6
		C16.7,12.8,22.8,6.7,30.3,6.7L30.3,6.7z" class="st12"/>
        <path d="M21.4,20.9c0-0.1,0-0.2,0-0.3c0-1.4,1.1-2.5,2.5-2.5c0.8,0,1.4,0.3,1.9,0.9L21.4,20.9L21.4,20.9z M25.7,22.3
		c-0.4,0.4-1.1,0.7-1.8,0.7c-0.5,0-0.9-0.1-1.3-0.4l-0.9,1.5c0.7,0.4,1.4,0.7,2.3,0.7c1.1,0,2.2-0.5,2.9-1.2L25.7,22.3L25.7,22.3z
		 M28,19.6c-0.4-1.9-2.1-3.3-4.1-3.3c-2.3,0-4.2,1.9-4.2,4.2c0,0.8,0.2,1.6,0.7,2.3L28,19.6L28,19.6z" class="st13"/>
        <path d="M37.9,22.4c-0.4,0.4-1,0.6-1.7,0.6c-1.4,0-2.5-1.1-2.5-2.5c0-0.4,0.1-0.7,0.2-1.1l-1.6-0.8
		c-0.3,0.6-0.4,1.2-0.4,1.8c0,2.3,1.9,4.2,4.2,4.2c1.1,0,2.1-0.4,2.8-1.1L37.9,22.4L37.9,22.4z" class="st14"/>
        <path d="M31.8,23.2l-0.6,1.6l-1.3-0.5c0,0-1-0.4-1-1.6v-8.2h1.6v8.1L31.8,23.2L31.8,23.2z" class="st13"/>
        <path d="M34.6,18.8c0.4-0.4,1-0.6,1.7-0.6c1.4,0,2.5,1.1,2.5,2.5c0,0.4-0.1,0.7-0.2,1.1l1.6,0.8
		c0.2-0.4,0.3-0.9,0.4-1.3v-0.9c-0.2-2.1-2-3.7-4.2-3.7c-1.1,0-2.1,0.4-2.8,1.1L34.6,18.8L34.6,18.8z" class="st15"/>
        <path d="M28,19.6c-0.4-1.9-2.1-3.3-4.1-3.3c-2,0-3.7,1.4-4.1,3.4c-0.1,0.4-0.1,0.8-0.1,1.3c0.1,0.7,0.3,1.3,0.7,1.9
		L28,19.6L28,19.6z M23.9,18.1c0.8,0,1.4,0.3,1.9,0.9l-4.4,1.9c0-0.1,0-0.2,0-0.3C21.4,19.2,22.5,18.1,23.9,18.1L23.9,18.1z" class="st15"/>
    </g>
</svg>
