<?xml version="1.0" encoding="utf-8"?>
<!-- Generator: Adobe Illustrator 15.0.0, SVG Export Plug-In . SVG Version: 6.00 Build 0)  -->
<!DOCTYPE svg PUBLIC "-//W3C//DTD SVG 1.1//EN" "http://www.w3.org/Graphics/SVG/1.1/DTD/svg11.dtd">
<svg version="1.1" id="Layer_1" xmlns="http://www.w3.org/2000/svg" xmlns:xlink="http://www.w3.org/1999/xlink" x="0px" y="0px"
	 width="270px" height="270px" viewBox="15.885 9 29.667 30" enable-background="new 15.885 9 29.667 30" xml:space="preserve">
<path fill="#0EA4F1" d="M35.255,30.875h-9.276c0,0,1.33-2.814,1.546-3.093c0.217-0.278,0.866-0.773,3.093-0.773
	c2.258,0,2.876,0.495,3.093,0.773C33.926,28.061,35.255,30.875,35.255,30.875z"/>
<path fill="#0EA4F1" d="M33.4,28.555h-5.567c0,0,0.558-0.742,0.619-1.854c0.062-0.835,0-1.237,0-1.237h4.33c0,0-0.093,0.371,0,1.237
	C32.875,27.721,33.4,28.555,33.4,28.555z"/>
<path fill="#0EA4F1" d="M30.617,11.546c6.834,0,12.371,5.536,12.371,12.37s-5.536,12.37-12.371,12.37s-12.37-5.536-12.37-12.37
	S23.782,11.546,30.617,11.546 M30.617,10C22.916,10,16.7,16.216,16.7,23.917s6.216,13.917,13.917,13.917s13.917-6.216,13.917-13.917
	S38.317,10,30.617,10L30.617,10z"/>
<g>
	<path fill="#0EA4F1" d="M30.617,34.741c3.278,0,6.185-1.454,8.165-3.742c-1.979-1.483-4.886-2.412-8.165-2.412
		c-3.278,0-6.185,0.929-8.165,2.412C24.432,33.287,27.339,34.741,30.617,34.741z"/>
</g>
<path fill="#0EA4F1" d="M35.255,20.051c0-3.835-2.071-5.412-4.639-5.412s-4.639,1.577-4.639,5.412s2.071,6.958,4.639,6.958
	S35.255,23.886,35.255,20.051z"/>
</svg>
